{
.appVersion = "1131";
DisplayStrings = (
"/maiHanaKat-thai.narrow/poPla-thai",
"/koKai-thai/ko_part"
);
copyright = "Copyright © 2018 by Cadson Demak Co.,Ltd.. All rights reserved.";
customParameters = (
{
name = vendorID;
value = CDK;
},
{
name = description;
value = "Copyright (c) 2018, Cadson Demak (info@cadsondemak.com)";
},
{
name = license;

glyphs = (
{
glyphname = A;
lastChange = "2018-04-30 18:25:59 +0000";
layers = (
{
anchors = (
{
name = bottom;
position = "{310, 0}";
},
{
name = ogonek;
position = "{605, 0}";
},
{
name = top;
position = "{310, 660}";
}
);
hints = (
{
horizontal = 1;
origin = "{0, 15}";
target = up;
type = BottomGhost;
},
{
horizontal = 1;
origin = "{1, 3}";
target = "{1, 2}";
type = Stem;
},
{
horizontal = 1;
origin = "{0, 12}";
target = down;
type = TopGhost;
},
{
horizontal = 1;
origin = "{0, 12}";
target = "{0, 3}";
type = Stem;
}
);
layerId = "5A4BD32C-A1D1-4EB1-A794-47BD06E3B809";
paths = (
{
closed = 1;
nodes = (
"89 0 LINE",
"145 259 OFFCURVE",
"213 454 OFFCURVE",
"323 651 CURVE",
"297 651 LINE",
"407 454 OFFCURVE",
"475 259 OFFCURVE",
"531 0 CURVE",
"605 0 LINE",
"539 273 OFFCURVE",
"464 487 OFFCURVE",
"348 700 CURVE",
"273 700 LINE",
"157 487 OFFCURVE",
"81 273 OFFCURVE",
"15 0 CURVE"
);
},
{
closed = 1;
nodes = (
"499 203 LINE",
"480 263 LINE",
"140 263 LINE",
"120 203 LINE"
);
}
);
width = 620;
},
{
anchors = (
{
name = bottom;
position = "{325, 0}";
},
{
name = ogonek;
position = "{640, 0}";
},
{
name = top;
position = "{325, 660}";
}
);
hints = (
{
horizontal = 1;
origin = "{0, 15}";
target = up;
type = BottomGhost;
},
{
horizontal = 1;
origin = "{1, 3}";
target = "{1, 2}";
type = Stem;
},
{
horizontal = 1;
origin = "{0, 12}";
target = down;
type = TopGhost;
},
{
horizontal = 1;
origin = "{0, 12}";
target = "{0, 3}";
type = Stem;
}
);
layerId = "FD6510A9-FDB4-489D-9A3E-85E488E95339";
paths = (
{
closed = 1;
nodes = (
"164 0 LINE",
"190 249 OFFCURVE",
"228 424 OFFCURVE",
"338 611 CURVE",
"312 611 LINE",
"422 424 OFFCURVE",
"460 249 OFFCURVE",
"486 0 CURVE",
"640 0 LINE",
"624 253 OFFCURVE",
"549 487 OFFCURVE",
"403 700 CURVE",
"248 700 LINE",
"102 487 OFFCURVE",
"26 253 OFFCURVE",
"10 0 CURVE"
);
},
{
closed = 1;
nodes = (
"514 163 LINE",
"495 263 LINE",
"155 263 LINE",
"135 163 LINE"
);
}
);
width = 650;
},
{
anchors = (
{
name = bottom;
position = "{310, 0}";
},
{
name = ogonek;
position = "{605, 0}";
},
{
name = top;
position = "{310, 660}";
}
);
hints = (
{
horizontal = 1;
origin = "{0, 15}";
target = up;
type = BottomGhost;
},
{
horizontal = 1;
origin = "{1, 3}";
target = "{1, 2}";
type = Stem;
},
{
horizontal = 1;
origin = "{0, 12}";
target = down;
type = TopGhost;
},
{
horizontal = 1;
origin = "{0, 12}";
target = "{0, 3}";
type = Stem;
}
);
layerId = "EB12C417-147C-44D3-ABF9-73FB32C0B9E2";
paths = (
{
closed = 1;
nodes = (
"59 0 LINE",
"105 249 OFFCURVE",
"203 504 OFFCURVE",
"323 671 CURVE",
"297 671 LINE",
"417 504 OFFCURVE",
"515 249 OFFCURVE",
"561 0 CURVE",
"605 0 LINE",
"549 293 OFFCURVE",
"454 507 OFFCURVE",
"328 700 CURVE",
"293 700 LINE",
"167 507 OFFCURVE",
"71 293 OFFCURVE",
"15 0 CURVE"
);
},
{
closed = 1;
nodes = (
"529 203 LINE",
"510 243 LINE",
"110 243 LINE",
"90 203 LINE"
);
}
);
width = 620;
}
);
note = A;
unicode = 0041;
},
{
glyphname = B;
lastChange = "2018-04-30 15:58:41 +0000";
layers = (
{
anchors = (
{
name = bottom;
position = "{308, 0}";
},
{
name = top;
position = "{308, 660}";
}
);
hints = (
{
horizontal = 1;
origin = "{0, 15}";
target = "{1, 18}";
type = Stem;
},
{
horizontal = 1;
origin = "{1, 10}";
target = "{1, 9}";
type = Stem;
},
{
horizontal = 1;
origin = "{0, 14}";
target = "{1, 1}";
type = Stem;
},
{
origin = "{0, 15}";
target = "{1, 19}";
type = Stem;
},
{
origin = "{1, 14}";
target = "{0, 3}";
type = Stem;
},
{
origin = "{1, 5}";
target = "{0, 10}";
type = Stem;
}
);
layerId = "5A4BD32C-A1D1-4EB1-A794-47BD06E3B809";
paths = (
{
closed = 1;
nodes = (
"326 0 LINE SMOOTH",
"501 0 OFFCURVE",
"572 84 OFFCURVE",
"572 194 CURVE SMOOTH",
"572 290 OFFCURVE",
"499 365 OFFCURVE",
"404 367 CURVE",
"404 350 LINE",
"473 356 OFFCURVE",
"540 419 OFFCURVE",
"540 516 CURVE SMOOTH",
"540 621 OFFCURVE",
"465 700 OFFCURVE",
"316 700 CURVE SMOOTH",
"86 700 LINE",
"86 0 LINE"
);
},
{
closed = 1;
nodes = (
"158 680 LINE",
"113 640 LINE",
"316 640 LINE SMOOTH",
"417 640 OFFCURVE",
"468 589 OFFCURVE",
"468 516 CURVE SMOOTH",
"468 437 OFFCURVE",
"425 385 OFFCURVE",
"313 385 CURVE SMOOTH",
"134 385 LINE",
"134 328 LINE",
"314 328 LINE SMOOTH",
"445 328 OFFCURVE",
"500 285 OFFCURVE",
"500 194 CURVE SMOOTH",
"500 97 OFFCURVE",
"445 60 OFFCURVE",
"316 60 CURVE SMOOTH",
"113 60 LINE",
"158 15 LINE"
);
}
);
width = 615;
},
{
anchors = (
{
name = bottom;
position = "{308, 0}";
},
{
name = top;
position = "{308, 660}";
}
);
hints = (
{
horizontal = 1;
origin = "{0, 15}";
target = "{1, 18}";
type = Stem;
},
{
horizontal = 1;
origin = "{1, 10}";
target = "{1, 9}";
type = Stem;
},
{
horizontal = 1;
origin = "{0, 14}";
target = "{1, 1}";
type = Stem;
},
{
origin = "{0, 15}";
target = "{1, 19}";
type = Stem;
},
{
origin = "{1, 14}";
target = "{0, 3}";
type = Stem;
},
{
origin = "{1, 5}";
target = "{0, 10}";
type = Stem;
}
);
layerId = "FD6510A9-FDB4-489D-9A3E-85E488E95339";
paths = (
{
closed = 1;
nodes = (
"336 0 LINE SMOOTH",
"511 0 OFFCURVE",
"592 84 OFFCURVE",
"592 204 CURVE SMOOTH",
"592 300 OFFCURVE",
"514 367 OFFCURVE",
"429 369 CURVE",
"429 352 LINE",
"498 358 OFFCURVE",
"560 409 OFFCURVE",
"560 506 CURVE SMOOTH",
"560 621 OFFCURVE",
"475 700 OFFCURVE",
"326 700 CURVE SMOOTH",
"76 700 LINE",
"76 0 LINE"
);
},
{
closed = 1;
nodes = (
"226 660 LINE",
"163 595 LINE",
"286 595 LINE SMOOTH",
"364 595 OFFCURVE",
"408 569 OFFCURVE",
"408 506 CURVE SMOOTH",
"408 437 OFFCURVE",
"365 405 OFFCURVE",
"283 405 CURVE SMOOTH",
"174 405 LINE",
"174 308 LINE",
"304 308 LINE SMOOTH",
"405 308 OFFCURVE",
"440 275 OFFCURVE",
"440 204 CURVE SMOOTH",
"440 127 OFFCURVE",
"405 100 OFFCURVE",
"306 100 CURVE SMOOTH",
"163 100 LINE",
"226 35 LINE"
);
}
);
width = 625;
},
{
anchors = (
{
name = bottom;
position = "{308, 0}";
},
{
name = top;
position = "{308, 660}";
}
);
hints = (
{
horizontal = 1;
origin = "{0, 15}";
target = "{1, 18}";
type = Stem;
},
{
horizontal = 1;
origin = "{1, 10}";
target = "{1, 9}";
type = Stem;
},
{
horizontal = 1;
origin = "{0, 14}";
target = "{1, 1}";
type = Stem;
},
{
origin = "{0, 15}";
target = "{1, 19}";
type = Stem;
},
{
origin = "{1, 14}";
target = "{0, 3}";
type = Stem;
},
{
origin = "{1, 5}";
target = "{0, 10}";
type = Stem;
}
);
layerId = "EB12C417-147C-44D3-ABF9-73FB32C0B9E2";
paths = (
{
closed = 1;
nodes = (
"326 0 LINE SMOOTH",
"501 0 OFFCURVE",
"572 84 OFFCURVE",
"572 194 CURVE SMOOTH",
"572 290 OFFCURVE",
"499 359 OFFCURVE",
"384 361 CURVE",
"384 344 LINE",
"483 350 OFFCURVE",
"540 419 OFFCURVE",
"540 516 CURVE SMOOTH",
"540 621 OFFCURVE",
"465 700 OFFCURVE",
"316 700 CURVE SMOOTH",
"86 700 LINE",
"86 0 LINE"
);
},
{
closed = 1;
nodes = (
"128 680 LINE",
"103 660 LINE",
"316 660 LINE SMOOTH",
"447 660 OFFCURVE",
"498 589 OFFCURVE",
"498 516 CURVE SMOOTH",
"498 437 OFFCURVE",
"455 366 OFFCURVE",
"313 366 CURVE SMOOTH",
"104 366 LINE",
"104 328 LINE",
"314 328 LINE SMOOTH",
"475 328 OFFCURVE",
"530 285 OFFCURVE",
"530 194 CURVE SMOOTH",
"530 97 OFFCURVE",
"475 40 OFFCURVE",
"316 40 CURVE SMOOTH",
"103 40 LINE",
"128 15 LINE"
);
}
);
width = 615;
}
);
note = B;
unicode = 0042;
},
{
glyphname = C;
lastChange = "2018-04-30 16:02:57 +0000";
layers = (
{
anchors = (
{
name = bottom;
position = "{352, 0}";
},
{
name = top;
position = "{352, 660}";
}
);
hints = (
{
horizontal = 1;
origin = "{0, 32}";
target = "{0, 8}";
type = Stem;
},
{
horizontal = 1;
origin = "{0, 26}";
target = "{0, 14}";
type = Stem;
},
{
origin = "{0, 29}";
target = "{0, 11}";
type = Stem;
}
);
layerId = "5A4BD32C-A1D1-4EB1-A794-47BD06E3B809";
paths = (
{
closed = 1;
nodes = (
"440 -10 OFFCURVE",
"540 27 OFFCURVE",
"540 78 CURVE SMOOTH",
"540 98 OFFCURVE",
"525 111 OFFCURVE",
"509 112 CURVE",
"474 84 OFFCURVE",
"432 56 OFFCURVE",
"350 56 CURVE SMOOTH",
"217 56 OFFCURVE",
"126 138 OFFCURVE",
"126 348 CURVE SMOOTH",
"126 560 OFFCURVE",
"217 642 OFFCURVE",
"350 642 CURVE SMOOTH",
"410 642 OFFCURVE",
"448 623 OFFCURVE",
"478 600 CURVE SMOOTH",
"486 594 OFFCURVE",
"495 591 OFFCURVE",
"504 591 CURVE SMOOTH",
"522 591 OFFCURVE",
"538 604 OFFCURVE",
"546 630 CURVE",
"500 678 OFFCURVE",
"433 707 OFFCURVE",
"352 707 CURVE SMOOTH",
"180 707 OFFCURVE",
"52 602 OFFCURVE",
"52 348 CURVE SMOOTH",
"52 95 OFFCURVE",
"180 -10 OFFCURVE",
"352 -10 CURVE SMOOTH"
);
}
);
width = 596;
},
{
anchors = (
{
name = bottom;
position = "{372, 0}";
},
{
name = top;
position = "{372, 660}";
}
);
hints = (
{
horizontal = 1;
origin = "{0, 32}";
target = "{0, 8}";
type = Stem;
},
{
horizontal = 1;
origin = "{0, 26}";
target = "{0, 14}";
type = Stem;
},
{
origin = "{0, 29}";
target = "{0, 11}";
type = Stem;
}
);
layerId = "FD6510A9-FDB4-489D-9A3E-85E488E95339";
paths = (
{
closed = 1;
nodes = (
"470 -10 OFFCURVE",
"590 27 OFFCURVE",
"590 78 CURVE SMOOTH",
"590 118 OFFCURVE",
"555 151 OFFCURVE",
"539 152 CURVE",
"504 124 OFFCURVE",
"452 96 OFFCURVE",
"380 96 CURVE SMOOTH",
"277 96 OFFCURVE",
"206 168 OFFCURVE",
"206 348 CURVE SMOOTH",
"206 530 OFFCURVE",
"277 602 OFFCURVE",
"380 602 CURVE SMOOTH",
"440 602 OFFCURVE",
"478 583 OFFCURVE",
"508 560 CURVE SMOOTH",
"517 553 OFFCURVE",
"525 551 OFFCURVE",
"534 551 CURVE SMOOTH",
"552 551 OFFCURVE",
"588 584 OFFCURVE",
"596 630 CURVE",
"550 678 OFFCURVE",
"463 707 OFFCURVE",
"382 707 CURVE SMOOTH",
"210 707 OFFCURVE",
"52 602 OFFCURVE",
"52 348 CURVE SMOOTH",
"52 95 OFFCURVE",
"210 -10 OFFCURVE",
"382 -10 CURVE SMOOTH"
);
}
);
width = 636;
},
{
anchors = (
{
name = bottom;
position = "{352, 0}";
},
{
name = top;
position = "{352, 660}";
}
);
hints = (
{
horizontal = 1;
origin = "{0, 32}";
target = "{0, 8}";
type = Stem;
},
{
horizontal = 1;
origin = "{0, 26}";
target = "{0, 14}";
type = Stem;
},
{
origin = "{0, 29}";
target = "{0, 11}";
type = Stem;
}
);
layerId = "EB12C417-147C-44D3-ABF9-73FB32C0B9E2";
paths = (
{
closed = 1;
nodes = (
"440 -10 OFFCURVE",
"540 32 OFFCURVE",
"540 78 CURVE SMOOTH",
"540 91 OFFCURVE",
"529 95 OFFCURVE",
"519 96 CURVE",
"484 51 OFFCURVE",
"432 30 OFFCURVE",
"350 30 CURVE SMOOTH",
"217 30 OFFCURVE",
"96 118 OFFCURVE",
"96 348 CURVE SMOOTH",
"96 580 OFFCURVE",
"217 667 OFFCURVE",
"350 667 CURVE SMOOTH",
"430 667 OFFCURVE",
"469 638 OFFCURVE",
"499 615 CURVE SMOOTH",
"507 609 OFFCURVE",
"512 606 OFFCURVE",
"521 606 CURVE SMOOTH",
"530 606 OFFCURVE",
"542 616 OFFCURVE",
"546 630 CURVE",
"500 678 OFFCURVE",
"433 707 OFFCURVE",
"352 707 CURVE SMOOTH",
"180 707 OFFCURVE",
"52 602 OFFCURVE",
"52 348 CURVE SMOOTH",
"52 95 OFFCURVE",
"180 -10 OFFCURVE",
"352 -10 CURVE SMOOTH"
);
}
);
width = 596;
}
);
note = C;
unicode = 0043;
},
{
glyphname = D;
lastChange = "2018-04-30 15:50:05 +0000";
layers = (
{
anchors = (
{
name = bottom;
position = "{336, 0}";
},
{
name = center;
position = "{336, 350}";
},
{
name = top;
position = "{336, 650}";
}
);
hints = (
{
horizontal = 1;
origin = "{0, 8}";
target = "{1, 10}";
type = Stem;
},
{
horizontal = 1;
origin = "{0, 7}";
target = "{1, 1}";
type = Stem;
},
{
origin = "{0, 8}";
target = "{1, 10}";
type = Stem;
},
{
origin = "{1, 5}";
target = "{0, 3}";
type = Stem;
}
);
layerId = "5A4BD32C-A1D1-4EB1-A794-47BD06E3B809";
paths = (
{
closed = 1;
nodes = (
"293 0 LINE SMOOTH",
"487 0 OFFCURVE",
"615 125 OFFCURVE",
"615 350 CURVE SMOOTH",
"615 589 OFFCURVE",
"487 700 OFFCURVE",
"293 700 CURVE SMOOTH",
"86 700 LINE",
"86 0 LINE"
);
},
{
closed = 1;
nodes = (
"158 685 LINE",
"113 640 LINE",
"293 640 LINE SMOOTH",
"445 640 OFFCURVE",
"541 563 OFFCURVE",
"541 349 CURVE SMOOTH",
"541 149 OFFCURVE",
"445 60 OFFCURVE",
"293 60 CURVE SMOOTH",
"113 60 LINE",
"158 15 LINE"
);
}
);
width = 672;
},
{
anchors = (
{
name = bottom;
position = "{336, 0}";
},
{
name = center;
position = "{336, 350}";
},
{
name = top;
position = "{336, 650}";
}
);
hints = (
{
horizontal = 1;
origin = "{0, 8}";
target = "{1, 10}";
type = Stem;
},
{
horizontal = 1;
origin = "{0, 7}";
target = "{1, 1}";
type = Stem;
},
{
origin = "{0, 8}";
target = "{1, 10}";
type = Stem;
},
{
origin = "{1, 5}";
target = "{0, 3}";
type = Stem;
}
);
layerId = "FD6510A9-FDB4-489D-9A3E-85E488E95339";
paths = (
{
closed = 1;
nodes = (
"293 0 LINE SMOOTH",
"507 0 OFFCURVE",
"635 145 OFFCURVE",
"635 350 CURVE SMOOTH",
"635 569 OFFCURVE",
"507 700 OFFCURVE",
"293 700 CURVE SMOOTH",
"66 700 LINE",
"66 0 LINE"
);
},
{
closed = 1;
nodes = (
"218 645 LINE",
"173 600 LINE",
"273 600 LINE SMOOTH",
"385 600 OFFCURVE",
"481 543 OFFCURVE",
"481 349 CURVE SMOOTH",
"481 169 OFFCURVE",
"385 100 OFFCURVE",
"273 100 CURVE SMOOTH",
"173 100 LINE",
"218 55 LINE"
);
}
);
width = 672;
},
{
anchors = (
{
name = bottom;
position = "{336, 0}";
},
{
name = center;
position = "{336, 350}";
},
{
name = top;
position = "{336, 650}";
}
);
hints = (
{
horizontal = 1;
origin = "{0, 8}";
target = "{1, 10}";
type = Stem;
},
{
horizontal = 1;
origin = "{0, 7}";
target = "{1, 1}";
type = Stem;
},
{
origin = "{0, 8}";
target = "{1, 10}";
type = Stem;
},
{
origin = "{1, 5}";
target = "{0, 3}";
type = Stem;
}
);
layerId = "EB12C417-147C-44D3-ABF9-73FB32C0B9E2";
paths = (
{
closed = 1;
nodes = (
"293 0 LINE SMOOTH",
"487 0 OFFCURVE",
"615 125 OFFCURVE",
"615 350 CURVE SMOOTH",
"615 589 OFFCURVE",
"487 700 OFFCURVE",
"293 700 CURVE SMOOTH",
"86 700 LINE",
"86 0 LINE"
);
},
{
closed = 1;
nodes = (
"128 685 LINE",
"103 660 LINE",
"293 660 LINE SMOOTH",
"445 660 OFFCURVE",
"571 583 OFFCURVE",
"571 349 CURVE SMOOTH",
"571 129 OFFCURVE",
"445 40 OFFCURVE",
"293 40 CURVE SMOOTH",
"103 40 LINE",
"128 15 LINE"
);
}
);
width = 672;
}
);
note = D;
unicode = 0044;
},
{
glyphname = E;
lastChange = "2018-04-30 15:50:57 +0000";
layers = (
{
anchors = (
{
name = bottom;
position = "{280, 0}";
},
{
name = ogonek;
position = "{504, 10}";
},
{
name = top;
position = "{280, 670}";
},
{
name = topleft;
position = "{20, 700}";
}
);
hints = (
{
horizontal = 1;
origin = "{0, 11}";
target = "{0, 5}";
type = Stem;
},
{
horizontal = 1;
origin = "{1, 3}";
target = "{1, 2}";
type = Stem;
},
{
horizontal = 1;
origin = "{0, 10}";
target = "{0, 7}";
type = Stem;
},
{
origin = "{0, 11}";
target = "{0, 5}";
type = Stem;
}
);
layerId = "5A4BD32C-A1D1-4EB1-A794-47BD06E3B809";
paths = (
{
closed = 1;
nodes = (
"453 0 LINE SMOOTH",
"495 0 OFFCURVE",
"505 12 OFFCURVE",
"505 60 CURVE",
"113 60 LINE",
"158 15 LINE",
"158 685 LINE",
"113 640 LINE",
"504 640 LINE",
"504 700 LINE",
"86 700 LINE",
"86 0 LINE"
);
},
{
closed = 1;
nodes = (
"456 328 LINE",
"456 388 LINE",
"123 388 LINE",
"123 328 LINE"
);
}
);
width = 560;
},
{
anchors = (
{
name = bottom;
position = "{280, 0}";
},
{
name = ogonek;
position = "{504, 10}";
},
{
name = top;
position = "{280, 670}";
},
{
name = topleft;
position = "{20, 700}";
}
);
hints = (
{
horizontal = 1;
origin = "{0, 11}";
target = "{0, 4}";
type = Stem;
},
{
horizontal = 1;
origin = "{1, 3}";
target = "{1, 2}";
type = Stem;
},
{
horizontal = 1;
origin = "{0, 10}";
target = "{0, 7}";
type = Stem;
},
{
origin = "{0, 11}";
target = "{0, 5}";
type = Stem;
}
);
layerId = "FD6510A9-FDB4-489D-9A3E-85E488E95339";
paths = (
{
closed = 1;
nodes = (
"453 0 LINE SMOOTH",
"495 0 OFFCURVE",
"505 52 OFFCURVE",
"505 100 CURVE",
"163 100 LINE",
"218 45 LINE",
"218 655 LINE",
"163 600 LINE",
"504 600 LINE",
"504 700 LINE",
"66 700 LINE",
"66 0 LINE"
);
},
{
closed = 1;
nodes = (
"456 308 LINE",
"456 408 LINE",
"173 408 LINE",
"173 308 LINE"
);
}
);
width = 560;
},
{
anchors = (
{
name = bottom;
position = "{280, 0}";
},
{
name = ogonek;
position = "{504, 10}";
},
{
name = top;
position = "{280, 670}";
},
{
name = topleft;
position = "{20, 700}";
}
);
hints = (
{
horizontal = 1;
origin = "{0, 11}";
target = "{0, 4}";
type = Stem;
},
{
horizontal = 1;
origin = "{1, 3}";
target = "{1, 2}";
type = Stem;
},
{
horizontal = 1;
origin = "{0, 10}";
target = "{0, 7}";
type = Stem;
},
{
origin = "{0, 11}";
target = "{0, 5}";
type = Stem;
}
);
layerId = "EB12C417-147C-44D3-ABF9-73FB32C0B9E2";
paths = (
{
closed = 1;
nodes = (
"477 0 LINE SMOOTH",
"499 0 OFFCURVE",
"505 12 OFFCURVE",
"505 40 CURVE",
"103 40 LINE",
"128 15 LINE",
"128 685 LINE",
"103 660 LINE",
"504 660 LINE",
"504 700 LINE",
"86 700 LINE",
"86 0 LINE"
);
},
{
closed = 1;
nodes = (
"456 348 LINE",
"456 388 LINE",
"113 388 LINE",
"113 348 LINE"
);
}
);
width = 560;
}
);
note = E;
unicode = 0045;
},
{
glyphname = F;
lastChange = "2018-04-30 15:59:01 +0000";
layers = (
{
anchors = (
{
name = bottom;
position = "{122, 0}";
},
{
name = top;
position = "{292, 660}";
}
);
hints = (
{
horizontal = 1;
origin = "{0, 6}";
target = up;
type = BottomGhost;
},
{
horizontal = 1;
origin = "{1, 3}";
target = "{1, 2}";
type = Stem;
},
{
horizontal = 1;
origin = "{0, 5}";
target = "{0, 2}";
type = Stem;
},
{
origin = "{0, 6}";
target = "{0, 0}";
type = Stem;
}
);
layerId = "5A4BD32C-A1D1-4EB1-A794-47BD06E3B809";
paths = (
{
closed = 1;
nodes = (
"158 0 LINE",
"158 685 LINE",
"113 640 LINE",
"498 640 LINE",
"498 700 LINE",
"86 700 LINE",
"86 0 LINE"
);
},
{
closed = 1;
nodes = (
"455 333 LINE",
"455 393 LINE",
"133 393 LINE",
"133 333 LINE"
);
}
);
width = 530;
},
{
anchors = (
{
name = bottom;
position = "{122, 0}";
},
{
name = top;
position = "{292, 660}";
}
);
hints = (
{
horizontal = 1;
origin = "{0, 6}";
target = up;
type = BottomGhost;
},
{
horizontal = 1;
origin = "{1, 3}";
target = "{1, 2}";
type = Stem;
},
{
horizontal = 1;
origin = "{0, 5}";
target = "{0, 2}";
type = Stem;
},
{
origin = "{0, 6}";
target = "{0, 0}";
type = Stem;
}
);
layerId = "FD6510A9-FDB4-489D-9A3E-85E488E95339";
paths = (
{
closed = 1;
nodes = (
"218 0 LINE",
"218 655 LINE",
"163 600 LINE",
"498 600 LINE",
"498 700 LINE",
"66 700 LINE",
"66 0 LINE"
);
},
{
closed = 1;
nodes = (
"455 303 LINE",
"455 403 LINE",
"133 403 LINE",
"133 303 LINE"
);
}
);
width = 530;
},
{
anchors = (
{
name = bottom;
position = "{122, 0}";
},
{
name = top;
position = "{292, 660}";
}
);
hints = (
{
horizontal = 1;
origin = "{0, 6}";
target = up;
type = BottomGhost;
},
{
horizontal = 1;
origin = "{1, 3}";
target = "{1, 2}";
type = Stem;
},
{
horizontal = 1;
origin = "{0, 5}";
target = "{0, 2}";
type = Stem;
},
{
origin = "{0, 6}";
target = "{0, 0}";
type = Stem;
}
);
layerId = "EB12C417-147C-44D3-ABF9-73FB32C0B9E2";
paths = (
{
closed = 1;
nodes = (
"128 0 LINE",
"128 685 LINE",
"103 660 LINE",
"498 660 LINE",
"498 700 LINE",
"86 700 LINE",
"86 0 LINE"
);
},
{
closed = 1;
nodes = (
"455 333 LINE",
"455 373 LINE",
"103 373 LINE",
"103 333 LINE"
);
}
);
width = 530;
}
);
note = F;
unicode = 0046;
},
{
glyphname = G;
lastChange = "2018-04-30 16:11:08 +0000";
layers = (
{
anchors = (
{
name = bottom;
position = "{377, 0}";
},
{
name = top;
position = "{377, 660}";
}
);
hints = (
{
horizontal = 1;
origin = "{0, 37}";
target = "{0, 13}";
type = Stem;
},
{
horizontal = 1;
origin = "{0, 9}";
target = "{0, 4}";
type = Stem;
},
{
horizontal = 1;
origin = "{0, 31}";
target = "{0, 19}";
type = Stem;
},
{
origin = "{0, 34}";
target = "{0, 16}";
type = Stem;
},
{
origin = "{0, 10}";
target = "{0, 2}";
type = Stem;
}
);
layerId = "5A4BD32C-A1D1-4EB1-A794-47BD06E3B809";
paths = (
{
closed = 1;
nodes = (
"485 -10 OFFCURVE",
"565 33 OFFCURVE",
"604 73 CURVE",
"604 373 LINE",
"354 373 LINE",
"354 324 OFFCURVE",
"366 311 OFFCURVE",
"391 311 CURVE SMOOTH",
"577 311 LINE",
"532 356 LINE",
"532 101 LINE",
"504 71 OFFCURVE",
"441 53 OFFCURVE",
"376 53 CURVE SMOOTH",
"223 53 OFFCURVE",
"136 138 OFFCURVE",
"136 348 CURVE SMOOTH",
"136 560 OFFCURVE",
"233 644 OFFCURVE",
"376 644 CURVE SMOOTH",
"446 644 OFFCURVE",
"487 620 OFFCURVE",
"524 589 CURVE SMOOTH",
"535 580 OFFCURVE",
"546 575 OFFCURVE",
"557 575 CURVE SMOOTH",
"572 575 OFFCURVE",
"587 585 OFFCURVE",
"601 610 CURVE",
"561 667 OFFCURVE",
"475 707 OFFCURVE",
"377 707 CURVE SMOOTH",
"195 707 OFFCURVE",
"62 602 OFFCURVE",
"62 348 CURVE SMOOTH",
"62 95 OFFCURVE",
"185 -10 OFFCURVE",
"377 -10 CURVE SMOOTH"
);
}
);
width = 666;
},
{
anchors = (
{
name = bottom;
position = "{377, 0}";
},
{
name = top;
position = "{377, 660}";
}
);
hints = (
{
horizontal = 1;
origin = "{0, 37}";
target = "{0, 13}";
type = Stem;
},
{
horizontal = 1;
origin = "{0, 7}";
target = "{0, 4}";
type = Stem;
},
{
horizontal = 1;
origin = "{0, 31}";
target = "{0, 19}";
type = Stem;
},
{
origin = "{0, 34}";
target = "{0, 16}";
type = Stem;
},
{
origin = "{0, 10}";
target = "{0, 2}";
type = Stem;
}
);
layerId = "FD6510A9-FDB4-489D-9A3E-85E488E95339";
paths = (
{
closed = 1;
nodes = (
"500 -10 OFFCURVE",
"578 22 OFFCURVE",
"634 73 CURVE",
"634 384 LINE",
"364 384 LINE",
"364 315 OFFCURVE",
"376 282 OFFCURVE",
"421 282 CURVE SMOOTH",
"587 282 LINE",
"482 367 LINE",
"482 118 LINE",
"466 106 OFFCURVE",
"433 96 OFFCURVE",
"380 96 CURVE SMOOTH",
"277 96 OFFCURVE",
"206 168 OFFCURVE",
"206 348 CURVE SMOOTH",
"206 530 OFFCURVE",
"287 602 OFFCURVE",
"390 602 CURVE SMOOTH",
"450 602 OFFCURVE",
"488 583 OFFCURVE",
"518 560 CURVE SMOOTH",
"526 554 OFFCURVE",
"535 551 OFFCURVE",
"544 551 CURVE SMOOTH",
"562 551 OFFCURVE",
"618 584 OFFCURVE",
"626 630 CURVE",
"580 678 OFFCURVE",
"503 707 OFFCURVE",
"392 707 CURVE SMOOTH",
"220 707 OFFCURVE",
"52 602 OFFCURVE",
"52 348 CURVE SMOOTH",
"52 95 OFFCURVE",
"210 -10 OFFCURVE",
"382 -10 CURVE SMOOTH"
);
}
);
width = 686;
},
{
anchors = (
{
name = bottom;
position = "{377, 0}";
},
{
name = top;
position = "{377, 660}";
}
);
hints = (
{
horizontal = 1;
origin = "{0, 37}";
target = "{0, 13}";
type = Stem;
},
{
horizontal = 1;
origin = "{0, 7}";
target = "{0, 4}";
type = Stem;
},
{
horizontal = 1;
origin = "{0, 31}";
target = "{0, 19}";
type = Stem;
},
{
origin = "{0, 34}";
target = "{0, 16}";
type = Stem;
},
{
origin = "{0, 10}";
target = "{0, 2}";
type = Stem;
}
);
layerId = "EB12C417-147C-44D3-ABF9-73FB32C0B9E2";
paths = (
{
closed = 1;
nodes = (
"485 -10 OFFCURVE",
"565 33 OFFCURVE",
"604 73 CURVE",
"604 363 LINE",
"354 363 LINE",
"354 336 OFFCURVE",
"360 323 OFFCURVE",
"385 323 CURVE SMOOTH",
"577 323 LINE",
"562 346 LINE",
"562 96 LINE",
"529 62 OFFCURVE",
"470 30 OFFCURVE",
"375 30 CURVE SMOOTH",
"232 30 OFFCURVE",
"106 108 OFFCURVE",
"106 348 CURVE SMOOTH",
"106 590 OFFCURVE",
"232 667 OFFCURVE",
"375 667 CURVE SMOOTH",
"475 667 OFFCURVE",
"524 638 OFFCURVE",
"554 615 CURVE SMOOTH",
"562 609 OFFCURVE",
"567 606 OFFCURVE",
"576 606 CURVE SMOOTH",
"585 606 OFFCURVE",
"597 616 OFFCURVE",
"601 630 CURVE",
"555 678 OFFCURVE",
"478 707 OFFCURVE",
"377 707 CURVE SMOOTH",
"205 707 OFFCURVE",
"62 602 OFFCURVE",
"62 348 CURVE SMOOTH",
"62 95 OFFCURVE",
"205 -10 OFFCURVE",
"377 -10 CURVE SMOOTH"
);
}
);
width = 666;
}
);
note = G;
unicode = 0047;
},
{
glyphname = H;
lastChange = "2018-04-30 15:51:07 +0000";
layers = (
{
anchors = (
{
name = bottom;
position = "{340, 0}";
},
{
name = center;
position = "{340, 350}";
},
{
name = top;
position = "{340, 650}";
},
{
name = topleft;
position = "{20, 700}";
}
);
hints = (
{
horizontal = 1;
origin = "{1, 3}";
target = up;
type = BottomGhost;
},
{
horizontal = 1;
origin = "{2, 3}";
target = "{2, 2}";
type = Stem;
},
{
horizontal = 1;
origin = "{1, 2}";
target = down;
type = TopGhost;
},
{
origin = "{1, 3}";
target = "{1, 0}";
type = Stem;
},
{
origin = "{0, 3}";
target = "{0, 0}";
type = Stem;
}
);
layerId = "5A4BD32C-A1D1-4EB1-A794-47BD06E3B809";
paths = (
{
closed = 1;
nodes = (
"594 0 LINE",
"594 700 LINE",
"522 700 LINE",
"522 0 LINE"
);
},
{
closed = 1;
nodes = (
"158 0 LINE",
"158 700 LINE",
"86 700 LINE",
"86 0 LINE"
);
},
{
closed = 1;
nodes = (
"547 330 LINE",
"547 390 LINE",
"133 390 LINE",
"133 330 LINE"
);
}
);
width = 680;
},
{
anchors = (
{
name = bottom;
position = "{340, 0}";
},
{
name = center;
position = "{340, 350}";
},
{
name = top;
position = "{340, 650}";
},
{
name = topleft;
position = "{20, 700}";
}
);
hints = (
{
horizontal = 1;
origin = "{1, 3}";
target = up;
type = BottomGhost;
},
{
horizontal = 1;
origin = "{2, 3}";
target = "{2, 2}";
type = Stem;
},
{
horizontal = 1;
origin = "{1, 2}";
target = down;
type = TopGhost;
},
{
origin = "{1, 3}";
target = "{1, 0}";
type = Stem;
},
{
origin = "{0, 3}";
target = "{0, 0}";
type = Stem;
}
);
layerId = "FD6510A9-FDB4-489D-9A3E-85E488E95339";
paths = (
{
closed = 1;
nodes = (
"614 0 LINE",
"614 700 LINE",
"464 700 LINE",
"464 0 LINE"
);
},
{
closed = 1;
nodes = (
"216 0 LINE",
"216 700 LINE",
"66 700 LINE",
"66 0 LINE"
);
},
{
closed = 1;
nodes = (
"567 310 LINE",
"567 410 LINE",
"113 410 LINE",
"113 310 LINE"
);
}
);
width = 680;
},
{
anchors = (
{
name = bottom;
position = "{340, 0}";
},
{
name = center;
position = "{340, 350}";
},
{
name = top;
position = "{340, 650}";
},
{
name = topleft;
position = "{20, 700}";
}
);
hints = (
{
horizontal = 1;
origin = "{1, 3}";
target = up;
type = BottomGhost;
},
{
horizontal = 1;
origin = "{2, 3}";
target = "{2, 2}";
type = Stem;
},
{
horizontal = 1;
origin = "{1, 2}";
target = down;
type = TopGhost;
},
{
origin = "{1, 3}";
target = "{1, 0}";
type = Stem;
},
{
origin = "{0, 3}";
target = "{0, 0}";
type = Stem;
}
);
layerId = "EB12C417-147C-44D3-ABF9-73FB32C0B9E2";
paths = (
{
closed = 1;
nodes = (
"594 0 LINE",
"594 700 LINE",
"550 700 LINE",
"550 0 LINE"
);
},
{
closed = 1;
nodes = (
"130 0 LINE",
"130 700 LINE",
"86 700 LINE",
"86 0 LINE"
);
},
{
closed = 1;
nodes = (
"577 350 LINE",
"577 388 LINE",
"103 388 LINE",
"103 350 LINE"
);
}
);
width = 680;
}
);
note = H;
unicode = 0048;
},
{
glyphname = I;
lastChange = "2018-04-30 15:46:38 +0000";
layers = (
{
anchors = (
{
name = bottom;
position = "{175, 0}";
},
{
name = ogonek;
position = "{246, 10}";
},
{
name = top;
position = "{175, 660}";
},
{
name = topleft;
position = "{0, 700}";
}
);
hints = (
{
horizontal = 1;
origin = "{0, 3}";
target = up;
type = BottomGhost;
},
{
horizontal = 1;
origin = "{0, 2}";
target = down;
type = TopGhost;
},
{
origin = "{0, 3}";
target = "{0, 0}";
type = Stem;
}
);
layerId = "5A4BD32C-A1D1-4EB1-A794-47BD06E3B809";
paths = (
{
closed = 1;
nodes = (
"211 0 LINE",
"211 700 LINE",
"139 700 LINE",
"139 0 LINE"
);
}
);
width = 350;
},
{
anchors = (
{
name = bottom;
position = "{175, 0}";
},
{
name = ogonek;
position = "{246, 10}";
},
{
name = top;
position = "{175, 670}";
},
{
name = topleft;
position = "{0, 700}";
}
);
hints = (
{
horizontal = 1;
place = "{0, 0}";
type = Stem;
},
{
horizontal = 1;
place = "{700, 0}";
type = Stem;
},
{
origin = "{0, 3}";
target = "{0, 0}";
type = Stem;
}
);
layerId = "FD6510A9-FDB4-489D-9A3E-85E488E95339";
paths = (
{
closed = 1;
nodes = (
"250 0 LINE",
"250 700 LINE",
"100 700 LINE",
"100 0 LINE"
);
}
);
width = 350;
},
{
anchors = (
{
name = bottom;
position = "{175, 0}";
},
{
name = ogonek;
position = "{246, 10}";
},
{
name = top;
position = "{175, 660}";
},
{
name = topleft;
position = "{0, 700}";
}
);
hints = (
{
horizontal = 1;
origin = "{0, 3}";
target = up;
type = BottomGhost;
},
{
horizontal = 1;
origin = "{0, 2}";
target = down;
type = TopGhost;
},
{
origin = "{0, 3}";
target = "{0, 0}";
type = Stem;
}
);
layerId = "EB12C417-147C-44D3-ABF9-73FB32C0B9E2";
paths = (
{
closed = 1;
nodes = (
"196 0 LINE",
"196 700 LINE",
"154 700 LINE",
"154 0 LINE"
);
}
);
width = 350;
}
);
note = I;
unicode = 0049;
},
{
glyphname = J;
lastChange = "2018-04-30 16:12:01 +0000";
layers = (
{
anchors = (
{
name = bottom;
position = "{214, 0}";
},
{
name = top;
position = "{303, 660}";
}
);
hints = (
{
horizontal = 1;
origin = "{0, 17}";
target = "{0, 8}";
type = Stem;
},
{
horizontal = 1;
origin = "{0, 4}";
target = down;
type = TopGhost;
},
{
origin = "{0, 5}";
target = "{0, 2}";
type = Stem;
}
);
layerId = "5A4BD32C-A1D1-4EB1-A794-47BD06E3B809";
paths = (
{
closed = 1;
nodes = (
"267 -10 OFFCURVE",
"339 64 OFFCURVE",
"339 183 CURVE SMOOTH",
"339 700 LINE",
"267 700 LINE",
"267 183 LINE SMOOTH",
"267 100 OFFCURVE",
"231 52 OFFCURVE",
"149 52 CURVE SMOOTH",
"99 52 OFFCURVE",
"63 70 OFFCURVE",
"51 70 CURVE SMOOTH",
"37 70 OFFCURVE",
"24 55 OFFCURVE",
"24 17 CURVE",
"46 5 OFFCURVE",
"99 -10 OFFCURVE",
"147 -10 CURVE SMOOTH"
);
}
);
width = 427;
},
{
anchors = (
{
name = bottom;
position = "{224, 0}";
},
{
name = top;
position = "{313, 660}";
}
);
hints = (
{
horizontal = 1;
origin = "{0, 17}";
target = "{0, 8}";
type = Stem;
},
{
horizontal = 1;
origin = "{0, 4}";
target = down;
type = TopGhost;
},
{
origin = "{0, 5}";
target = "{0, 2}";
type = Stem;
}
);
layerId = "FD6510A9-FDB4-489D-9A3E-85E488E95339";
paths = (
{
closed = 1;
nodes = (
"297 -10 OFFCURVE",
"387 74 OFFCURVE",
"387 193 CURVE SMOOTH",
"387 700 LINE",
"237 700 LINE",
"237 193 LINE SMOOTH",
"237 130 OFFCURVE",
"205 92 OFFCURVE",
"149 92 CURVE SMOOTH",
"99 92 OFFCURVE",
"63 110 OFFCURVE",
"51 110 CURVE SMOOTH",
"37 110 OFFCURVE",
"14 55 OFFCURVE",
"14 17 CURVE",
"36 5 OFFCURVE",
"109 -10 OFFCURVE",
"167 -10 CURVE SMOOTH"
);
}
);
width = 447;
},
{
anchors = (
{
name = bottom;
position = "{214, 0}";
},
{
name = top;
position = "{303, 660}";
}
);
hints = (
{
horizontal = 1;
origin = "{0, 17}";
target = "{0, 8}";
type = Stem;
},
{
horizontal = 1;
origin = "{0, 4}";
target = down;
type = TopGhost;
},
{
origin = "{0, 5}";
target = "{0, 2}";
type = Stem;
}
);
layerId = "EB12C417-147C-44D3-ABF9-73FB32C0B9E2";
paths = (
{
closed = 1;
nodes = (
"277 -10 OFFCURVE",
"339 64 OFFCURVE",
"339 183 CURVE SMOOTH",
"339 700 LINE",
"297 700 LINE",
"297 183 LINE SMOOTH",
"297 80 OFFCURVE",
"251 28 OFFCURVE",
"149 28 CURVE SMOOTH",
"99 28 OFFCURVE",
"56 49 OFFCURVE",
"41 49 CURVE SMOOTH",
"27 49 OFFCURVE",
"24 31 OFFCURVE",
"24 17 CURVE",
"46 5 OFFCURVE",
"89 -10 OFFCURVE",
"147 -10 CURVE SMOOTH"
);
}
);
width = 427;
}
);
note = J;
unicode = 004A;
},
{
glyphname = K;
lastChange = "2018-04-30 17:38:27 +0000";
layers = (
{
anchors = (
{
name = bottom;
position = "{305, 0}";
},
{
name = top;
position = "{305, 660}";
}
);
layerId = "5A4BD32C-A1D1-4EB1-A794-47BD06E3B809";
paths = (
{
closed = 1;
nodes = (
"557 -8 OFFCURVE",
"572 -4 OFFCURVE",
"585 3 CURVE",
"402 289 LINE SMOOTH",
"361 353 OFFCURVE",
"317 392 OFFCURVE",
"231 392 CURVE SMOOTH",
"131 392 LINE",
"131 330 LINE",
"211 330 LINE SMOOTH",
"274 330 OFFCURVE",
"306 324 OFFCURVE",
"340 268 CURVE SMOOTH",
"492 22 LINE SMOOTH",
"503 4 OFFCURVE",
"514 -8 OFFCURVE",
"542 -8 CURVE SMOOTH"
);
},
{
closed = 1;
nodes = (
"172 0 LINE",
"172 700 LINE",
"100 700 LINE",
"100 0 LINE"
);
},
{
closed = 1;
nodes = (
"577 700 LINE",
"494 700 LINE",
"239 366 LINE",
"301 344 LINE"
);
}
);
width = 610;
},
{
anchors = (
{
name = bottom;
position = "{305, 0}";
},
{
name = top;
position = "{305, 660}";
}
);
layerId = "FD6510A9-FDB4-489D-9A3E-85E488E95339";
paths = (
{
closed = 1;
nodes = (
"604 -10 OFFCURVE",
"638 -4 OFFCURVE",
"655 5 CURVE",
"492 279 LINE SMOOTH",
"445 359 OFFCURVE",
"387 402 OFFCURVE",
"291 402 CURVE SMOOTH",
"131 402 LINE",
"131 300 LINE",
"251 300 LINE SMOOTH",
"304 300 OFFCURVE",
"316 293 OFFCURVE",
"350 238 CURVE SMOOTH",
"482 22 LINE SMOOTH",
"493 4 OFFCURVE",
"512 -10 OFFCURVE",
"555 -10 CURVE SMOOTH"
);
},
{
closed = 1;
nodes = (
"242 0 LINE",
"242 700 LINE",
"90 700 LINE",
"90 0 LINE"
);
},
{
closed = 1;
nodes = (
"647 700 LINE",
"484 700 LINE",
"259 356 LINE",
"381 314 LINE"
);
}
);
width = 670;
},
{
anchors = (
{
name = bottom;
position = "{305, 0}";
},
{
name = top;
position = "{305, 660}";
}
);
layerId = "EB12C417-147C-44D3-ABF9-73FB32C0B9E2";
paths = (
{
closed = 1;
nodes = (
"566 -8 OFFCURVE",
"578 -4 OFFCURVE",
"585 3 CURVE",
"397 286 LINE SMOOTH",
"354 351 OFFCURVE",
"303 377 OFFCURVE",
"232 377 CURVE SMOOTH",
"126 377 LINE",
"126 339 LINE",
"227 339 LINE SMOOTH",
"290 339 OFFCURVE",
"321 330 OFFCURVE",
"361 269 CURVE SMOOTH",
"522 22 LINE SMOOTH",
"533 5 OFFCURVE",
"539 -8 OFFCURVE",
"557 -8 CURVE SMOOTH"
);
},
{
closed = 1;
nodes = (
"142 0 LINE",
"142 700 LINE",
"100 700 LINE",
"100 0 LINE"
);
},
{
closed = 1;
nodes = (
"577 700 LINE",
"524 700 LINE",
"269 366 LINE",
"301 344 LINE"
);
}
);
width = 610;
}
);
note = K;
unicode = 004B;
},
{
glyphname = L;
lastChange = "2018-04-30 15:47:15 +0000";
layers = (
{
anchors = (
{
name = bottom;
position = "{292, 0}";
},
{
name = center;
position = "{257, 350}";
},
{
name = top;
position = "{122, 700}";
},
{
name = topright;
position = "{493, 700}";
}
);
hints = (
{
horizontal = 1;
origin = "{0, 6}";
target = "{0, 3}";
type = Stem;
},
{
horizontal = 1;
origin = "{0, 5}";
target = down;
type = TopGhost;
},
{
origin = "{0, 6}";
target = "{0, 3}";
type = Stem;
}
);
layerId = "5A4BD32C-A1D1-4EB1-A794-47BD06E3B809";
paths = (
{
closed = 1;
nodes = (
"498 0 LINE",
"498 60 LINE",
"113 60 LINE",
"158 15 LINE",
"158 700 LINE",
"86 700 LINE",
"86 0 LINE"
);
}
);
width = 513;
},
{
anchors = (
{
name = bottom;
position = "{292, 0}";
},
{
name = center;
position = "{257, 350}";
},
{
name = top;
position = "{161, 700}";
},
{
name = topright;
position = "{493, 700}";
}
);
hints = (
{
horizontal = 1;
origin = "{0, 6}";
target = "{0, 2}";
type = Stem;
},
{
horizontal = 1;
origin = "{0, 5}";
target = down;
type = TopGhost;
},
{
origin = "{0, 6}";
target = "{0, 3}";
type = Stem;
}
);
layerId = "FD6510A9-FDB4-489D-9A3E-85E488E95339";
paths = (
{
closed = 1;
nodes = (
"498 0 LINE",
"498 100 LINE",
"173 100 LINE",
"236 35 LINE",
"236 700 LINE",
"86 700 LINE",
"86 0 LINE"
);
}
);
width = 513;
},
{
anchors = (
{
name = bottom;
position = "{292, 0}";
},
{
name = center;
position = "{257, 350}";
},
{
name = top;
position = "{122, 700}";
},
{
name = topright;
position = "{493, 700}";
}
);
hints = (
{
horizontal = 1;
origin = "{0, 6}";
target = "{0, 2}";
type = Stem;
},
{
horizontal = 1;
origin = "{0, 5}";
target = down;
type = TopGhost;
},
{
origin = "{0, 6}";
target = "{0, 3}";
type = Stem;
}
);
layerId = "EB12C417-147C-44D3-ABF9-73FB32C0B9E2";
paths = (
{
closed = 1;
nodes = (
"498 0 LINE",
"498 38 LINE",
"107 38 LINE",
"128 15 LINE",
"128 700 LINE",
"86 700 LINE",
"86 0 LINE"
);
}
);
width = 513;
}
);
note = L;
unicode = 004C;
},
{
glyphname = M;
lastChange = "2018-04-30 16:16:31 +0000";
layers = (
{
anchors = (
{
name = bottom;
position = "{415, 0}";
},
{
name = top;
position = "{415, 660}";
}
);
layerId = "5A4BD32C-A1D1-4EB1-A794-47BD06E3B809";
paths = (
{
closed = 1;
nodes = (
"148 0 LINE",
"160 245 OFFCURVE",
"191 469 OFFCURVE",
"213 644 CURVE",
"191 627 LINE",
"263 466 OFFCURVE",
"312 325 OFFCURVE",
"389 60 CURVE",
"441 60 LINE",
"518 324 OFFCURVE",
"563 466 OFFCURVE",
"636 626 CURVE",
"616 644 LINE",
"638 469 OFFCURVE",
"669 245 OFFCURVE",
"681 0 CURVE",
"753 0 LINE",
"741 243 OFFCURVE",
"710 497 OFFCURVE",
"678 700 CURVE",
"598 700 LINE",
"521 533 OFFCURVE",
"471 416 OFFCURVE",
"404 172 CURVE",
"426 173 LINE",
"359 416 OFFCURVE",
"308 533 OFFCURVE",
"231 700 CURVE",
"151 700 LINE",
"119 497 OFFCURVE",
"88 243 OFFCURVE",
"76 0 CURVE"
);
}
);
width = 829;
},
{
anchors = (
{
name = bottom;
position = "{415, 0}";
},
{
name = top;
position = "{415, 660}";
}
);
layerId = "FD6510A9-FDB4-489D-9A3E-85E488E95339";
paths = (
{
closed = 1;
nodes = (
"178 0 LINE",
"191 214 OFFCURVE",
"194 367 OFFCURVE",
"237 581 CURVE",
"214 580 LINE",
"270 398 OFFCURVE",
"309 309 OFFCURVE",
"349 110 CURVE",
"471 110 LINE",
"515 309 OFFCURVE",
"545 398 OFFCURVE",
"612 580 CURVE",
"589 581 LINE",
"634 367 OFFCURVE",
"635 214 OFFCURVE",
"644 0 CURVE",
"796 0 LINE",
"784 263 OFFCURVE",
"763 477 OFFCURVE",
"691 700 CURVE",
"519 700 LINE",
"465 564 OFFCURVE",
"439 474 OFFCURVE",
"400 312 CURVE",
"416 312 LINE",
"388 474 OFFCURVE",
"350 564 OFFCURVE",
"307 700 CURVE",
"135 700 LINE",
"67 477 OFFCURVE",
"48 263 OFFCURVE",
"30 0 CURVE"
);
}
);
width = 826;
},
{
anchors = (
{
name = bottom;
position = "{415, 0}";
},
{
name = top;
position = "{415, 660}";
}
);
layerId = "EB12C417-147C-44D3-ABF9-73FB32C0B9E2";
paths = (
{
closed = 1;
nodes = (
"118 0 LINE",
"130 245 OFFCURVE",
"153 507 OFFCURVE",
"185 672 CURVE",
"163 667 LINE",
"235 516 OFFCURVE",
"322 335 OFFCURVE",
"399 80 CURVE",
"431 80 LINE",
"508 334 OFFCURVE",
"591 516 OFFCURVE",
"664 666 CURVE",
"644 672 LINE",
"677 507 OFFCURVE",
"699 245 OFFCURVE",
"711 0 CURVE",
"753 0 LINE",
"741 243 OFFCURVE",
"721 507 OFFCURVE",
"678 700 CURVE",
"638 700 LINE",
"561 543 OFFCURVE",
"471 356 OFFCURVE",
"404 122 CURVE",
"426 123 LINE",
"359 356 OFFCURVE",
"268 543 OFFCURVE",
"191 700 CURVE",
"151 700 LINE",
"109 507 OFFCURVE",
"88 243 OFFCURVE",
"76 0 CURVE"
);
}
);
width = 829;
}
);
note = M;
unicode = 004D;
},
{
glyphname = N;
lastChange = "2018-04-30 18:04:22 +0000";
layers = (
{
anchors = (
{
name = bottom;
position = "{343, 0}";
},
{
name = top;
position = "{343, 660}";
}
);
hints = (
{
horizontal = 1;
origin = "{0, 24}";
target = up;
type = BottomGhost;
},
{
horizontal = 1;
origin = "{0, 23}";
target = down;
type = TopGhost;
},
{
horizontal = 1;
origin = "{0, 23}";
target = "{0, 2}";
type = Stem;
},
{
origin = "{0, 24}";
target = "{0, 0}";
type = Stem;
},
{
origin = "{0, 7}";
target = "{0, 14}";
type = Stem;
}
);
layerId = "5A4BD32C-A1D1-4EB1-A794-47BD06E3B809";
paths = (
{
closed = 1;
nodes = (
"158 0 LINE",
"158 648 LINE",
"130 638 LINE",
"488 165 LINE SMOOTH",
"517 126 OFFCURVE",
"527 87 OFFCURVE",
"527 54 CURVE SMOOTH",
"527 0 LINE",
"577 0 LINE SMOOTH",
"594 0 OFFCURVE",
"603 10 OFFCURVE",
"603 27 CURVE SMOOTH",
"603 51 OFFCURVE",
"599 90 OFFCURVE",
"599 137 CURVE SMOOTH",
"599 700 LINE",
"527 700 LINE",
"527 178 LINE",
"555 188 LINE",
"182 680 LINE SMOOTH",
"168 698 OFFCURVE",
"160 700 OFFCURVE",
"144 700 CURVE SMOOTH",
"86 700 LINE",
"86 0 LINE"
);
}
);
width = 689;
},
{
anchors = (
{
name = bottom;
position = "{343, 0}";
},
{
name = top;
position = "{343, 660}";
}
);
hints = (
{
horizontal = 1;
origin = "{0, 24}";
target = up;
type = BottomGhost;
},
{
horizontal = 1;
origin = "{0, 23}";
target = down;
type = TopGhost;
},
{
horizontal = 1;
origin = "{0, 23}";
target = "{0, 2}";
type = Stem;
},
{
origin = "{0, 24}";
target = "{0, 0}";
type = Stem;
},
{
origin = "{0, 7}";
target = "{0, 14}";
type = Stem;
}
);
layerId = "FD6510A9-FDB4-489D-9A3E-85E488E95339";
paths = (
{
closed = 1;
nodes = (
"218 0 LINE",
"218 528 LINE",
"190 518 LINE",
"428 165 LINE SMOOTH",
"456 123 OFFCURVE",
"467 87 OFFCURVE",
"467 54 CURVE SMOOTH",
"467 0 LINE",
"597 0 LINE SMOOTH",
"614 0 OFFCURVE",
"623 10 OFFCURVE",
"623 27 CURVE SMOOTH",
"623 51 OFFCURVE",
"619 90 OFFCURVE",
"619 137 CURVE SMOOTH",
"619 700 LINE",
"467 700 LINE",
"467 288 LINE",
"495 298 LINE",
"242 680 LINE SMOOTH",
"230 699 OFFCURVE",
"220 700 OFFCURVE",
"204 700 CURVE SMOOTH",
"66 700 LINE",
"66 0 LINE"
);
}
);
width = 689;
},
{
anchors = (
{
name = bottom;
position = "{343, 0}";
},
{
name = top;
position = "{343, 660}";
}
);
hints = (
{
horizontal = 1;
origin = "{0, 24}";
target = up;
type = BottomGhost;
},
{
horizontal = 1;
origin = "{0, 23}";
target = down;
type = TopGhost;
},
{
horizontal = 1;
origin = "{0, 23}";
target = "{0, 2}";
type = Stem;
},
{
origin = "{0, 24}";
target = "{0, 0}";
type = Stem;
},
{
origin = "{0, 7}";
target = "{0, 14}";
type = Stem;
}
);
layerId = "EB12C417-147C-44D3-ABF9-73FB32C0B9E2";
paths = (
{
closed = 1;
nodes = (
"128 0 LINE",
"128 688 LINE",
"100 676 LINE",
"528 153 LINE SMOOTH",
"555 120 OFFCURVE",
"557 110 OFFCURVE",
"557 74 CURVE SMOOTH",
"557 0 LINE",
"577 0 LINE SMOOTH",
"594 0 OFFCURVE",
"603 10 OFFCURVE",
"603 27 CURVE SMOOTH",
"603 51 OFFCURVE",
"599 90 OFFCURVE",
"599 137 CURVE SMOOTH",
"599 700 LINE",
"557 700 LINE",
"557 138 LINE",
"585 148 LINE",
"143 688 LINE SMOOTH",
"135 697 OFFCURVE",
"132 700 OFFCURVE",
"121 700 CURVE SMOOTH",
"86 700 LINE",
"86 0 LINE"
);
}
);
width = 689;
}
);
note = N;
unicode = 004E;
},
{
glyphname = O;
lastChange = "2018-04-30 15:46:22 +0000";
layers = (
{
anchors = (
{
name = bottom;
position = "{340, 0}";
},
{
name = center;
position = "{340, 350}";
},
{
name = ogonek;
position = "{439, 31}";
},
{
name = top;
position = "{340, 660}";
},
{
name = topleft;
position = "{20, 700}";
},
{
name = topright;
position = "{482, 639}";
}
);
hints = (
{
horizontal = 1;
origin = "{0, 11}";
target = "{1, 11}";
type = Stem;
},
{
horizontal = 1;
origin = "{0, 5}";
target = "{1, 5}";
type = Stem;
},
{
origin = "{0, 8}";
target = "{1, 2}";
type = Stem;
},
{
origin = "{1, 8}";
target = "{0, 2}";
type = Stem;
}
);
layerId = "5A4BD32C-A1D1-4EB1-A794-47BD06E3B809";
paths = (
{
closed = 1;
nodes = (
"525 -9 OFFCURVE",
"632 114 OFFCURVE",
"632 351 CURVE SMOOTH",
"632 583 OFFCURVE",
"525 704 OFFCURVE",
"340 704 CURVE SMOOTH",
"155 704 OFFCURVE",
"48 583 OFFCURVE",
"48 351 CURVE SMOOTH",
"48 114 OFFCURVE",
"155 -9 OFFCURVE",
"340 -9 CURVE SMOOTH"
);
},
{
closed = 1;
nodes = (
"198 55 OFFCURVE",
"122 151 OFFCURVE",
"122 351 CURVE SMOOTH",
"122 549 OFFCURVE",
"198 640 OFFCURVE",
"340 640 CURVE SMOOTH",
"482 640 OFFCURVE",
"558 549 OFFCURVE",
"558 351 CURVE SMOOTH",
"558 151 OFFCURVE",
"482 55 OFFCURVE",
"340 55 CURVE SMOOTH"
);
}
);
width = 680;
},
{
anchors = (
{
name = bottom;
position = "{340, 0}";
},
{
name = center;
position = "{340, 350}";
},
{
name = ogonek;
position = "{439, 31}";
},
{
name = top;
position = "{340, 670}";
},
{
name = topleft;
position = "{20, 700}";
},
{
name = topright;
position = "{482, 639}";
}
);
hints = (
{
horizontal = 1;
origin = "{0, 11}";
target = "{1, 11}";
type = Stem;
},
{
horizontal = 1;
origin = "{0, 5}";
target = "{1, 5}";
type = Stem;
},
{
origin = "{0, 8}";
target = "{1, 2}";
type = Stem;
},
{
origin = "{1, 8}";
target = "{0, 2}";
type = Stem;
}
);
layerId = "FD6510A9-FDB4-489D-9A3E-85E488E95339";
paths = (
{
closed = 1;
nodes = (
"525 -9 OFFCURVE",
"642 114 OFFCURVE",
"642 351 CURVE SMOOTH",
"642 583 OFFCURVE",
"525 704 OFFCURVE",
"340 704 CURVE SMOOTH",
"155 704 OFFCURVE",
"38 583 OFFCURVE",
"38 351 CURVE SMOOTH",
"38 114 OFFCURVE",
"155 -9 OFFCURVE",
"340 -9 CURVE SMOOTH"
);
},
{
closed = 1;
nodes = (
"238 95 OFFCURVE",
"192 171 OFFCURVE",
"192 351 CURVE SMOOTH",
"192 529 OFFCURVE",
"238 600 OFFCURVE",
"340 600 CURVE SMOOTH",
"442 600 OFFCURVE",
"488 529 OFFCURVE",
"488 351 CURVE SMOOTH",
"488 171 OFFCURVE",
"442 95 OFFCURVE",
"340 95 CURVE SMOOTH"
);
}
);
width = 680;
},
{
anchors = (
{
name = bottom;
position = "{340, 0}";
},
{
name = center;
position = "{340, 350}";
},
{
name = ogonek;
position = "{439, 31}";
},
{
name = top;
position = "{340, 660}";
},
{
name = topleft;
position = "{20, 700}";
},
{
name = topright;
position = "{482, 639}";
}
);
hints = (
{
horizontal = 1;
origin = "{0, 11}";
target = "{1, 11}";
type = Stem;
},
{
horizontal = 1;
origin = "{0, 5}";
target = "{1, 5}";
type = Stem;
},
{
origin = "{0, 8}";
target = "{1, 2}";
type = Stem;
},
{
origin = "{1, 8}";
target = "{0, 2}";
type = Stem;
}
);
layerId = "EB12C417-147C-44D3-ABF9-73FB32C0B9E2";
paths = (
{
closed = 1;
nodes = (
"525 -9 OFFCURVE",
"632 114 OFFCURVE",
"632 351 CURVE SMOOTH",
"632 583 OFFCURVE",
"525 704 OFFCURVE",
"340 704 CURVE SMOOTH",
"155 704 OFFCURVE",
"48 583 OFFCURVE",
"48 351 CURVE SMOOTH",
"48 114 OFFCURVE",
"155 -9 OFFCURVE",
"340 -9 CURVE SMOOTH"
);
},
{
closed = 1;
nodes = (
"168 31 OFFCURVE",
"92 151 OFFCURVE",
"92 351 CURVE SMOOTH",
"92 549 OFFCURVE",
"168 664 OFFCURVE",
"340 664 CURVE SMOOTH",
"512 664 OFFCURVE",
"588 549 OFFCURVE",
"588 351 CURVE SMOOTH",
"588 151 OFFCURVE",
"512 31 OFFCURVE",
"340 31 CURVE SMOOTH"
);
}
);
width = 680;
}
);
note = O;
unicode = 004F;
},
{
glyphname = P;
lastChange = "2018-04-30 16:01:36 +0000";
layers = (
{
anchors = (
{
name = bottom;
position = "{308, 0}";
},
{
name = top;
position = "{308, 660}";
}
);
hints = (
{
horizontal = 1;
origin = "{0, 20}";
target = up;
type = BottomGhost;
},
{
horizontal = 1;
origin = "{0, 11}";
target = "{0, 10}";
type = Stem;
},
{
horizontal = 1;
origin = "{0, 19}";
target = "{0, 2}";
type = Stem;
},
{
origin = "{0, 20}";
target = "{0, 0}";
type = Stem;
},
{
origin = "{0, 6}";
target = "{0, 15}";
type = Stem;
}
);
layerId = "5A4BD32C-A1D1-4EB1-A794-47BD06E3B809";
paths = (
{
closed = 1;
nodes = (
"158 0 LINE",
"158 684 LINE",
"113 638 LINE",
"294 638 LINE SMOOTH",
"437 638 OFFCURVE",
"500 589 OFFCURVE",
"500 477 CURVE SMOOTH",
"500 363 OFFCURVE",
"437 313 OFFCURVE",
"294 313 CURVE SMOOTH",
"123 313 LINE",
"123 251 LINE",
"294 251 LINE SMOOTH",
"477 251 OFFCURVE",
"572 328 OFFCURVE",
"572 477 CURVE SMOOTH",
"572 624 OFFCURVE",
"477 700 OFFCURVE",
"294 700 CURVE SMOOTH",
"86 700 LINE",
"86 0 LINE"
);
}
);
width = 615;
},
{
anchors = (
{
name = bottom;
position = "{308, 0}";
},
{
name = top;
position = "{308, 660}";
}
);
hints = (
{
horizontal = 1;
origin = "{0, 20}";
target = up;
type = BottomGhost;
},
{
horizontal = 1;
origin = "{0, 11}";
target = "{0, 10}";
type = Stem;
},
{
horizontal = 1;
origin = "{0, 19}";
target = "{0, 2}";
type = Stem;
},
{
origin = "{0, 20}";
target = "{0, 0}";
type = Stem;
},
{
origin = "{0, 6}";
target = "{0, 15}";
type = Stem;
}
);
layerId = "FD6510A9-FDB4-489D-9A3E-85E488E95339";
paths = (
{
closed = 1;
nodes = (
"226 0 LINE",
"226 684 LINE",
"143 598 LINE",
"284 598 LINE SMOOTH",
"377 598 OFFCURVE",
"420 564 OFFCURVE",
"420 472 CURVE SMOOTH",
"420 378 OFFCURVE",
"377 343 OFFCURVE",
"284 343 CURVE SMOOTH",
"153 343 LINE",
"153 231 LINE",
"294 231 LINE SMOOTH",
"477 231 OFFCURVE",
"572 323 OFFCURVE",
"572 472 CURVE SMOOTH",
"572 619 OFFCURVE",
"477 700 OFFCURVE",
"294 700 CURVE SMOOTH",
"76 700 LINE",
"76 0 LINE"
);
}
);
width = 615;
},
{
anchors = (
{
name = bottom;
position = "{308, 0}";
},
{
name = top;
position = "{308, 660}";
}
);
hints = (
{
horizontal = 1;
origin = "{0, 20}";
target = up;
type = BottomGhost;
},
{
horizontal = 1;
origin = "{0, 11}";
target = "{0, 10}";
type = Stem;
},
{
horizontal = 1;
origin = "{0, 19}";
target = "{0, 2}";
type = Stem;
},
{
origin = "{0, 20}";
target = "{0, 0}";
type = Stem;
},
{
origin = "{0, 6}";
target = "{0, 15}";
type = Stem;
}
);
layerId = "EB12C417-147C-44D3-ABF9-73FB32C0B9E2";
paths = (
{
closed = 1;
nodes = (
"128 0 LINE",
"128 684 LINE",
"103 660 LINE",
"294 660 LINE SMOOTH",
"457 660 OFFCURVE",
"530 589 OFFCURVE",
"530 477 CURVE SMOOTH",
"530 363 OFFCURVE",
"457 291 OFFCURVE",
"294 291 CURVE SMOOTH",
"113 291 LINE",
"113 251 LINE",
"294 251 LINE SMOOTH",
"477 251 OFFCURVE",
"572 328 OFFCURVE",
"572 477 CURVE SMOOTH",
"572 624 OFFCURVE",
"477 700 OFFCURVE",
"294 700 CURVE SMOOTH",
"86 700 LINE",
"86 0 LINE"
);
}
);
width = 615;
}
);
note = P;
unicode = 0050;
},
{
glyphname = Q;
lastChange = "2018-04-30 17:33:00 +0000";
layers = (
{
components = (
{
name = O;
}
);
layerId = "5A4BD32C-A1D1-4EB1-A794-47BD06E3B809";
paths = (
{
closed = 1;
nodes = (
"507 -82 OFFCURVE",
"527 -71 OFFCURVE",
"540 -57 CURVE",
"491 1 OFFCURVE",
"430 83 OFFCURVE",
"390 149 CURVE",
"314 149 LINE",
"363 68 OFFCURVE",
"409 -5 OFFCURVE",
"440 -53 CURVE SMOOTH",
"451 -70 OFFCURVE",
"467 -82 OFFCURVE",
"485 -82 CURVE SMOOTH"
);
}
);
width = 680;
},
{
components = (
{
name = O;
}
);
layerId = "FD6510A9-FDB4-489D-9A3E-85E488E95339";
paths = (
{
closed = 1;
nodes = (
"532 -92 OFFCURVE",
"557 -77 OFFCURVE",
"570 -57 CURVE",
"501 10 OFFCURVE",
"430 113 OFFCURVE",
"390 189 CURVE",
"274 189 LINE",
"323 98 OFFCURVE",
"383 -10 OFFCURVE",
"420 -53 CURVE SMOOTH",
"442 -79 OFFCURVE",
"467 -92 OFFCURVE",
"500 -92 CURVE SMOOTH"
);
}
);
width = 680;
},
{
components = (
{
name = O;
}
);
layerId = "EB12C417-147C-44D3-ABF9-73FB32C0B9E2";
paths = (
{
closed = 1;
nodes = (
"503 -82 OFFCURVE",
"509 -78 OFFCURVE",
"520 -67 CURVE",
"466 2 OFFCURVE",
"415 78 OFFCURVE",
"370 149 CURVE",
"324 149 LINE",
"382 66 OFFCURVE",
"430 -10 OFFCURVE",
"461 -58 CURVE SMOOTH",
"472 -75 OFFCURVE",
"478 -82 OFFCURVE",
"491 -82 CURVE SMOOTH"
);
}
);
width = 680;
}
);
note = Q;
unicode = 0051;
},
{
glyphname = R;
lastChange = "2018-04-30 19:52:33 +0000";
layers = (
{
anchors = (
{
name = bottom;
position = "{315, 0}";
},
{
name = top;
position = "{313, 660}";
}
);
hints = (
{
horizontal = 1;
origin = "{0, 20}";
target = up;
type = BottomGhost;
},
{
horizontal = 1;
origin = "{1, 8}";
target = "{1, 7}";
type = Stem;
},
{
horizontal = 1;
origin = "{0, 19}";
target = "{0, 2}";
type = Stem;
},
{
horizontal = 1;
origin = "{1, 16}";
target = up;
type = BottomGhost;
},
{
origin = "{0, 20}";
target = "{0, 0}";
type = Stem;
},
{
origin = "{0, 6}";
target = "{0, 15}";
type = Stem;
}
);
layerId = "5A4BD32C-A1D1-4EB1-A794-47BD06E3B809";
paths = (
{
closed = 1;
nodes = (
"158 0 LINE",
"158 684 LINE",
"113 638 LINE",
"313 638 LINE SMOOTH",
"434 638 OFFCURVE",
"497 590 OFFCURVE",
"497 498 CURVE SMOOTH",
"497 405 OFFCURVE",
"423 357 OFFCURVE",
"308 357 CURVE SMOOTH",
"231 357 LINE",
"286 297 LINE",
"347 297 LINE SMOOTH",
"482 297 OFFCURVE",
"572 388 OFFCURVE",
"572 498 CURVE SMOOTH",
"572 610 OFFCURVE",
"493 700 OFFCURVE",
"313 700 CURVE SMOOTH",
"86 700 LINE",
"86 0 LINE"
);
},
{
closed = 1;
nodes = (
"557 -8 OFFCURVE",
"572 -4 OFFCURVE",
"585 3 CURVE",
"444 240 LINE SMOOTH",
"402 311 OFFCURVE",
"322 357 OFFCURVE",
"231 357 CURVE SMOOTH",
"136 357 LINE",
"136 295 LINE",
"226 295 LINE SMOOTH",
"289 295 OFFCURVE",
"339 286 OFFCURVE",
"378 218 CURVE SMOOTH",
"492 22 LINE SMOOTH",
"502 4 OFFCURVE",
"514 -8 OFFCURVE",
"542 -8 CURVE SMOOTH"
);
}
);
width = 629;
},
{
anchors = (
{
name = bottom;
position = "{315, 0}";
},
{
name = top;
position = "{313, 660}";
}
);
hints = (
{
horizontal = 1;
place = "{0, 21}";
target = up;
type = BottomGhost;
},
{
horizontal = 1;
origin = "{1, 8}";
target = "{1, 7}";
type = Stem;
},
{
horizontal = 1;
place = "{700, 62}";
type = Stem;
},
{
horizontal = 1;
origin = "{1, 16}";
target = up;
type = BottomGhost;
},
{
origin = "{1, 8}";
target = "{1, 8}";
type = Stem;
},
{
origin = "{1, 13}";
target = "{1, 2}";
type = Stem;
}
);
layerId = "FD6510A9-FDB4-489D-9A3E-85E488E95339";
paths = (
{
closed = 1;
nodes = (
"226 0 LINE",
"226 684 LINE",
"143 598 LINE",
"304 598 LINE SMOOTH",
"397 598 OFFCURVE",
"440 562 OFFCURVE",
"440 480 CURVE SMOOTH",
"440 396 OFFCURVE",
"397 363 OFFCURVE",
"304 363 CURVE SMOOTH",
"242 363 LINE",
"290 271 LINE",
"314 271 LINE SMOOTH",
"497 271 OFFCURVE",
"592 351 OFFCURVE",
"592 480 CURVE SMOOTH",
"592 617 OFFCURVE",
"497 700 OFFCURVE",
"314 700 CURVE SMOOTH",
"76 700 LINE",
"76 0 LINE"
);
},
{
closed = 1;
nodes = (
"567 -8 OFFCURVE",
"602 1 OFFCURVE",
"615 13 CURVE",
"514 230 LINE SMOOTH",
"464 337 OFFCURVE",
"382 363 OFFCURVE",
"291 363 CURVE SMOOTH",
"136 363 LINE",
"136 261 LINE",
"286 261 LINE SMOOTH",
"329 261 OFFCURVE",
"353 254 OFFCURVE",
"378 198 CURVE SMOOTH",
"452 32 LINE SMOOTH",
"464 4 OFFCURVE",
"484 -8 OFFCURVE",
"532 -8 CURVE SMOOTH"
);
}
);
width = 640;
},
{
anchors = (
{
name = bottom;
position = "{315, 0}";
},
{
name = top;
position = "{313, 660}";
}
);
hints = (
{
horizontal = 1;
origin = "{0, 20}";
target = up;
type = BottomGhost;
},
{
horizontal = 1;
origin = "{1, 8}";
target = "{1, 7}";
type = Stem;
},
{
horizontal = 1;
origin = "{0, 19}";
target = "{0, 2}";
type = Stem;
},
{
horizontal = 1;
origin = "{1, 16}";
target = up;
type = BottomGhost;
},
{
origin = "{0, 20}";
target = "{0, 0}";
type = Stem;
},
{
origin = "{0, 6}";
target = "{0, 15}";
type = Stem;
}
);
layerId = "EB12C417-147C-44D3-ABF9-73FB32C0B9E2";
paths = (
{
closed = 1;
nodes = (
"128 0 LINE",
"128 684 LINE",
"103 660 LINE",
"313 660 LINE SMOOTH",
"454 660 OFFCURVE",
"527 610 OFFCURVE",
"527 498 CURVE SMOOTH",
"527 385 OFFCURVE",
"443 337 OFFCURVE",
"308 337 CURVE SMOOTH",
"242 337 LINE",
"286 297 LINE",
"347 297 LINE SMOOTH",
"472 297 OFFCURVE",
"572 368 OFFCURVE",
"572 498 CURVE SMOOTH",
"572 630 OFFCURVE",
"483 700 OFFCURVE",
"313 700 CURVE SMOOTH",
"86 700 LINE",
"86 0 LINE"
);
},
{
closed = 1;
nodes = (
"566 -8 OFFCURVE",
"578 -4 OFFCURVE",
"585 3 CURVE",
"437 236 LINE SMOOTH",
"393 306 OFFCURVE",
"323 337 OFFCURVE",
"242 337 CURVE SMOOTH",
"106 337 LINE",
"106 299 LINE",
"237 299 LINE SMOOTH",
"320 299 OFFCURVE",
"355 283 OFFCURVE",
"398 216 CURVE SMOOTH",
"522 22 LINE SMOOTH",
"533 5 OFFCURVE",
"539 -8 OFFCURVE",
"557 -8 CURVE SMOOTH"
);
}
);
width = 629;
}
);
note = R;
unicode = 0052;
},
{
glyphname = S;
lastChange = "2018-04-30 16:22:44 +0000";
layers = (
{
anchors = (
{
name = bottom;
position = "{321, 0}";
},
{
name = top;
position = "{321, 660}";
}
);
hints = (
{
horizontal = 1;
origin = "{0, 44}";
target = "{0, 35}";
type = Stem;
},
{
horizontal = 1;
origin = "{0, 23}";
target = "{0, 11}";
type = Stem;
},
{
origin = "{0, 26}";
target = "{0, 8}";
type = Stem;
},
{
origin = "{0, 32}";
target = "{0, 2}";
type = Stem;
}
);
layerId = "5A4BD32C-A1D1-4EB1-A794-47BD06E3B809";
paths = (
{
closed = 1;
nodes = (
"487 -9 OFFCURVE",
"585 75 OFFCURVE",
"585 200 CURVE SMOOTH",
"585 346 OFFCURVE",
"456 369 OFFCURVE",
"325 406 CURVE SMOOTH",
"219 436 OFFCURVE",
"161 461 OFFCURVE",
"161 529 CURVE SMOOTH",
"161 608 OFFCURVE",
"217 650 OFFCURVE",
"322 650 CURVE SMOOTH",
"401 650 OFFCURVE",
"460 605 OFFCURVE",
"485 554 CURVE SMOOTH",
"494 535 OFFCURVE",
"507 527 OFFCURVE",
"526 527 CURVE SMOOTH",
"541 527 OFFCURVE",
"557 531 OFFCURVE",
"566 540 CURVE",
"534 660 OFFCURVE",
"435 710 OFFCURVE",
"322 710 CURVE SMOOTH",
"173 710 OFFCURVE",
"89 638 OFFCURVE",
"89 529 CURVE SMOOTH",
"89 402 OFFCURVE",
"205 372 OFFCURVE",
"316 342 CURVE SMOOTH",
"416 316 OFFCURVE",
"511 290 OFFCURVE",
"511 194 CURVE SMOOTH",
"511 111 OFFCURVE",
"438 53 OFFCURVE",
"324 53 CURVE SMOOTH",
"203 53 OFFCURVE",
"141 113 OFFCURVE",
"122 198 CURVE",
"87 197 OFFCURVE",
"69 177 OFFCURVE",
"69 152 CURVE SMOOTH",
"69 65 OFFCURVE",
"177 -9 OFFCURVE",
"322 -9 CURVE SMOOTH"
);
}
);
width = 642;
},
{
anchors = (
{
name = bottom;
position = "{331, 0}";
},
{
name = top;
position = "{321, 660}";
}
);
hints = (
{
horizontal = 1;
origin = "{0, 44}";
target = "{0, 35}";
type = Stem;
},
{
horizontal = 1;
origin = "{0, 23}";
target = "{0, 11}";
type = Stem;
},
{
origin = "{0, 26}";
target = "{0, 8}";
type = Stem;
},
{
origin = "{0, 32}";
target = "{0, 2}";
type = Stem;
}
);
layerId = "FD6510A9-FDB4-489D-9A3E-85E488E95339";
paths = (
{
closed = 1;
nodes = (
"517 -9 OFFCURVE",
"615 95 OFFCURVE",
"615 220 CURVE SMOOTH",
"615 353 OFFCURVE",
"476 383 OFFCURVE",
"366 419 CURVE SMOOTH",
"272 450 OFFCURVE",
"231 469 OFFCURVE",
"231 529 CURVE SMOOTH",
"231 580 OFFCURVE",
"275 606 OFFCURVE",
"342 606 CURVE SMOOTH",
"416 606 OFFCURVE",
"439 570 OFFCURVE",
"457 533 CURVE SMOOTH",
"467 513 OFFCURVE",
"476 497 OFFCURVE",
"506 497 CURVE SMOOTH",
"541 497 OFFCURVE",
"587 521 OFFCURVE",
"606 540 CURVE",
"574 640 OFFCURVE",
"485 710 OFFCURVE",
"342 710 CURVE SMOOTH",
"163 710 OFFCURVE",
"79 623 OFFCURVE",
"79 514 CURVE SMOOTH",
"79 377 OFFCURVE",
"191 326 OFFCURVE",
"307 297 CURVE SMOOTH",
"389 276 OFFCURVE",
"461 253 OFFCURVE",
"461 191 CURVE SMOOTH",
"461 138 OFFCURVE",
"428 95 OFFCURVE",
"334 95 CURVE SMOOTH",
"253 95 OFFCURVE",
"191 133 OFFCURVE",
"182 218 CURVE",
"107 217 OFFCURVE",
"69 187 OFFCURVE",
"69 142 CURVE SMOOTH",
"69 45 OFFCURVE",
"167 -9 OFFCURVE",
"332 -9 CURVE SMOOTH"
);
}
);
width = 642;
},
{
anchors = (
{
name = bottom;
position = "{321, 0}";
},
{
name = top;
position = "{321, 660}";
}
);
hints = (
{
horizontal = 1;
origin = "{0, 44}";
target = "{0, 35}";
type = Stem;
},
{
horizontal = 1;
origin = "{0, 23}";
target = "{0, 11}";
type = Stem;
},
{
origin = "{0, 26}";
target = "{0, 8}";
type = Stem;
},
{
origin = "{0, 32}";
target = "{0, 2}";
type = Stem;
}
);
layerId = "EB12C417-147C-44D3-ABF9-73FB32C0B9E2";
paths = (
{
closed = 1;
nodes = (
"490 -9 OFFCURVE",
"585 65 OFFCURVE",
"585 184 CURVE SMOOTH",
"585 308 OFFCURVE",
"480 345 OFFCURVE",
"332 378 CURVE SMOOTH",
"203 407 OFFCURVE",
"133 443 OFFCURVE",
"133 529 CURVE SMOOTH",
"133 608 OFFCURVE",
"175 674 OFFCURVE",
"320 674 CURVE SMOOTH",
"421 674 OFFCURVE",
"483 638 OFFCURVE",
"517 567 CURVE SMOOTH",
"526 548 OFFCURVE",
"534 540 OFFCURVE",
"548 540 CURVE SMOOTH",
"559 540 OFFCURVE",
"564 545 OFFCURVE",
"567 550 CURVE",
"535 660 OFFCURVE",
"429 710 OFFCURVE",
"320 710 CURVE SMOOTH",
"171 710 OFFCURVE",
"89 637 OFFCURVE",
"89 529 CURVE SMOOTH",
"89 414 OFFCURVE",
"189 364 OFFCURVE",
"323 338 CURVE SMOOTH",
"458 312 OFFCURVE",
"541 282 OFFCURVE",
"541 178 CURVE SMOOTH",
"541 97 OFFCURVE",
"474 29 OFFCURVE",
"330 29 CURVE SMOOTH",
"195 29 OFFCURVE",
"109 91 OFFCURVE",
"96 176 CURVE",
"81 175 OFFCURVE",
"69 169 OFFCURVE",
"69 150 CURVE SMOOTH",
"69 63 OFFCURVE",
"189 -9 OFFCURVE",
"328 -9 CURVE SMOOTH"
);
}
);
width = 642;
}
);
note = S;
unicode = 0053;
},
{
glyphname = T;
lastChange = "2018-04-30 15:48:09 +0000";
layers = (
{
anchors = (
{
name = bottom;
position = "{268, 0}";
},
{
name = center;
position = "{268, 350}";
},
{
name = top;
position = "{268, 660}";
}
);
hints = (
{
horizontal = 1;
origin = "{0, 3}";
target = up;
type = BottomGhost;
},
{
horizontal = 1;
origin = "{1, 7}";
target = "{1, 8}";
type = Stem;
},
{
origin = "{0, 3}";
target = "{0, 0}";
type = Stem;
}
);
layerId = "5A4BD32C-A1D1-4EB1-A794-47BD06E3B809";
paths = (
{
closed = 1;
nodes = (
"303 0 LINE",
"303 666 LINE",
"231 666 LINE",
"231 0 LINE"
);
},
{
closed = 1;
nodes = (
"487 640 LINE SMOOTH",
"511 640 OFFCURVE",
"523 654 OFFCURVE",
"523 676 CURVE SMOOTH",
"523 683 OFFCURVE",
"521 691 OFFCURVE",
"519 700 CURVE",
"15 700 LINE",
"15 640 LINE"
);
}
);
width = 534;
},
{
anchors = (
{
name = bottom;
position = "{268, 0}";
},
{
name = center;
position = "{268, 350}";
},
{
name = top;
position = "{268, 660}";
}
);
hints = (
{
horizontal = 1;
origin = "{0, 3}";
target = up;
type = BottomGhost;
},
{
horizontal = 1;
origin = "{1, 7}";
target = "{1, 8}";
type = Stem;
},
{
origin = "{0, 3}";
target = "{0, 0}";
type = Stem;
}
);
layerId = "FD6510A9-FDB4-489D-9A3E-85E488E95339";
paths = (
{
closed = 1;
nodes = (
"342 0 LINE",
"342 666 LINE",
"192 666 LINE",
"192 0 LINE"
);
},
{
closed = 1;
nodes = (
"487 600 LINE SMOOTH",
"511 600 OFFCURVE",
"523 614 OFFCURVE",
"523 646 CURVE SMOOTH",
"523 662 OFFCURVE",
"521 689 OFFCURVE",
"519 700 CURVE",
"15 700 LINE",
"15 600 LINE"
);
}
);
width = 534;
},
{
anchors = (
{
name = bottom;
position = "{268, 0}";
},
{
name = center;
position = "{268, 350}";
},
{
name = top;
position = "{268, 660}";
}
);
hints = (
{
horizontal = 1;
origin = "{0, 3}";
target = up;
type = BottomGhost;
},
{
horizontal = 1;
origin = "{1, 7}";
target = "{1, 8}";
type = Stem;
},
{
origin = "{0, 3}";
target = "{0, 0}";
type = Stem;
}
);
layerId = "EB12C417-147C-44D3-ABF9-73FB32C0B9E2";
paths = (
{
closed = 1;
nodes = (
"292 0 LINE",
"292 666 LINE",
"250 666 LINE",
"250 0 LINE"
);
},
{
closed = 1;
nodes = (
"497 660 LINE SMOOTH",
"515 660 OFFCURVE",
"523 668 OFFCURVE",
"523 681 CURVE SMOOTH",
"523 688 OFFCURVE",
"521 694 OFFCURVE",
"519 700 CURVE",
"15 700 LINE",
"15 660 LINE"
);
}
);
width = 534;
}
);
note = T;
unicode = 0054;
},
{
glyphname = U;
lastChange = "2018-04-30 15:48:40 +0000";
layers = (
{
anchors = (
{
name = bottom;
position = "{354, 0}";
},
{
name = ogonek;
position = "{445, 10}";
},
{
name = top;
position = "{354, 650}";
},
{
name = topright;
position = "{625, 673}";
}
);
hints = (
{
horizontal = 1;
origin = "{0, 17}";
target = "{0, 8}";
type = Stem;
},
{
horizontal = 1;
origin = "{0, 13}";
target = down;
type = TopGhost;
},
{
origin = "{0, 14}";
target = "{0, 11}";
type = Stem;
},
{
origin = "{0, 5}";
target = "{0, 2}";
type = Stem;
}
);
layerId = "5A4BD32C-A1D1-4EB1-A794-47BD06E3B809";
paths = (
{
closed = 1;
nodes = (
"546 -9 OFFCURVE",
"625 78 OFFCURVE",
"625 252 CURVE SMOOTH",
"625 700 LINE",
"553 700 LINE",
"553 242 LINE SMOOTH",
"553 115 OFFCURVE",
"497 53 OFFCURVE",
"356 53 CURVE SMOOTH",
"219 53 OFFCURVE",
"158 114 OFFCURVE",
"158 242 CURVE SMOOTH",
"158 700 LINE",
"86 700 LINE",
"86 252 LINE SMOOTH",
"86 83 OFFCURVE",
"167 -9 OFFCURVE",
"356 -9 CURVE SMOOTH"
);
}
);
width = 708;
},
{
anchors = (
{
name = bottom;
position = "{354, 0}";
},
{
name = ogonek;
position = "{445, 10}";
},
{
name = top;
position = "{354, 650}";
},
{
name = topright;
position = "{625, 673}";
}
);
hints = (
{
horizontal = 1;
origin = "{0, 17}";
target = "{0, 8}";
type = Stem;
},
{
horizontal = 1;
origin = "{0, 13}";
target = down;
type = TopGhost;
},
{
origin = "{0, 14}";
target = "{0, 11}";
type = Stem;
},
{
origin = "{0, 5}";
target = "{0, 2}";
type = Stem;
}
);
layerId = "FD6510A9-FDB4-489D-9A3E-85E488E95339";
paths = (
{
closed = 1;
nodes = (
"546 -9 OFFCURVE",
"635 78 OFFCURVE",
"635 252 CURVE SMOOTH",
"635 700 LINE",
"485 700 LINE",
"485 242 LINE SMOOTH",
"485 145 OFFCURVE",
"447 93 OFFCURVE",
"356 93 CURVE SMOOTH",
"269 93 OFFCURVE",
"226 144 OFFCURVE",
"226 242 CURVE SMOOTH",
"226 700 LINE",
"76 700 LINE",
"76 252 LINE SMOOTH",
"76 83 OFFCURVE",
"167 -9 OFFCURVE",
"356 -9 CURVE SMOOTH"
);
}
);
width = 708;
},
{
anchors = (
{
name = bottom;
position = "{354, 0}";
},
{
name = ogonek;
position = "{445, 10}";
},
{
name = top;
position = "{354, 650}";
},
{
name = topright;
position = "{625, 673}";
}
);
hints = (
{
horizontal = 1;
origin = "{0, 17}";
target = "{0, 8}";
type = Stem;
},
{
horizontal = 1;
origin = "{0, 13}";
target = down;
type = TopGhost;
},
{
origin = "{0, 14}";
target = "{0, 11}";
type = Stem;
},
{
origin = "{0, 5}";
target = "{0, 2}";
type = Stem;
}
);
layerId = "EB12C417-147C-44D3-ABF9-73FB32C0B9E2";
paths = (
{
closed = 1;
nodes = (
"546 -9 OFFCURVE",
"625 78 OFFCURVE",
"625 252 CURVE SMOOTH",
"625 700 LINE",
"583 700 LINE",
"583 252 LINE SMOOTH",
"583 85 OFFCURVE",
"497 29 OFFCURVE",
"356 29 CURVE SMOOTH",
"219 29 OFFCURVE",
"128 84 OFFCURVE",
"128 252 CURVE SMOOTH",
"128 700 LINE",
"86 700 LINE",
"86 252 LINE SMOOTH",
"86 83 OFFCURVE",
"167 -9 OFFCURVE",
"356 -9 CURVE SMOOTH"
);
}
);
width = 708;
}
);
note = U;
unicode = 0055;
},
{
glyphname = V;
lastChange = "2018-04-30 15:53:37 +0000";
layers = (
{
anchors = (
{
name = bottom;
position = "{319, 0}";
},
{
name = top;
position = "{319, 660}";
}
);
layerId = "5A4BD32C-A1D1-4EB1-A794-47BD06E3B809";
paths = (
{
closed = 1;
nodes = (
"357 0 LINE",
"609 700 LINE",
"531 700 LINE",
"304 52 LINE",
"334 52 LINE",
"107 700 LINE",
"29 700 LINE",
"282 0 LINE"
);
}
);
width = 638;
},
{
anchors = (
{
name = bottom;
position = "{319, 0}";
},
{
name = top;
position = "{319, 660}";
}
);
layerId = "FD6510A9-FDB4-489D-9A3E-85E488E95339";
paths = (
{
closed = 1;
nodes = (
"387 0 LINE",
"619 700 LINE",
"461 700 LINE",
"304 172 LINE",
"334 172 LINE",
"177 700 LINE",
"19 700 LINE",
"252 0 LINE"
);
}
);
width = 638;
},
{
anchors = (
{
name = bottom;
position = "{319, 0}";
},
{
name = top;
position = "{319, 660}";
}
);
layerId = "EB12C417-147C-44D3-ABF9-73FB32C0B9E2";
paths = (
{
closed = 1;
nodes = (
"342 0 LINE",
"609 700 LINE",
"561 700 LINE",
"304 22 LINE",
"334 22 LINE",
"77 700 LINE",
"29 700 LINE",
"297 0 LINE"
);
}
);
width = 638;
}
);
note = V;
unicode = 0056;
},
{
glyphname = W;
lastChange = "2018-04-30 15:54:19 +0000";
layers = (
{
anchors = (
{
name = bottom;
position = "{428, 0}";
},
{
name = top;
position = "{428, 660}";
}
);
hints = (
{
horizontal = 1;
origin = "{0, 31}";
target = up;
type = BottomGhost;
},
{
horizontal = 1;
origin = "{0, 12}";
target = down;
type = TopGhost;
},
{
horizontal = 1;
place = "{0, 101}";
type = Stem;
},
{
horizontal = 1;
origin = "{0, 28}";
target = down;
type = TopGhost;
},
{
origin = "{0, 12}";
target = "{0, 11}";
type = Stem;
}
);
layerId = "5A4BD32C-A1D1-4EB1-A794-47BD06E3B809";
paths = (
{
closed = 1;
nodes = (
"277 0 LINE",
"351 246 OFFCURVE",
"397 406 OFFCURVE",
"436 588 CURVE",
"420 588 LINE",
"458 406 OFFCURVE",
"506 246 OFFCURVE",
"579 0 CURVE",
"661 0 LINE",
"729 223 OFFCURVE",
"798 447 OFFCURVE",
"836 700 CURVE",
"768 700 LINE",
"735 466 OFFCURVE",
"672 263 OFFCURVE",
"609 59 CURVE",
"632 60 LINE",
"566 262 OFFCURVE",
"527 411 OFFCURVE",
"447 700 CURVE",
"405 700 LINE",
"331 411 OFFCURVE",
"291 262 OFFCURVE",
"224 60 CURVE",
"247 59 LINE",
"182 263 OFFCURVE",
"117 466 OFFCURVE",
"82 700 CURVE",
"10 700 LINE",
"52 447 OFFCURVE",
"123 223 OFFCURVE",
"195 0 CURVE"
);
}
);
width = 856;
},
{
anchors = (
{
name = bottom;
position = "{438, 0}";
},
{
name = top;
position = "{438, 670}";
}
);
hints = (
{
horizontal = 1;
origin = "{0, 31}";
target = up;
type = BottomGhost;
},
{
horizontal = 1;
origin = "{0, 12}";
target = down;
type = TopGhost;
},
{
horizontal = 1;
place = "{0, 101}";
type = Stem;
},
{
horizontal = 1;
origin = "{0, 28}";
target = down;
type = TopGhost;
},
{
origin = "{0, 12}";
target = "{0, 11}";
type = Stem;
}
);
layerId = "FD6510A9-FDB4-489D-9A3E-85E488E95339";
paths = (
{
closed = 1;
nodes = (
"327 0 LINE",
"391 186 OFFCURVE",
"417 286 OFFCURVE",
"446 468 CURVE",
"430 468 LINE",
"458 286 OFFCURVE",
"486 186 OFFCURVE",
"549 0 CURVE",
"711 0 LINE",
"799 223 OFFCURVE",
"838 437 OFFCURVE",
"866 700 CURVE",
"718 700 LINE",
"695 456 OFFCURVE",
"682 333 OFFCURVE",
"619 119 CURVE",
"642 120 LINE",
"576 322 OFFCURVE",
"557 411 OFFCURVE",
"497 700 CURVE",
"375 700 LINE",
"321 411 OFFCURVE",
"301 322 OFFCURVE",
"234 120 CURVE",
"257 119 LINE",
"192 333 OFFCURVE",
"177 456 OFFCURVE",
"152 700 CURVE",
"0 700 LINE",
"32 437 OFFCURVE",
"73 223 OFFCURVE",
"165 0 CURVE"
);
}
);
width = 866;
},
{
anchors = (
{
name = bottom;
position = "{428, 0}";
},
{
name = top;
position = "{428, 660}";
}
);
hints = (
{
horizontal = 1;
origin = "{0, 31}";
target = up;
type = BottomGhost;
},
{
horizontal = 1;
origin = "{0, 12}";
target = down;
type = TopGhost;
},
{
horizontal = 1;
place = "{0, 101}";
type = Stem;
},
{
horizontal = 1;
origin = "{0, 28}";
target = down;
type = TopGhost;
},
{
origin = "{0, 12}";
target = "{0, 11}";
type = Stem;
}
);
layerId = "EB12C417-147C-44D3-ABF9-73FB32C0B9E2";
paths = (
{
closed = 1;
nodes = (
"257 0 LINE",
"331 236 OFFCURVE",
"397 446 OFFCURVE",
"436 628 CURVE",
"420 628 LINE",
"458 446 OFFCURVE",
"526 236 OFFCURVE",
"599 0 CURVE",
"641 0 LINE",
"719 203 OFFCURVE",
"798 427 OFFCURVE",
"836 700 CURVE",
"798 700 LINE",
"765 486 OFFCURVE",
"682 213 OFFCURVE",
"609 29 CURVE",
"632 30 LINE",
"566 222 OFFCURVE",
"507 431 OFFCURVE",
"437 700 CURVE",
"415 700 LINE",
"351 431 OFFCURVE",
"291 222 OFFCURVE",
"224 30 CURVE",
"247 29 LINE",
"172 213 OFFCURVE",
"87 486 OFFCURVE",
"52 700 CURVE",
"10 700 LINE",
"52 427 OFFCURVE",
"133 203 OFFCURVE",
"215 0 CURVE"
);
}
);
width = 856;
}
);
note = W;
unicode = 0057;
},
{
glyphname = X;
lastChange = "2018-04-30 15:52:51 +0000";
layers = (
{
anchors = (
{
name = bottom;
position = "{301, 0}";
},
{
name = top;
position = "{301, 660}";
}
);
layerId = "5A4BD32C-A1D1-4EB1-A794-47BD06E3B809";
paths = (
{
closed = 1;
nodes = (
"495 353 OFFCURVE",
"177 407 OFFCURVE",
"114 700 CURVE",
"39 700 LINE",
"101 387 OFFCURVE",
"429 313 OFFCURVE",
"481 0 CURVE",
"558 0 LINE"
);
},
{
closed = 1;
nodes = (
"153 313 OFFCURVE",
"481 387 OFFCURVE",
"543 700 CURVE",
"468 700 LINE",
"405 407 OFFCURVE",
"87 353 OFFCURVE",
"24 0 CURVE",
"101 0 LINE"
);
}
);
width = 582;
},
{
anchors = (
{
name = bottom;
position = "{291, 0}";
},
{
name = top;
position = "{291, 660}";
}
);
layerId = "FD6510A9-FDB4-489D-9A3E-85E488E95339";
paths = (
{
closed = 1;
nodes = (
"535 353 OFFCURVE",
"237 407 OFFCURVE",
"174 700 CURVE",
"19 700 LINE",
"81 387 OFFCURVE",
"389 313 OFFCURVE",
"441 0 CURVE",
"598 0 LINE"
);
},
{
closed = 1;
nodes = (
"213 313 OFFCURVE",
"521 387 OFFCURVE",
"583 700 CURVE",
"428 700 LINE",
"365 407 OFFCURVE",
"67 353 OFFCURVE",
"4 0 CURVE",
"161 0 LINE"
);
}
);
width = 602;
},
{
anchors = (
{
name = bottom;
position = "{301, 0}";
},
{
name = top;
position = "{301, 660}";
}
);
layerId = "EB12C417-147C-44D3-ABF9-73FB32C0B9E2";
paths = (
{
closed = 1;
nodes = (
"495 353 OFFCURVE",
"147 397 OFFCURVE",
"84 700 CURVE",
"39 700 LINE",
"101 387 OFFCURVE",
"459 323 OFFCURVE",
"511 0 CURVE",
"558 0 LINE"
);
},
{
closed = 1;
nodes = (
"123 323 OFFCURVE",
"481 387 OFFCURVE",
"543 700 CURVE",
"498 700 LINE",
"435 397 OFFCURVE",
"87 353 OFFCURVE",
"24 0 CURVE",
"71 0 LINE"
);
}
);
width = 582;
}
);
note = X;
unicode = 0058;
},
{
glyphname = Y;
lastChange = "2018-04-30 15:52:28 +0000";
layers = (
{
anchors = (
{
name = bottom;
position = "{295, 0}";
},
{
name = top;
position = "{295, 660}";
},
{
name = topleft;
position = "{20, 700}";
}
);
hints = (
{
horizontal = 1;
origin = "{0, 9}";
target = up;
type = BottomGhost;
},
{
horizontal = 1;
origin = "{0, 7}";
target = down;
type = TopGhost;
},
{
origin = "{0, 9}";
target = "{0, 0}";
type = Stem;
}
);
layerId = "5A4BD32C-A1D1-4EB1-A794-47BD06E3B809";
paths = (
{
closed = 1;
nodes = (
"331 0 LINE",
"331 294 LINE",
"570 700 LINE",
"493 700 LINE",
"275 325 LINE",
"317 325 LINE",
"98 700 LINE",
"20 700 LINE",
"259 294 LINE",
"259 0 LINE"
);
}
);
width = 590;
},
{
anchors = (
{
name = bottom;
position = "{295, 0}";
},
{
name = top;
position = "{295, 660}";
},
{
name = topleft;
position = "{20, 700}";
}
);
hints = (
{
horizontal = 1;
origin = "{0, 9}";
target = up;
type = BottomGhost;
},
{
horizontal = 1;
origin = "{0, 7}";
target = down;
type = TopGhost;
},
{
origin = "{0, 9}";
target = "{0, 0}";
type = Stem;
}
);
layerId = "FD6510A9-FDB4-489D-9A3E-85E488E95339";
paths = (
{
closed = 1;
nodes = (
"371 0 LINE",
"371 294 LINE",
"580 700 LINE",
"423 700 LINE",
"275 385 LINE",
"317 385 LINE",
"168 700 LINE",
"10 700 LINE",
"219 294 LINE",
"219 0 LINE"
);
}
);
width = 590;
},
{
anchors = (
{
name = bottom;
position = "{295, 0}";
},
{
name = top;
position = "{295, 660}";
},
{
name = topleft;
position = "{20, 700}";
}
);
hints = (
{
horizontal = 1;
origin = "{0, 9}";
target = up;
type = BottomGhost;
},
{
horizontal = 1;
origin = "{0, 7}";
target = down;
type = TopGhost;
},
{
origin = "{0, 9}";
target = "{0, 0}";
type = Stem;
}
);
layerId = "EB12C417-147C-44D3-ABF9-73FB32C0B9E2";
paths = (
{
closed = 1;
nodes = (
"316 0 LINE",
"316 294 LINE",
"570 700 LINE",
"523 700 LINE",
"285 305 LINE",
"307 305 LINE",
"68 700 LINE",
"20 700 LINE",
"274 294 LINE",
"274 0 LINE"
);
}
);
width = 590;
}
);
note = Y;
unicode = 0059;
},
{
glyphname = Z;
lastChange = "2018-04-30 15:51:58 +0000";
layers = (
{
anchors = (
{
name = bottom;
position = "{290, 0}";
},
{
name = top;
position = "{290, 660}";
}
);
hints = (
{
horizontal = 1;
origin = "{0, 11}";
target = "{0, 10}";
type = Stem;
},
{
horizontal = 1;
origin = "{0, 6}";
target = "{0, 7}";
type = Stem;
},
{
origin = "{0, 7}";
target = "{0, 0}";
type = Stem;
}
);
layerId = "5A4BD32C-A1D1-4EB1-A794-47BD06E3B809";
paths = (
{
closed = 1;
nodes = (
"528 0 LINE",
"528 60 LINE",
"93 60 LINE",
"113 22 LINE",
"520 636 LINE",
"520 700 LINE",
"52 700 LINE",
"52 640 LINE",
"486 640 LINE",
"466 677 LINE",
"54 60 LINE",
"54 0 LINE"
);
}
);
width = 580;
},
{
anchors = (
{
name = bottom;
position = "{280, 0}";
},
{
name = top;
position = "{280, 660}";
}
);
hints = (
{
horizontal = 1;
origin = "{0, 11}";
target = "{0, 10}";
type = Stem;
},
{
horizontal = 1;
origin = "{0, 6}";
target = "{0, 7}";
type = Stem;
},
{
origin = "{0, 7}";
target = "{0, 0}";
type = Stem;
}
);
layerId = "FD6510A9-FDB4-489D-9A3E-85E488E95339";
paths = (
{
closed = 1;
nodes = (
"538 0 LINE",
"538 100 LINE",
"163 100 LINE",
"183 52 LINE",
"530 596 LINE",
"530 700 LINE",
"42 700 LINE",
"42 600 LINE",
"416 600 LINE",
"396 647 LINE",
"44 100 LINE",
"44 0 LINE"
);
}
);
width = 580;
},
{
anchors = (
{
name = bottom;
position = "{290, 0}";
},
{
name = top;
position = "{290, 660}";
}
);
hints = (
{
horizontal = 1;
origin = "{0, 11}";
target = "{0, 10}";
type = Stem;
},
{
horizontal = 1;
origin = "{0, 6}";
target = "{0, 7}";
type = Stem;
},
{
origin = "{0, 7}";
target = "{0, 0}";
type = Stem;
}
);
layerId = "EB12C417-147C-44D3-ABF9-73FB32C0B9E2";
paths = (
{
closed = 1;
nodes = (
"528 0 LINE",
"528 40 LINE",
"68 40 LINE",
"88 12 LINE",
"520 666 LINE",
"520 700 LINE",
"52 700 LINE",
"52 660 LINE",
"506 660 LINE",
"489 687 LINE",
"54 40 LINE",
"54 0 LINE"
);
}
);
width = 580;
}
);
note = Z;
unicode = 005A;
},
{
glyphname = a;
lastChange = "2018-04-30 16:42:20 +0000";
layers = (
{
anchors = (
{
name = bottom;
position = "{279, 0}";
},
{
name = ogonek;
position = "{502, 10}";
},
{
name = top;
position = "{277, 550}";
}
);
hints = (
{
horizontal = 1;
origin = "{1, 19}";
target = "{1, 6}";
type = Stem;
},
{
horizontal = 1;
origin = "{1, 12}";
target = "{1, 13}";
type = Stem;
},
{
horizontal = 1;
origin = "{0, 12}";
target = down;
type = TopGhost;
},
{
horizontal = 1;
origin = "{0, 18}";
target = "{0, 9}";
type = Stem;
},
{
horizontal = 1;
place = "{439.09, 31.91}";
type = Stem;
},
{
origin = "{1, 16}";
target = "{1, 9}";
type = Stem;
},
{
origin = "{0, 22}";
target = "{0, 5}";
type = Stem;
}
);
layerId = "5A4BD32C-A1D1-4EB1-A794-47BD06E3B809";
paths = (
{
closed = 1;
nodes = (
"477 -5 OFFCURVE",
"497 4 OFFCURVE",
"510 17 CURVE",
"487 42 OFFCURVE",
"476 69 OFFCURVE",
"476 137 CURVE SMOOTH",
"476 373 LINE SMOOTH",
"476 489 OFFCURVE",
"399 560 OFFCURVE",
"276 560 CURVE SMOOTH",
"177 560 OFFCURVE",
"103 513 OFFCURVE",
"51 451 CURVE",
"70 424 OFFCURVE",
"95 408 OFFCURVE",
"111 424 CURVE SMOOTH",
"151 464 OFFCURVE",
"195 504 OFFCURVE",
"273 504 CURVE SMOOTH",
"366 504 OFFCURVE",
"408 459 OFFCURVE",
"408 373 CURVE SMOOTH",
"408 116 LINE SMOOTH",
"408 32 OFFCURVE",
"432 -5 OFFCURVE",
"461 -5 CURVE SMOOTH"
);
},
{
closed = 1;
nodes = (
"321 -12 OFFCURVE",
"397 48 OFFCURVE",
"427 109 CURVE",
"422 185 LINE",
"377 100 OFFCURVE",
"306 44 OFFCURVE",
"223 44 CURVE SMOOTH",
"155 44 OFFCURVE",
"120 74 OFFCURVE",
"120 133 CURVE SMOOTH",
"120 221 OFFCURVE",
"206 279 OFFCURVE",
"422 286 CURVE",
"422 342 LINE",
"199 334 OFFCURVE",
"50 269 OFFCURVE",
"50 132 CURVE SMOOTH",
"50 39 OFFCURVE",
"126 -12 OFFCURVE",
"218 -12 CURVE SMOOTH"
);
}
);
width = 558;
},
{
anchors = (
{
name = bottom;
position = "{279, 0}";
},
{
name = ogonek;
position = "{502, 10}";
},
{
name = top;
position = "{277, 550}";
}
);
hints = (
{
horizontal = 1;
origin = "{1, 19}";
target = "{1, 6}";
type = Stem;
},
{
horizontal = 1;
origin = "{1, 12}";
target = "{1, 13}";
type = Stem;
},
{
horizontal = 1;
origin = "{0, 12}";
target = down;
type = TopGhost;
},
{
horizontal = 1;
origin = "{0, 18}";
target = "{0, 9}";
type = Stem;
},
{
horizontal = 1;
place = "{439.09, 31.91}";
type = Stem;
},
{
origin = "{1, 16}";
target = "{1, 9}";
type = Stem;
},
{
origin = "{0, 22}";
target = "{0, 5}";
type = Stem;
}
);
layerId = "FD6510A9-FDB4-489D-9A3E-85E488E95339";
paths = (
{
closed = 1;
nodes = (
"464 -7 OFFCURVE",
"512 9 OFFCURVE",
"539 27 CURVE",
"512 62 OFFCURVE",
"506 101 OFFCURVE",
"506 207 CURVE SMOOTH",
"506 373 LINE SMOOTH",
"506 489 OFFCURVE",
"433 560 OFFCURVE",
"290 560 CURVE SMOOTH",
"181 560 OFFCURVE",
"83 518 OFFCURVE",
"41 481 CURVE",
"66 417 OFFCURVE",
"105 381 OFFCURVE",
"130 398 CURVE SMOOTH",
"170 425 OFFCURVE",
"212 454 OFFCURVE",
"271 454 CURVE SMOOTH",
"334 454 OFFCURVE",
"358 425 OFFCURVE",
"358 373 CURVE SMOOTH",
"358 146 LINE SMOOTH",
"358 41 OFFCURVE",
"376 -7 OFFCURVE",
"425 -7 CURVE SMOOTH"
);
},
{
closed = 1;
nodes = (
"307 -12 OFFCURVE",
"349 32 OFFCURVE",
"382 104 CURVE",
"372 202 LINE",
"345 137 OFFCURVE",
"309 84 OFFCURVE",
"255 84 CURVE SMOOTH",
"216 84 OFFCURVE",
"190 109 OFFCURVE",
"190 148 CURVE SMOOTH",
"190 197 OFFCURVE",
"226 246 OFFCURVE",
"382 246 CURVE",
"382 322 LINE",
"159 314 OFFCURVE",
"40 264 OFFCURVE",
"40 132 CURVE SMOOTH",
"40 39 OFFCURVE",
"115 -12 OFFCURVE",
"203 -12 CURVE SMOOTH"
);
}
);
width = 568;
},
{
anchors = (
{
name = bottom;
position = "{279, 0}";
},
{
name = ogonek;
position = "{502, 10}";
},
{
name = top;
position = "{277, 550}";
}
);
hints = (
{
horizontal = 1;
origin = "{1, 19}";
target = "{1, 6}";
type = Stem;
},
{
horizontal = 1;
origin = "{1, 12}";
target = "{1, 13}";
type = Stem;
},
{
horizontal = 1;
origin = "{0, 12}";
target = down;
type = TopGhost;
},
{
horizontal = 1;
origin = "{0, 18}";
target = "{0, 9}";
type = Stem;
},
{
horizontal = 1;
place = "{439.09, 31.91}";
type = Stem;
},
{
origin = "{1, 16}";
target = "{1, 9}";
type = Stem;
},
{
origin = "{0, 22}";
target = "{0, 5}";
type = Stem;
}
);
layerId = "EB12C417-147C-44D3-ABF9-73FB32C0B9E2";
paths = (
{
closed = 1;
nodes = (
"496 -5 OFFCURVE",
"509 7 OFFCURVE",
"510 17 CURVE",
"486 35 OFFCURVE",
"476 60 OFFCURVE",
"476 127 CURVE SMOOTH",
"476 373 LINE SMOOTH",
"476 499 OFFCURVE",
"399 560 OFFCURVE",
"286 560 CURVE SMOOTH",
"177 560 OFFCURVE",
"97 512 OFFCURVE",
"51 461 CURVE",
"60 440 OFFCURVE",
"80 433 OFFCURVE",
"91 444 CURVE SMOOTH",
"135 486 OFFCURVE",
"195 524 OFFCURVE",
"283 524 CURVE SMOOTH",
"386 524 OFFCURVE",
"438 469 OFFCURVE",
"438 373 CURVE SMOOTH",
"438 111 LINE SMOOTH",
"438 36 OFFCURVE",
"462 -5 OFFCURVE",
"486 -5 CURVE SMOOTH"
);
},
{
closed = 1;
nodes = (
"320 -12 OFFCURVE",
"412 58 OFFCURVE",
"451 132 CURVE",
"452 184 LINE",
"396 84 OFFCURVE",
"310 24 OFFCURVE",
"213 24 CURVE SMOOTH",
"155 24 OFFCURVE",
"90 58 OFFCURVE",
"90 137 CURVE SMOOTH",
"90 255 OFFCURVE",
"236 299 OFFCURVE",
"452 306 CURVE",
"452 342 LINE",
"229 334 OFFCURVE",
"50 283 OFFCURVE",
"50 136 CURVE SMOOTH",
"50 43 OFFCURVE",
"126 -12 OFFCURVE",
"208 -12 CURVE SMOOTH"
);
}
);
width = 558;
}
);
note = a;
unicode = 0061;
},
{
glyphname = b;
lastChange = "2018-04-30 17:13:55 +0000";
layers = (
{
hints = (
{
horizontal = 1;
origin = "{0, 25}";
target = "{0, 18}";
type = Stem;
},
{
horizontal = 1;
origin = "{0, 12}";
target = "{0, 5}";
type = Stem;
},
{
origin = "{1, 5}";
target = "{1, 2}";
type = Stem;
},
{
origin = "{0, 15}";
target = "{0, 2}";
type = Stem;
}
);
layerId = "5A4BD32C-A1D1-4EB1-A794-47BD06E3B809";
paths = (
{
closed = 1;
nodes = (
"464 -12 OFFCURVE",
"570 78 OFFCURVE",
"570 283 CURVE SMOOTH",
"570 466 OFFCURVE",
"480 560 OFFCURVE",
"338 560 CURVE SMOOTH",
"264 560 OFFCURVE",
"200 535 OFFCURVE",
"148 491 CURVE",
"148 427 LINE",
"196 472 OFFCURVE",
"261 504 OFFCURVE",
"338 504 CURVE SMOOTH",
"435 504 OFFCURVE",
"500 433 OFFCURVE",
"500 283 CURVE SMOOTH",
"500 126 OFFCURVE",
"436 46 OFFCURVE",
"333 46 CURVE SMOOTH",
"250 46 OFFCURVE",
"187 87 OFFCURVE",
"149 155 CURVE",
"143 84 LINE",
"183 22 OFFCURVE",
"245 -12 OFFCURVE",
"333 -12 CURVE SMOOTH"
);
},
{
closed = 1;
nodes = (
"159 0 OFFCURVE",
"171 49 OFFCURVE",
"171 108 CURVE SMOOTH",
"171 791 LINE",
"101 791 LINE",
"101 132 LINE SMOOTH",
"101 62 OFFCURVE",
"91 32 OFFCURVE",
"82 12 CURVE",
"95 4 OFFCURVE",
"113 0 OFFCURVE",
"132 0 CURVE SMOOTH"
);
}
);
width = 610;
},
{
hints = (
{
horizontal = 1;
origin = "{1, 11}";
target = up;
type = BottomGhost;
},
{
horizontal = 1;
origin = "{0, 12}";
target = "{0, 5}";
type = Stem;
},
{
horizontal = 1;
origin = "{0, 25}";
target = "{0, 18}";
type = Stem;
},
{
origin = "{1, 5}";
target = "{1, 2}";
type = Stem;
},
{
origin = "{0, 15}";
target = "{0, 2}";
type = Stem;
}
);
layerId = "FD6510A9-FDB4-489D-9A3E-85E488E95339";
paths = (
{
closed = 1;
nodes = (
"459 -12 OFFCURVE",
"570 69 OFFCURVE",
"570 272 CURVE SMOOTH",
"570 451 OFFCURVE",
"479 560 OFFCURVE",
"348 560 CURVE SMOOTH",
"262 560 OFFCURVE",
"224 521 OFFCURVE",
"195 488 CURVE",
"199 391 LINE",
"211 430 OFFCURVE",
"261 466 OFFCURVE",
"312 466 CURVE SMOOTH",
"373 466 OFFCURVE",
"420 419 OFFCURVE",
"420 272 CURVE SMOOTH",
"420 122 OFFCURVE",
"378 84 OFFCURVE",
"322 84 CURVE SMOOTH",
"268 84 OFFCURVE",
"227 117 OFFCURVE",
"196 194 CURVE",
"194 81 LINE",
"220 30 OFFCURVE",
"277 -12 OFFCURVE",
"347 -12 CURVE SMOOTH"
);
},
{
closed = 1;
nodes = (
"198 -7 OFFCURVE",
"211 52 OFFCURVE",
"211 146 CURVE SMOOTH",
"211 780 LINE",
"63 780 LINE",
"63 207 LINE SMOOTH",
"63 101 OFFCURVE",
"57 62 OFFCURVE",
"30 27 CURVE",
"58 11 OFFCURVE",
"103 -7 OFFCURVE",
"149 -7 CURVE SMOOTH"
);
}
);
width = 610;
},
{
hints = (
{
horizontal = 1;
origin = "{0, 25}";
target = "{0, 18}";
type = Stem;
},
{
horizontal = 1;
origin = "{0, 12}";
target = "{0, 5}";
type = Stem;
},
{
origin = "{1, 5}";
target = "{1, 2}";
type = Stem;
},
{
origin = "{0, 15}";
target = "{0, 2}";
type = Stem;
}
);
layerId = "EB12C417-147C-44D3-ABF9-73FB32C0B9E2";
paths = (
{
closed = 1;
nodes = (
"454 -12 OFFCURVE",
"560 78 OFFCURVE",
"560 283 CURVE SMOOTH",
"560 466 OFFCURVE",
"460 560 OFFCURVE",
"318 560 CURVE SMOOTH",
"234 560 OFFCURVE",
"160 525 OFFCURVE",
"118 481 CURVE",
"118 437 LINE",
"166 487 OFFCURVE",
"231 524 OFFCURVE",
"318 524 CURVE SMOOTH",
"445 524 OFFCURVE",
"520 433 OFFCURVE",
"520 283 CURVE SMOOTH",
"520 116 OFFCURVE",
"436 26 OFFCURVE",
"313 26 CURVE SMOOTH",
"240 26 OFFCURVE",
"157 67 OFFCURVE",
"119 135 CURVE",
"113 94 LINE",
"143 32 OFFCURVE",
"225 -12 OFFCURVE",
"313 -12 CURVE SMOOTH"
);
},
{
closed = 1;
nodes = (
"139 0 OFFCURVE",
"141 49 OFFCURVE",
"141 108 CURVE SMOOTH",
"141 791 LINE",
"101 791 LINE",
"101 132 LINE SMOOTH",
"101 62 OFFCURVE",
"91 32 OFFCURVE",
"82 12 CURVE",
"95 4 OFFCURVE",
"93 0 OFFCURVE",
"112 0 CURVE SMOOTH"
);
}
);
width = 610;
}
);
note = b;
unicode = 0062;
},
{
glyphname = c;
lastChange = "2018-04-30 16:43:58 +0000";
layers = (
{
anchors = (
{
name = bottom;
position = "{287, 0}";
},
{
name = top;
position = "{287, 550}";
}
);
hints = (
{
horizontal = 1;
origin = "{0, 32}";
target = "{0, 8}";
type = Stem;
},
{
horizontal = 1;
origin = "{0, 14}";
target = "{0, 26}";
type = Stem;
},
{
origin = "{0, 29}";
target = "{0, 11}";
type = Stem;
}
);
layerId = "5A4BD32C-A1D1-4EB1-A794-47BD06E3B809";
paths = (
{
closed = 1;
nodes = (
"420 -12 OFFCURVE",
"489 56 OFFCURVE",
"489 95 CURVE SMOOTH",
"489 115 OFFCURVE",
"476 135 OFFCURVE",
"456 135 CURVE",
"432 91 OFFCURVE",
"387 44 OFFCURVE",
"296 44 CURVE SMOOTH",
"174 44 OFFCURVE",
"110 138 OFFCURVE",
"110 277 CURVE SMOOTH",
"110 434 OFFCURVE",
"187 506 OFFCURVE",
"287 506 CURVE SMOOTH",
"378 506 OFFCURVE",
"420 465 OFFCURVE",
"434 404 CURVE SMOOTH",
"440 378 OFFCURVE",
"445 375 OFFCURVE",
"458 375 CURVE SMOOTH",
"471 375 OFFCURVE",
"491 381 OFFCURVE",
"503 387 CURVE",
"492 491 OFFCURVE",
"413 560 OFFCURVE",
"287 560 CURVE SMOOTH",
"138 560 OFFCURVE",
"40 452 OFFCURVE",
"40 277 CURVE SMOOTH",
"40 110 OFFCURVE",
"128 -12 OFFCURVE",
"296 -12 CURVE SMOOTH"
);
}
);
width = 547;
},
{
anchors = (
{
name = bottom;
position = "{307, 0}";
},
{
name = top;
position = "{307, 550}";
}
);
hints = (
{
horizontal = 1;
origin = "{0, 32}";
target = "{0, 8}";
type = Stem;
},
{
horizontal = 1;
origin = "{0, 14}";
target = "{0, 26}";
type = Stem;
},
{
origin = "{0, 29}";
target = "{0, 11}";
type = Stem;
}
);
layerId = "FD6510A9-FDB4-489D-9A3E-85E488E95339";
paths = (
{
closed = 1;
nodes = (
"443 -12 OFFCURVE",
"519 63 OFFCURVE",
"519 131 CURVE SMOOTH",
"519 184 OFFCURVE",
"485 206 OFFCURVE",
"436 206 CURVE",
"411 138 OFFCURVE",
"374 88 OFFCURVE",
"306 88 CURVE SMOOTH",
"224 88 OFFCURVE",
"180 142 OFFCURVE",
"180 277 CURVE SMOOTH",
"180 410 OFFCURVE",
"230 464 OFFCURVE",
"297 464 CURVE SMOOTH",
"354 464 OFFCURVE",
"382 432 OFFCURVE",
"388 377 CURVE SMOOTH",
"391 350 OFFCURVE",
"403 335 OFFCURVE",
"434 335 CURVE SMOOTH",
"468 335 OFFCURVE",
"507 351 OFFCURVE",
"533 367 CURVE",
"521 469 OFFCURVE",
"453 560 OFFCURVE",
"297 560 CURVE SMOOTH",
"142 560 OFFCURVE",
"30 466 OFFCURVE",
"30 277 CURVE SMOOTH",
"30 96 OFFCURVE",
"112 -12 OFFCURVE",
"306 -12 CURVE SMOOTH"
);
}
);
width = 577;
},
{
anchors = (
{
name = bottom;
position = "{287, 0}";
},
{
name = top;
position = "{287, 550}";
}
);
hints = (
{
horizontal = 1;
origin = "{0, 32}";
target = "{0, 8}";
type = Stem;
},
{
horizontal = 1;
origin = "{0, 14}";
target = "{0, 26}";
type = Stem;
},
{
origin = "{0, 29}";
target = "{0, 11}";
type = Stem;
}
);
layerId = "EB12C417-147C-44D3-ABF9-73FB32C0B9E2";
paths = (
{
closed = 1;
nodes = (
"420 -12 OFFCURVE",
"489 56 OFFCURVE",
"489 95 CURVE SMOOTH",
"489 107 OFFCURVE",
"479 115 OFFCURVE",
"466 115 CURVE",
"437 63 OFFCURVE",
"394 24 OFFCURVE",
"296 24 CURVE SMOOTH",
"144 24 OFFCURVE",
"80 138 OFFCURVE",
"80 277 CURVE SMOOTH",
"80 434 OFFCURVE",
"157 526 OFFCURVE",
"287 526 CURVE SMOOTH",
"390 526 OFFCURVE",
"441 473 OFFCURVE",
"457 405 CURVE SMOOTH",
"462 384 OFFCURVE",
"466 378 OFFCURVE",
"477 378 CURVE SMOOTH",
"485 378 OFFCURVE",
"496 383 OFFCURVE",
"503 387 CURVE",
"492 491 OFFCURVE",
"413 560 OFFCURVE",
"287 560 CURVE SMOOTH",
"138 560 OFFCURVE",
"40 452 OFFCURVE",
"40 277 CURVE SMOOTH",
"40 110 OFFCURVE",
"128 -12 OFFCURVE",
"296 -12 CURVE SMOOTH"
);
}
);
width = 547;
}
);
note = c;
unicode = 0063;
},
{
glyphname = d;
lastChange = "2018-04-30 17:16:13 +0000";
layers = (
{
anchors = (
{
name = bottom;
position = "{299, 0}";
},
{
name = center;
position = "{299, 275}";
},
{
name = top;
position = "{299, 750}";
},
{
name = topright;
position = "{578, 550}";
}
);
hints = (
{
horizontal = 1;
origin = "{0, 25}";
target = "{0, 6}";
type = Stem;
},
{
horizontal = 1;
origin = "{0, 12}";
target = "{0, 19}";
type = Stem;
},
{
origin = "{0, 22}";
target = "{0, 9}";
type = Stem;
},
{
origin = "{1, 8}";
target = "{1, 5}";
type = Stem;
}
);
layerId = "5A4BD32C-A1D1-4EB1-A794-47BD06E3B809";
paths = (
{
closed = 1;
nodes = (
"363 -12 OFFCURVE",
"410 20 OFFCURVE",
"456 81 CURVE",
"454 154 LINE",
"413 87 OFFCURVE",
"362 44 OFFCURVE",
"278 44 CURVE SMOOTH",
"172 44 OFFCURVE",
"110 122 OFFCURVE",
"110 272 CURVE SMOOTH",
"110 419 OFFCURVE",
"171 506 OFFCURVE",
"292 506 CURVE SMOOTH",
"357 506 OFFCURVE",
"429 470 OFFCURVE",
"451 431 CURVE",
"455 498 LINE",
"436 521 OFFCURVE",
"368 560 OFFCURVE",
"292 560 CURVE SMOOTH",
"131 560 OFFCURVE",
"40 451 OFFCURVE",
"40 272 CURVE SMOOTH",
"40 69 OFFCURVE",
"151 -12 OFFCURVE",
"273 -12 CURVE SMOOTH"
);
},
{
closed = 1;
nodes = (
"488 -4 OFFCURVE",
"504 0 OFFCURVE",
"521 8 CURVE",
"515 29 OFFCURVE",
"507 73 OFFCURVE",
"507 128 CURVE SMOOTH",
"507 781 LINE",
"439 781 LINE",
"439 124 LINE SMOOTH",
"439 59 OFFCURVE",
"444 -4 OFFCURVE",
"475 -4 CURVE SMOOTH"
);
}
);
width = 598;
},
{
anchors = (
{
name = bottom;
position = "{299, 0}";
},
{
name = center;
position = "{299, 275}";
},
{
name = top;
position = "{299, 750}";
},
{
name = topright;
position = "{578, 550}";
}
);
hints = (
{
horizontal = 1;
origin = "{0, 25}";
target = "{0, 6}";
type = Stem;
},
{
horizontal = 1;
origin = "{0, 12}";
target = "{0, 19}";
type = Stem;
},
{
origin = "{0, 22}";
target = "{0, 9}";
type = Stem;
},
{
origin = "{1, 8}";
target = "{1, 7}";
type = Stem;
}
);
layerId = "FD6510A9-FDB4-489D-9A3E-85E488E95339";
paths = (
{
closed = 1;
nodes = (
"333 -12 OFFCURVE",
"380 30 OFFCURVE",
"406 81 CURVE",
"404 194 LINE",
"373 117 OFFCURVE",
"332 84 OFFCURVE",
"278 84 CURVE SMOOTH",
"222 84 OFFCURVE",
"180 122 OFFCURVE",
"180 272 CURVE SMOOTH",
"180 419 OFFCURVE",
"237 466 OFFCURVE",
"298 466 CURVE SMOOTH",
"339 466 OFFCURVE",
"379 452 OFFCURVE",
"401 423 CURVE",
"405 523 LINE",
"376 546 OFFCURVE",
"328 560 OFFCURVE",
"282 560 CURVE SMOOTH",
"141 560 OFFCURVE",
"30 461 OFFCURVE",
"30 272 CURVE SMOOTH",
"30 69 OFFCURVE",
"131 -12 OFFCURVE",
"253 -12 CURVE SMOOTH"
);
},
{
closed = 1;
nodes = (
"497 -7 OFFCURVE",
"542 11 OFFCURVE",
"570 27 CURVE",
"543 62 OFFCURVE",
"537 101 OFFCURVE",
"537 207 CURVE SMOOTH",
"537 781 LINE",
"389 781 LINE",
"389 146 LINE SMOOTH",
"389 52 OFFCURVE",
"402 -7 OFFCURVE",
"451 -7 CURVE SMOOTH"
);
}
);
width = 598;
},
{
anchors = (
{
name = bottom;
position = "{299, 0}";
},
{
name = center;
position = "{299, 275}";
},
{
name = top;
position = "{299, 750}";
},
{
name = topright;
position = "{578, 550}";
}
);
hints = (
{
horizontal = 1;
origin = "{0, 25}";
target = "{0, 6}";
type = Stem;
},
{
horizontal = 1;
origin = "{0, 12}";
target = "{0, 19}";
type = Stem;
},
{
origin = "{0, 22}";
target = "{0, 9}";
type = Stem;
},
{
origin = "{1, 8}";
target = "{1, 5}";
type = Stem;
}
);
layerId = "EB12C417-147C-44D3-ABF9-73FB32C0B9E2";
paths = (
{
closed = 1;
nodes = (
"373 -12 OFFCURVE",
"450 30 OFFCURVE",
"486 91 CURVE",
"484 134 LINE",
"443 67 OFFCURVE",
"372 24 OFFCURVE",
"288 24 CURVE SMOOTH",
"182 24 OFFCURVE",
"90 102 OFFCURVE",
"90 272 CURVE SMOOTH",
"90 439 OFFCURVE",
"181 526 OFFCURVE",
"292 526 CURVE SMOOTH",
"372 526 OFFCURVE",
"429 495 OFFCURVE",
"481 451 CURVE",
"485 488 LINE",
"451 521 OFFCURVE",
"383 560 OFFCURVE",
"292 560 CURVE SMOOTH",
"141 560 OFFCURVE",
"50 451 OFFCURVE",
"50 272 CURVE SMOOTH",
"50 69 OFFCURVE",
"161 -12 OFFCURVE",
"283 -12 CURVE SMOOTH"
);
},
{
closed = 1;
nodes = (
"507 -4 OFFCURVE",
"516 1 OFFCURVE",
"521 8 CURVE",
"515 21 OFFCURVE",
"507 33 OFFCURVE",
"507 128 CURVE SMOOTH",
"507 781 LINE",
"469 781 LINE",
"469 84 LINE SMOOTH",
"469 29 OFFCURVE",
"477 -4 OFFCURVE",
"498 -4 CURVE SMOOTH"
);
}
);
width = 598;
}
);
note = d;
unicode = 0064;
},
{
glyphname = e;
lastChange = "2018-04-30 17:11:38 +0000";
layers = (
{
anchors = (
{
name = bottom;
position = "{290, 0}";
},
{
name = ogonek;
position = "{391, 10}";
},
{
name = top;
position = "{286, 550}";
}
);
hints = (
{
horizontal = 1;
origin = "{0, 29}";
target = "{0, 8}";
type = Stem;
},
{
horizontal = 1;
place = "{128, 2042}";
type = Stem;
},
{
horizontal = 1;
origin = "{0, 19}";
target = "{0, 18}";
type = Stem;
},
{
horizontal = 1;
origin = "{0, 14}";
target = "{0, 23}";
type = Stem;
},
{
origin = "{0, 26}";
target = "{0, 11}";
type = Stem;
},
{
origin = "{0, 17}";
target = "{0, 20}";
type = Stem;
}
);
layerId = "5A4BD32C-A1D1-4EB1-A794-47BD06E3B809";
paths = (
{
closed = 1;
nodes = (
"410 -12 OFFCURVE",
"484 43 OFFCURVE",
"509 128 CURVE",
"481 147 OFFCURVE",
"455 158 OFFCURVE",
"444 134 CURVE SMOOTH",
"417 76 OFFCURVE",
"377 46 OFFCURVE",
"290 46 CURVE SMOOTH",
"179 46 OFFCURVE",
"120 123 OFFCURVE",
"120 278 CURVE SMOOTH",
"120 424 OFFCURVE",
"174 506 OFFCURVE",
"286 506 CURVE SMOOTH",
"403 506 OFFCURVE",
"450 426 OFFCURVE",
"450 322 CURVE",
"102 322 LINE",
"102 268 LINE",
"520 268 LINE",
"520 450 OFFCURVE",
"452 560 OFFCURVE",
"289 560 CURVE SMOOTH",
"151 560 OFFCURVE",
"50 471 OFFCURVE",
"50 275 CURVE SMOOTH",
"50 79 OFFCURVE",
"148 -12 OFFCURVE",
"290 -12 CURVE SMOOTH"
);
}
);
width = 560;
},
{
anchors = (
{
name = bottom;
position = "{300, 0}";
},
{
name = ogonek;
position = "{401, 10}";
},
{
name = top;
position = "{296, 550}";
}
);
hints = (
{
horizontal = 1;
origin = "{0, 29}";
target = "{0, 8}";
type = Stem;
},
{
horizontal = 1;
place = "{128, 2042}";
type = Stem;
},
{
horizontal = 1;
origin = "{0, 19}";
target = "{0, 18}";
type = Stem;
},
{
horizontal = 1;
origin = "{0, 14}";
target = "{0, 23}";
type = Stem;
},
{
origin = "{0, 26}";
target = "{0, 11}";
type = Stem;
},
{
origin = "{0, 17}";
target = "{0, 20}";
type = Stem;
}
);
layerId = "FD6510A9-FDB4-489D-9A3E-85E488E95339";
paths = (
{
closed = 1;
nodes = (
"440 -12 OFFCURVE",
"504 53 OFFCURVE",
"539 128 CURVE",
"501 157 OFFCURVE",
"444 189 OFFCURVE",
"424 164 CURVE SMOOTH",
"398 131 OFFCURVE",
"377 86 OFFCURVE",
"310 86 CURVE SMOOTH",
"249 86 OFFCURVE",
"190 133 OFFCURVE",
"190 278 CURVE SMOOTH",
"190 424 OFFCURVE",
"244 466 OFFCURVE",
"306 466 CURVE SMOOTH",
"373 466 OFFCURVE",
"400 416 OFFCURVE",
"400 332 CURVE",
"112 332 LINE",
"112 248 LINE",
"550 248 LINE",
"550 460 OFFCURVE",
"462 560 OFFCURVE",
"309 560 CURVE SMOOTH",
"161 560 OFFCURVE",
"40 471 OFFCURVE",
"40 275 CURVE SMOOTH",
"40 79 OFFCURVE",
"158 -12 OFFCURVE",
"310 -12 CURVE SMOOTH"
);
}
);
width = 580;
},
{
anchors = (
{
name = bottom;
position = "{290, 0}";
},
{
name = ogonek;
position = "{391, 10}";
},
{
name = top;
position = "{286, 550}";
}
);
hints = (
{
horizontal = 1;
origin = "{0, 29}";
target = "{0, 8}";
type = Stem;
},
{
horizontal = 1;
place = "{128, 2042}";
type = Stem;
},
{
horizontal = 1;
origin = "{0, 19}";
target = "{0, 18}";
type = Stem;
},
{
horizontal = 1;
origin = "{0, 14}";
target = "{0, 23}";
type = Stem;
},
{
origin = "{0, 26}";
target = "{0, 11}";
type = Stem;
},
{
origin = "{0, 17}";
target = "{0, 20}";
type = Stem;
}
);
layerId = "EB12C417-147C-44D3-ABF9-73FB32C0B9E2";
paths = (
{
closed = 1;
nodes = (
"410 -12 OFFCURVE",
"484 43 OFFCURVE",
"509 128 CURVE",
"481 142 OFFCURVE",
"471 143 OFFCURVE",
"458 119 CURVE SMOOTH",
"431 68 OFFCURVE",
"377 26 OFFCURVE",
"290 26 CURVE SMOOTH",
"179 26 OFFCURVE",
"90 113 OFFCURVE",
"90 278 CURVE SMOOTH",
"90 444 OFFCURVE",
"174 524 OFFCURVE",
"286 524 CURVE SMOOTH",
"423 524 OFFCURVE",
"480 428 OFFCURVE",
"480 304 CURVE",
"72 304 LINE",
"72 268 LINE",
"520 268 LINE",
"520 460 OFFCURVE",
"452 560 OFFCURVE",
"289 560 CURVE SMOOTH",
"151 560 OFFCURVE",
"50 461 OFFCURVE",
"50 275 CURVE SMOOTH",
"50 69 OFFCURVE",
"168 -12 OFFCURVE",
"290 -12 CURVE SMOOTH"
);
}
);
width = 560;
}
);
note = e;
unicode = 0065;
},
{
glyphname = f;
lastChange = "2018-04-30 16:45:15 +0000";
layers = (
{
hints = (
{
horizontal = 1;
origin = "{0, 17}";
target = up;
type = BottomGhost;
},
{
horizontal = 1;
origin = "{1, 3}";
target = "{1, 2}";
type = Stem;
},
{
horizontal = 1;
origin = "{0, 4}";
target = "{0, 13}";
type = Stem;
},
{
origin = "{0, 17}";
target = "{0, 0}";
type = Stem;
}
);
layerId = "5A4BD32C-A1D1-4EB1-A794-47BD06E3B809";
paths = (
{
closed = 1;
nodes = (
"183 0 LINE",
"183 623 LINE SMOOTH",
"183 691 OFFCURVE",
"215 724 OFFCURVE",
"269 724 CURVE SMOOTH",
"293 724 OFFCURVE",
"319 719 OFFCURVE",
"338 709 CURVE",
"344 709 OFFCURVE",
"350 724 OFFCURVE",
"350 739 CURVE SMOOTH",
"350 764 OFFCURVE",
"324 782 OFFCURVE",
"256 782 CURVE SMOOTH",
"182 782 OFFCURVE",
"115 734 OFFCURVE",
"115 624 CURVE SMOOTH",
"115 0 LINE"
);
},
{
closed = 1;
nodes = (
"307 498 LINE",
"307 550 LINE",
"12 550 LINE",
"12 498 LINE"
);
}
);
width = 335;
},
{
hints = (
{
horizontal = 1;
origin = "{0, 17}";
target = up;
type = BottomGhost;
},
{
horizontal = 1;
origin = "{1, 3}";
target = "{1, 2}";
type = Stem;
},
{
horizontal = 1;
origin = "{0, 4}";
target = "{0, 13}";
type = Stem;
},
{
origin = "{0, 17}";
target = "{0, 0}";
type = Stem;
}
);
layerId = "FD6510A9-FDB4-489D-9A3E-85E488E95339";
paths = (
{
closed = 1;
nodes = (
"233 0 LINE",
"233 613 LINE SMOOTH",
"233 668 OFFCURVE",
"255 694 OFFCURVE",
"289 694 CURVE SMOOTH",
"323 694 OFFCURVE",
"349 687 OFFCURVE",
"368 679 CURVE",
"378 691 OFFCURVE",
"383 710 OFFCURVE",
"383 725 CURVE SMOOTH",
"383 758 OFFCURVE",
"346 792 OFFCURVE",
"257 792 CURVE SMOOTH",
"143 792 OFFCURVE",
"85 724 OFFCURVE",
"85 614 CURVE SMOOTH",
"85 0 LINE"
);
},
{
closed = 1;
nodes = (
"337 458 LINE",
"337 550 LINE",
"2 550 LINE",
"2 458 LINE"
);
}
);
width = 365;
},
{
hints = (
{
horizontal = 1;
origin = "{0, 17}";
target = up;
type = BottomGhost;
},
{
horizontal = 1;
origin = "{1, 3}";
target = "{1, 2}";
type = Stem;
},
{
horizontal = 1;
origin = "{0, 4}";
target = "{0, 13}";
type = Stem;
},
{
origin = "{0, 17}";
target = "{0, 0}";
type = Stem;
}
);
layerId = "EB12C417-147C-44D3-ABF9-73FB32C0B9E2";
paths = (
{
closed = 1;
nodes = (
"153 0 LINE",
"153 623 LINE SMOOTH",
"153 704 OFFCURVE",
"195 746 OFFCURVE",
"259 746 CURVE SMOOTH",
"297 746 OFFCURVE",
"318 742 OFFCURVE",
"337 729 CURVE",
"345 729 OFFCURVE",
"350 736 OFFCURVE",
"350 743 CURVE SMOOTH",
"350 765 OFFCURVE",
"320 782 OFFCURVE",
"261 782 CURVE SMOOTH",
"185 782 OFFCURVE",
"115 737 OFFCURVE",
"115 624 CURVE SMOOTH",
"115 0 LINE"
);
},
{
closed = 1;
nodes = (
"307 514 LINE",
"307 550 LINE",
"12 550 LINE",
"12 514 LINE"
);
}
);
width = 335;
}
);
note = f;
unicode = 0066;
},
{
glyphname = g;
lastChange = "2018-04-30 17:02:53 +0000";
layers = (
{
anchors = (
{
name = bottom;
position = "{293, 0}";
},
{
name = top;
position = "{293, 550}";
}
);
hints = (
{
horizontal = 1;
origin = "{0, 25}";
target = "{1, 11}";
type = Stem;
},
{
horizontal = 1;
origin = "{1, 5}";
target = "{0, 5}";
type = Stem;
},
{
horizontal = 1;
origin = "{2, 11}";
target = "{3, 11}";
type = Stem;
},
{
horizontal = 1;
origin = "{4, 2}";
target = "{4, 5}";
type = Stem;
},
{
horizontal = 1;
origin = "{3, 5}";
target = "{2, 5}";
type = Stem;
},
{
origin = "{2, 8}";
target = "{3, 2}";
type = Stem;
},
{
origin = "{3, 8}";
target = "{2, 2}";
type = Stem;
},
{
origin = "{0, 15}";
target = "{0, 8}";
type = Stem;
},
{
origin = "{0, 22}";
target = "{1, 2}";
type = Stem;
},
{
origin = "{1, 8}";
target = "{0, 2}";
type = Stem;
}
);
layerId = "5A4BD32C-A1D1-4EB1-A794-47BD06E3B809";
paths = (
{
closed = 1;
nodes = (
"465 -202 OFFCURVE",
"546 -140 OFFCURVE",
"546 -46 CURVE SMOOTH",
"546 47 OFFCURVE",
"460 100 OFFCURVE",
"309 100 CURVE SMOOTH",
"170 100 OFFCURVE",
"148 123 OFFCURVE",
"148 145 CURVE SMOOTH",
"148 165 OFFCURVE",
"164 184 OFFCURVE",
"279 184 CURVE",
"192 217 LINE",
"131 213 OFFCURVE",
"88 181 OFFCURVE",
"88 141 CURVE SMOOTH",
"88 101 OFFCURVE",
"114 70 OFFCURVE",
"154 60 CURVE",
"154 57 LINE",
"96 39 OFFCURVE",
"50 -2 OFFCURVE",
"50 -60 CURVE SMOOTH",
"50 -140 OFFCURVE",
"111 -202 OFFCURVE",
"289 -202 CURVE SMOOTH"
);
},
{
closed = 1;
nodes = (
"179 -146 OFFCURVE",
"121 -112 OFFCURVE",
"121 -52 CURVE SMOOTH",
"121 -1 OFFCURVE",
"165 38 OFFCURVE",
"293 38 CURVE SMOOTH",
"428 38 OFFCURVE",
"475 9 OFFCURVE",
"475 -52 CURVE SMOOTH",
"475 -120 OFFCURVE",
"400 -146 OFFCURVE",
"289 -146 CURVE SMOOTH"
);
},
{
closed = 1;
nodes = (
"412 184 OFFCURVE",
"500 235 OFFCURVE",
"500 376 CURVE SMOOTH",
"500 494 OFFCURVE",
"415 560 OFFCURVE",
"298 560 CURVE SMOOTH",
"141 560 OFFCURVE",
"72 488 OFFCURVE",
"72 364 CURVE SMOOTH",
"72 261 OFFCURVE",
"156 184 OFFCURVE",
"279 184 CURVE SMOOTH"
);
},
{
closed = 1;
nodes = (
"193 240 OFFCURVE",
"142 282 OFFCURVE",
"142 372 CURVE SMOOTH",
"142 462 OFFCURVE",
"184 506 OFFCURVE",
"285 506 CURVE SMOOTH",
"389 506 OFFCURVE",
"429 463 OFFCURVE",
"429 372 CURVE SMOOTH",
"429 282 OFFCURVE",
"393 240 OFFCURVE",
"285 240 CURVE SMOOTH"
);
},
{
closed = 1;
nodes = (
"467 510 OFFCURVE",
"513 515 OFFCURVE",
"563 515 CURVE",
"571 563 OFFCURVE",
"558 579 OFFCURVE",
"530 579 CURVE SMOOTH",
"488 579 OFFCURVE",
"440 553 OFFCURVE",
"406 516 CURVE",
"445 481 LINE"
);
}
);
width = 585;
},
{
anchors = (
{
name = bottom;
position = "{293, 0}";
},
{
name = top;
position = "{293, 550}";
}
);
hints = (
{
horizontal = 1;
origin = "{0, 25}";
target = "{1, 11}";
type = Stem;
},
{
horizontal = 1;
origin = "{1, 5}";
target = "{0, 5}";
type = Stem;
},
{
horizontal = 1;
origin = "{2, 11}";
target = "{3, 11}";
type = Stem;
},
{
horizontal = 1;
origin = "{4, 2}";
target = "{4, 5}";
type = Stem;
},
{
horizontal = 1;
origin = "{3, 5}";
target = "{2, 5}";
type = Stem;
},
{
origin = "{2, 8}";
target = "{3, 2}";
type = Stem;
},
{
origin = "{3, 8}";
target = "{2, 2}";
type = Stem;
},
{
origin = "{0, 15}";
target = "{0, 8}";
type = Stem;
},
{
origin = "{0, 22}";
target = "{1, 2}";
type = Stem;
},
{
origin = "{1, 8}";
target = "{0, 2}";
type = Stem;
}
);
layerId = "FD6510A9-FDB4-489D-9A3E-85E488E95339";
paths = (
{
closed = 1;
nodes = (
"475 -207 OFFCURVE",
"556 -125 OFFCURVE",
"556 -31 CURVE SMOOTH",
"556 62 OFFCURVE",
"480 125 OFFCURVE",
"309 125 CURVE SMOOTH",
"220 125 OFFCURVE",
"198 128 OFFCURVE",
"198 153 CURVE SMOOTH",
"198 178 OFFCURVE",
"220 184 OFFCURVE",
"279 184 CURVE",
"197 217 LINE",
"136 213 OFFCURVE",
"78 183 OFFCURVE",
"78 133 CURVE SMOOTH",
"78 93 OFFCURVE",
"110 65 OFFCURVE",
"164 55 CURVE",
"164 52 LINE",
"82 44 OFFCURVE",
"30 13 OFFCURVE",
"30 -55 CURVE SMOOTH",
"30 -145 OFFCURVE",
"111 -207 OFFCURVE",
"289 -207 CURVE SMOOTH"
);
},
{
closed = 1;
nodes = (
"209 -111 OFFCURVE",
"181 -87 OFFCURVE",
"181 -37 CURVE SMOOTH",
"181 14 OFFCURVE",
"225 33 OFFCURVE",
"293 33 CURVE SMOOTH",
"368 33 OFFCURVE",
"415 14 OFFCURVE",
"415 -37 CURVE SMOOTH",
"415 -85 OFFCURVE",
"370 -111 OFFCURVE",
"289 -111 CURVE SMOOTH"
);
},
{
closed = 1;
nodes = (
"412 184 OFFCURVE",
"520 235 OFFCURVE",
"520 376 CURVE SMOOTH",
"520 494 OFFCURVE",
"415 560 OFFCURVE",
"298 560 CURVE SMOOTH",
"141 560 OFFCURVE",
"52 488 OFFCURVE",
"52 364 CURVE SMOOTH",
"52 261 OFFCURVE",
"156 184 OFFCURVE",
"279 184 CURVE SMOOTH"
);
},
{
closed = 1;
nodes = (
"226 280 OFFCURVE",
"202 312 OFFCURVE",
"202 372 CURVE SMOOTH",
"202 432 OFFCURVE",
"226 466 OFFCURVE",
"285 466 CURVE SMOOTH",
"345 466 OFFCURVE",
"369 433 OFFCURVE",
"369 372 CURVE SMOOTH",
"369 312 OFFCURVE",
"345 280 OFFCURVE",
"285 280 CURVE SMOOTH"
);
},
{
closed = 1;
nodes = (
"487 490 OFFCURVE",
"535 495 OFFCURVE",
"585 495 CURVE",
"585 578 OFFCURVE",
"568 609 OFFCURVE",
"520 609 CURVE SMOOTH",
"468 609 OFFCURVE",
"420 563 OFFCURVE",
"396 526 CURVE",
"465 461 LINE"
);
}
);
width = 585;
},
{
anchors = (
{
name = bottom;
position = "{293, 0}";
},
{
name = top;
position = "{293, 550}";
}
);
hints = (
{
horizontal = 1;
origin = "{0, 25}";
target = "{1, 11}";
type = Stem;
},
{
horizontal = 1;
origin = "{1, 5}";
target = "{0, 5}";
type = Stem;
},
{
horizontal = 1;
origin = "{2, 11}";
target = "{3, 11}";
type = Stem;
},
{
horizontal = 1;
origin = "{4, 2}";
target = "{4, 5}";
type = Stem;
},
{
horizontal = 1;
origin = "{3, 5}";
target = "{2, 5}";
type = Stem;
},
{
origin = "{2, 8}";
target = "{3, 2}";
type = Stem;
},
{
origin = "{3, 8}";
target = "{2, 2}";
type = Stem;
},
{
origin = "{0, 15}";
target = "{0, 8}";
type = Stem;
},
{
origin = "{0, 22}";
target = "{1, 2}";
type = Stem;
},
{
origin = "{1, 8}";
target = "{0, 2}";
type = Stem;
}
);
layerId = "EB12C417-147C-44D3-ABF9-73FB32C0B9E2";
paths = (
{
closed = 1;
nodes = (
"465 -202 OFFCURVE",
"546 -160 OFFCURVE",
"546 -46 CURVE SMOOTH",
"546 37 OFFCURVE",
"460 80 OFFCURVE",
"299 80 CURVE SMOOTH",
"150 80 OFFCURVE",
"118 93 OFFCURVE",
"118 135 CURVE SMOOTH",
"118 175 OFFCURVE",
"164 184 OFFCURVE",
"279 184 CURVE",
"202 207 LINE",
"141 203 OFFCURVE",
"88 191 OFFCURVE",
"88 131 CURVE SMOOTH",
"88 96 OFFCURVE",
"114 74 OFFCURVE",
"154 64 CURVE",
"154 61 LINE",
"81 43 OFFCURVE",
"50 -2 OFFCURVE",
"50 -60 CURVE SMOOTH",
"50 -140 OFFCURVE",
"121 -202 OFFCURVE",
"289 -202 CURVE SMOOTH"
);
},
{
closed = 1;
nodes = (
"149 -166 OFFCURVE",
"91 -132 OFFCURVE",
"91 -52 CURVE SMOOTH",
"91 19 OFFCURVE",
"145 48 OFFCURVE",
"293 48 CURVE SMOOTH",
"428 48 OFFCURVE",
"505 29 OFFCURVE",
"505 -52 CURVE SMOOTH",
"505 -140 OFFCURVE",
"430 -166 OFFCURVE",
"289 -166 CURVE SMOOTH"
);
},
{
closed = 1;
nodes = (
"412 184 OFFCURVE",
"500 235 OFFCURVE",
"500 376 CURVE SMOOTH",
"500 494 OFFCURVE",
"415 560 OFFCURVE",
"298 560 CURVE SMOOTH",
"141 560 OFFCURVE",
"72 488 OFFCURVE",
"72 364 CURVE SMOOTH",
"72 261 OFFCURVE",
"156 184 OFFCURVE",
"279 184 CURVE SMOOTH"
);
},
{
closed = 1;
nodes = (
"193 220 OFFCURVE",
"112 262 OFFCURVE",
"112 372 CURVE SMOOTH",
"112 482 OFFCURVE",
"184 526 OFFCURVE",
"285 526 CURVE SMOOTH",
"389 526 OFFCURVE",
"459 483 OFFCURVE",
"459 372 CURVE SMOOTH",
"459 262 OFFCURVE",
"393 220 OFFCURVE",
"285 220 CURVE SMOOTH"
);
},
{
closed = 1;
nodes = (
"457 530 OFFCURVE",
"503 545 OFFCURVE",
"563 545 CURVE",
"563 570 OFFCURVE",
"558 579 OFFCURVE",
"530 579 CURVE SMOOTH",
"488 579 OFFCURVE",
"440 553 OFFCURVE",
"406 516 CURVE",
"435 501 LINE"
);
}
);
width = 585;
}
);
note = g;
unicode = 0067;
},
{
glyphname = h;
lastChange = "2018-04-30 16:26:27 +0000";
layers = (
{
anchors = (
{
name = bottom;
position = "{315, 0}";
},
{
name = center;
position = "{315, 275}";
},
{
name = top;
position = "{125, 710}";
}
);
hints = (
{
horizontal = 1;
origin = "{1, 3}";
target = up;
type = BottomGhost;
},
{
horizontal = 1;
origin = "{0, 11}";
target = "{0, 4}";
type = Stem;
},
{
origin = "{1, 3}";
target = "{1, 0}";
type = Stem;
},
{
origin = "{0, 15}";
target = "{0, 0}";
type = Stem;
}
);
layerId = "5A4BD32C-A1D1-4EB1-A794-47BD06E3B809";
paths = (
{
closed = 1;
nodes = (
"539 0 LINE",
"539 376 LINE SMOOTH",
"539 487 OFFCURVE",
"469 560 OFFCURVE",
"353 560 CURVE SMOOTH",
"257 560 OFFCURVE",
"186 517 OFFCURVE",
"144 483 CURVE",
"144 415 LINE",
"193 463 OFFCURVE",
"273 504 OFFCURVE",
"347 504 CURVE SMOOTH",
"429 504 OFFCURVE",
"471 454 OFFCURVE",
"471 369 CURVE SMOOTH",
"471 0 LINE"
);
},
{
closed = 1;
nodes = (
"159 0 LINE",
"159 791 LINE",
"91 791 LINE",
"91 0 LINE"
);
}
);
width = 630;
},
{
anchors = (
{
name = bottom;
position = "{315, 0}";
},
{
name = center;
position = "{315, 275}";
},
{
name = top;
position = "{125, 750}";
}
);
hints = (
{
horizontal = 1;
origin = "{1, 3}";
target = up;
type = BottomGhost;
},
{
horizontal = 1;
origin = "{0, 11}";
target = "{0, 4}";
type = Stem;
},
{
origin = "{1, 3}";
target = "{1, 0}";
type = Stem;
},
{
origin = "{0, 15}";
target = "{0, 0}";
type = Stem;
}
);
layerId = "FD6510A9-FDB4-489D-9A3E-85E488E95339";
paths = (
{
closed = 1;
nodes = (
"549 0 LINE",
"549 396 LINE SMOOTH",
"549 487 OFFCURVE",
"499 560 OFFCURVE",
"393 560 CURVE SMOOTH",
"287 560 OFFCURVE",
"201 497 OFFCURVE",
"164 443 CURVE",
"164 365 LINE",
"213 413 OFFCURVE",
"273 454 OFFCURVE",
"337 454 CURVE SMOOTH",
"384 454 OFFCURVE",
"401 429 OFFCURVE",
"401 379 CURVE SMOOTH",
"401 0 LINE"
);
},
{
closed = 1;
nodes = (
"199 0 LINE",
"199 791 LINE",
"51 791 LINE",
"51 0 LINE"
);
}
);
width = 630;
},
{
anchors = (
{
name = bottom;
position = "{315, 0}";
},
{
name = center;
position = "{315, 275}";
},
{
name = top;
position = "{125, 710}";
}
);
hints = (
{
horizontal = 1;
origin = "{1, 3}";
target = up;
type = BottomGhost;
},
{
horizontal = 1;
origin = "{0, 11}";
target = "{0, 4}";
type = Stem;
},
{
origin = "{1, 3}";
target = "{1, 0}";
type = Stem;
},
{
origin = "{0, 15}";
target = "{0, 0}";
type = Stem;
}
);
layerId = "EB12C417-147C-44D3-ABF9-73FB32C0B9E2";
paths = (
{
closed = 1;
nodes = (
"539 0 LINE",
"539 376 LINE SMOOTH",
"539 487 OFFCURVE",
"463 560 OFFCURVE",
"347 560 CURVE SMOOTH",
"241 560 OFFCURVE",
"171 516 OFFCURVE",
"124 483 CURVE",
"124 440 LINE",
"173 478 OFFCURVE",
"257 524 OFFCURVE",
"341 524 CURVE SMOOTH",
"443 524 OFFCURVE",
"499 468 OFFCURVE",
"499 369 CURVE SMOOTH",
"499 0 LINE"
);
},
{
closed = 1;
nodes = (
"131 0 LINE",
"131 791 LINE",
"91 791 LINE",
"91 0 LINE"
);
}
);
width = 630;
}
);
note = h;
unicode = 0068;
},
{
glyphname = k;
lastChange = "2018-04-30 17:49:22 +0000";
layers = (
{
hints = (
{
horizontal = 1;
place = "{-0.75, 15.75}";
type = Stem;
},
{
origin = "{1, 2}";
target = "{1, 3}";
type = Stem;
}
);
layerId = "5A4BD32C-A1D1-4EB1-A794-47BD06E3B809";
paths = (
{
closed = 1;
nodes = (
"205 265 LINE",
"256 265 OFFCURVE",
"290 251 OFFCURVE",
"309 220 CURVE SMOOTH",
"437 15 LINE SMOOTH",
"449 -4 OFFCURVE",
"470 -8 OFFCURVE",
"521 15 CURVE",
"361 259 LINE SMOOTH",
"335 299 OFFCURVE",
"290 316 OFFCURVE",
"239 316 CURVE"
);
},
{
closed = 1;
nodes = (
"159 791 LINE",
"91 791 LINE",
"91 0 LINE",
"159 0 LINE"
);
},
{
closed = 1;
nodes = (
"145 261 LINE",
"205 265 LINE SMOOTH",
"249 268 OFFCURVE",
"285 293 OFFCURVE",
"310 324 CURVE SMOOTH",
"495 550 LINE",
"411 550 LINE",
"261 357 LINE SMOOTH",
"245 336 OFFCURVE",
"227 326 OFFCURVE",
"198 325 CURVE SMOOTH",
"145 323 LINE"
);
}
);
width = 547;
},
{
hints = (
{
horizontal = 1;
place = "{-0.75, 15.75}";
type = Stem;
},
{
origin = "{1, 2}";
target = "{1, 3}";
type = Stem;
}
);
layerId = "FD6510A9-FDB4-489D-9A3E-85E488E95339";
paths = (
{
closed = 1;
nodes = (
"235 224 LINE",
"301 228 OFFCURVE",
"307 207 OFFCURVE",
"329 176 CURVE SMOOTH",
"427 35 LINE SMOOTH",
"456 -7 OFFCURVE",
"490 -18 OFFCURVE",
"601 15 CURVE",
"461 219 LINE SMOOTH",
"414 288 OFFCURVE",
"360 296 OFFCURVE",
"269 296 CURVE"
);
},
{
closed = 1;
nodes = (
"219 791 LINE",
"71 791 LINE",
"71 0 LINE",
"219 0 LINE"
);
},
{
closed = 1;
nodes = (
"195 221 LINE",
"235 224 LINE SMOOTH",
"329 231 OFFCURVE",
"385 261 OFFCURVE",
"440 344 CURVE SMOOTH",
"575 550 LINE",
"411 550 LINE",
"311 387 LINE SMOOTH",
"284 343 OFFCURVE",
"277 328 OFFCURVE",
"228 325 CURVE SMOOTH",
"195 323 LINE"
);
}
);
width = 617;
},
{
hints = (
{
horizontal = 1;
place = "{-0.75, 15.75}";
type = Stem;
},
{
origin = "{1, 2}";
target = "{1, 3}";
type = Stem;
}
);
layerId = "EB12C417-147C-44D3-ABF9-73FB32C0B9E2";
paths = (
{
closed = 1;
nodes = (
"205 271 LINE",
"280 271 OFFCURVE",
"316 263 OFFCURVE",
"349 210 CURVE SMOOTH",
"475 9 LINE SMOOTH",
"484 -5 OFFCURVE",
"500 -6 OFFCURVE",
"521 9 CURVE",
"383 229 LINE SMOOTH",
"346 287 OFFCURVE",
"289 303 OFFCURVE",
"224 303 CURVE"
);
},
{
closed = 1;
nodes = (
"129 791 LINE",
"91 791 LINE",
"91 0 LINE",
"129 0 LINE"
);
},
{
closed = 1;
nodes = (
"115 268 LINE",
"205 271 LINE SMOOTH",
"265 273 OFFCURVE",
"289 293 OFFCURVE",
"322 334 CURVE SMOOTH",
"495 550 LINE",
"450 550 LINE",
"291 351 LINE SMOOTH",
"260 313 OFFCURVE",
"247 306 OFFCURVE",
"198 305 CURVE SMOOTH",
"115 303 LINE"
);
}
);
width = 547;
}
);
note = k;
unicode = 006B;
},
{
glyphname = l;
lastChange = "2018-04-30 16:32:14 +0000";
layers = (
{
anchors = (
{
name = bottom;
position = "{134, 0}";
},
{
name = center;
position = "{134, 275}";
},
{
name = top;
position = "{134, 750}";
},
{
name = topright;
position = "{248, 550}";
}
);
hints = (
{
horizontal = 1;
origin = "{0, 3}";
target = up;
type = BottomGhost;
},
{
origin = "{0, 3}";
target = "{0, 0}";
type = Stem;
}
);
layerId = "5A4BD32C-A1D1-4EB1-A794-47BD06E3B809";
paths = (
{
closed = 1;
nodes = (
"168 0 LINE",
"168 791 LINE",
"100 791 LINE",
"100 0 LINE"
);
}
);
width = 268;
},
{
anchors = (
{
name = bottom;
position = "{134, 0}";
},
{
name = center;
position = "{134, 275}";
},
{
name = top;
position = "{134, 750}";
},
{
name = topright;
position = "{248, 550}";
}
);
hints = (
{
horizontal = 1;
origin = "{0, 3}";
target = up;
type = BottomGhost;
},
{
origin = "{0, 3}";
target = "{0, 0}";
type = Stem;
}
);
layerId = "FD6510A9-FDB4-489D-9A3E-85E488E95339";
paths = (
{
closed = 1;
nodes = (
"208 0 LINE",
"208 791 LINE",
"60 791 LINE",
"60 0 LINE"
);
}
);
width = 268;
},
{
anchors = (
{
name = bottom;
position = "{134, 0}";
},
{
name = center;
position = "{134, 275}";
},
{
name = top;
position = "{134, 750}";
},
{
name = topright;
position = "{248, 550}";
}
);
hints = (
{
horizontal = 1;
origin = "{0, 3}";
target = up;
type = BottomGhost;
},
{
origin = "{0, 3}";
target = "{0, 0}";
type = Stem;
}
);
layerId = "EB12C417-147C-44D3-ABF9-73FB32C0B9E2";
paths = (
{
closed = 1;
nodes = (
"153 0 LINE",
"153 791 LINE",
"115 791 LINE",
"115 0 LINE"
);
}
);
width = 268;
}
);
note = l;
unicode = 006C;
},
{
glyphname = m;
lastChange = "2018-04-30 17:30:19 +0000";
layers = (
{
anchors = (
{
name = bottom;
position = "{456, 0}";
},
{
name = top;
position = "{456, 550}";
}
);
hints = (
{
horizontal = 1;
origin = "{1, 11}";
target = up;
type = BottomGhost;
},
{
horizontal = 1;
origin = "{2, 11}";
target = "{2, 4}";
type = Stem;
},
{
origin = "{1, 11}";
target = "{1, 0}";
type = Stem;
},
{
origin = "{2, 15}";
target = "{2, 0}";
type = Stem;
},
{
origin = "{0, 15}";
target = "{0, 0}";
type = Stem;
}
);
layerId = "5A4BD32C-A1D1-4EB1-A794-47BD06E3B809";
paths = (
{
closed = 1;
nodes = (
"821 0 LINE",
"821 395 LINE SMOOTH",
"821 497 OFFCURVE",
"753 560 OFFCURVE",
"661 560 CURVE SMOOTH",
"569 560 OFFCURVE",
"512 525 OFFCURVE",
"457 465 CURVE",
"471 407 LINE",
"522 471 OFFCURVE",
"582 506 OFFCURVE",
"647 506 CURVE SMOOTH",
"720 506 OFFCURVE",
"752 466 OFFCURVE",
"752 392 CURVE SMOOTH",
"752 0 LINE"
);
},
{
closed = 1;
nodes = (
"160 0 LINE",
"160 491 LINE SMOOTH",
"160 533 OFFCURVE",
"148 549 OFFCURVE",
"131 549 CURVE SMOOTH",
"119 549 OFFCURVE",
"99 543 OFFCURVE",
"80 534 CURVE",
"92 503 OFFCURVE",
"92 398 OFFCURVE",
"92 363 CURVE SMOOTH",
"92 0 LINE"
);
},
{
closed = 1;
nodes = (
"491 0 LINE",
"491 404 LINE SMOOTH",
"491 503 OFFCURVE",
"413 560 OFFCURVE",
"331 560 CURVE SMOOTH",
"244 560 OFFCURVE",
"190 527 OFFCURVE",
"137 468 CURVE",
"142 406 LINE",
"192 465 OFFCURVE",
"245 506 OFFCURVE",
"319 506 CURVE SMOOTH",
"382 506 OFFCURVE",
"423 465 OFFCURVE",
"423 402 CURVE SMOOTH",
"423 0 LINE"
);
}
);
width = 912;
},
{
anchors = (
{
name = bottom;
position = "{456, 0}";
},
{
name = top;
position = "{456, 550}";
}
);
hints = (
{
horizontal = 1;
origin = "{1, 11}";
target = up;
type = BottomGhost;
},
{
horizontal = 1;
origin = "{2, 11}";
target = "{2, 4}";
type = Stem;
},
{
origin = "{1, 11}";
target = "{1, 0}";
type = Stem;
},
{
origin = "{2, 15}";
target = "{2, 0}";
type = Stem;
},
{
origin = "{0, 15}";
target = "{0, 0}";
type = Stem;
}
);
layerId = "FD6510A9-FDB4-489D-9A3E-85E488E95339";
paths = (
{
closed = 1;
nodes = (
"841 0 LINE",
"841 385 LINE SMOOTH",
"841 487 OFFCURVE",
"783 560 OFFCURVE",
"671 560 CURVE SMOOTH",
"589 560 OFFCURVE",
"532 525 OFFCURVE",
"497 465 CURVE",
"511 387 LINE",
"542 441 OFFCURVE",
"582 466 OFFCURVE",
"627 466 CURVE SMOOTH",
"680 466 OFFCURVE",
"692 446 OFFCURVE",
"692 382 CURVE SMOOTH",
"692 0 LINE"
);
},
{
closed = 1;
nodes = (
"220 0 LINE",
"220 451 LINE SMOOTH",
"220 533 OFFCURVE",
"198 550 OFFCURVE",
"161 550 CURVE SMOOTH",
"123 550 OFFCURVE",
"81 536 OFFCURVE",
"60 524 CURVE",
"72 493 OFFCURVE",
"72 408 OFFCURVE",
"72 353 CURVE SMOOTH",
"72 0 LINE"
);
},
{
closed = 1;
nodes = (
"531 0 LINE",
"531 404 LINE SMOOTH",
"531 503 OFFCURVE",
"473 560 OFFCURVE",
"381 560 CURVE SMOOTH",
"294 560 OFFCURVE",
"240 517 OFFCURVE",
"187 448 CURVE",
"192 366 LINE",
"242 435 OFFCURVE",
"285 466 OFFCURVE",
"329 466 CURVE SMOOTH",
"372 466 OFFCURVE",
"383 445 OFFCURVE",
"383 392 CURVE SMOOTH",
"383 0 LINE"
);
}
);
width = 912;
},
{
anchors = (
{
name = bottom;
position = "{456, 0}";
},
{
name = top;
position = "{456, 550}";
}
);
hints = (
{
horizontal = 1;
origin = "{1, 11}";
target = up;
type = BottomGhost;
},
{
horizontal = 1;
origin = "{2, 4}";
target = "{2, 11}";
type = Stem;
},
{
origin = "{1, 11}";
target = "{1, 0}";
type = Stem;
},
{
origin = "{2, 15}";
target = "{2, 0}";
type = Stem;
},
{
origin = "{0, 15}";
target = "{0, 0}";
type = Stem;
}
);
layerId = "EB12C417-147C-44D3-ABF9-73FB32C0B9E2";
paths = (
{
closed = 1;
nodes = (
"821 0 LINE",
"821 395 LINE SMOOTH",
"821 517 OFFCURVE",
"733 560 OFFCURVE",
"641 560 CURVE SMOOTH",
"559 560 OFFCURVE",
"482 520 OFFCURVE",
"437 465 CURVE",
"451 427 LINE",
"502 491 OFFCURVE",
"572 524 OFFCURVE",
"637 524 CURVE SMOOTH",
"720 524 OFFCURVE",
"781 486 OFFCURVE",
"781 392 CURVE SMOOTH",
"781 0 LINE"
);
},
{
closed = 1;
nodes = (
"130 0 LINE",
"130 481 LINE SMOOTH",
"130 523 OFFCURVE",
"126 549 OFFCURVE",
"109 549 CURVE SMOOTH",
"97 549 OFFCURVE",
"87 543 OFFCURVE",
"78 534 CURVE",
"90 523 OFFCURVE",
"90 508 OFFCURVE",
"90 413 CURVE SMOOTH",
"90 0 LINE"
);
},
{
closed = 1;
nodes = (
"471 0 LINE",
"471 394 LINE SMOOTH",
"471 513 OFFCURVE",
"403 560 OFFCURVE",
"321 560 CURVE SMOOTH",
"234 560 OFFCURVE",
"165 517 OFFCURVE",
"117 468 CURVE",
"122 426 LINE",
"172 485 OFFCURVE",
"245 524 OFFCURVE",
"319 524 CURVE SMOOTH",
"392 524 OFFCURVE",
"431 485 OFFCURVE",
"431 392 CURVE SMOOTH",
"431 0 LINE"
);
}
);
width = 912;
}
);
note = m;
unicode = 006D;
},
{
glyphname = n;
lastChange = "2018-04-30 16:25:21 +0000";
layers = (
{
anchors = (
{
name = bottom;
position = "{305, 0}";
},
{
name = top;
position = "{305, 550}";
}
);
hints = (
{
horizontal = 1;
origin = "{1, 11}";
target = up;
type = BottomGhost;
},
{
horizontal = 1;
origin = "{0, 16}";
target = "{0, 9}";
type = Stem;
},
{
horizontal = 1;
origin = "{0, 23}";
target = up;
type = BottomGhost;
},
{
origin = "{1, 11}";
target = "{1, 0}";
type = Stem;
},
{
origin = "{0, 20}";
target = "{0, 5}";
type = Stem;
}
);
layerId = "5A4BD32C-A1D1-4EB1-A794-47BD06E3B809";
paths = (
{
closed = 1;
nodes = (
"495 -5 OFFCURVE",
"514 0 OFFCURVE",
"529 7 CURVE",
"521 31 OFFCURVE",
"520 52 OFFCURVE",
"520 128 CURVE SMOOTH",
"520 372 LINE SMOOTH",
"520 499 OFFCURVE",
"464 560 OFFCURVE",
"349 560 CURVE SMOOTH",
"257 560 OFFCURVE",
"193 520 OFFCURVE",
"139 470 CURVE",
"139 398 LINE",
"202 465 OFFCURVE",
"269 506 OFFCURVE",
"342 506 CURVE SMOOTH",
"419 506 OFFCURVE",
"452 466 OFFCURVE",
"452 373 CURVE SMOOTH",
"452 102 LINE SMOOTH",
"452 18 OFFCURVE",
"457 -5 OFFCURVE",
"477 -5 CURVE SMOOTH"
);
},
{
closed = 1;
nodes = (
"158 0 LINE",
"158 491 LINE SMOOTH",
"158 533 OFFCURVE",
"146 549 OFFCURVE",
"129 549 CURVE SMOOTH",
"117 549 OFFCURVE",
"97 543 OFFCURVE",
"78 534 CURVE",
"90 503 OFFCURVE",
"90 398 OFFCURVE",
"90 363 CURVE SMOOTH",
"90 0 LINE"
);
}
);
width = 610;
},
{
anchors = (
{
name = bottom;
position = "{305, 0}";
},
{
name = top;
position = "{305, 550}";
}
);
hints = (
{
horizontal = 1;
origin = "{1, 11}";
target = up;
type = BottomGhost;
},
{
horizontal = 1;
origin = "{0, 16}";
target = "{0, 9}";
type = Stem;
},
{
horizontal = 1;
origin = "{0, 23}";
target = up;
type = BottomGhost;
},
{
origin = "{1, 11}";
target = "{1, 0}";
type = Stem;
},
{
origin = "{0, 20}";
target = "{0, 5}";
type = Stem;
}
);
layerId = "FD6510A9-FDB4-489D-9A3E-85E488E95339";
paths = (
{
closed = 1;
nodes = (
"485 -5 OFFCURVE",
"524 4 OFFCURVE",
"559 17 CURVE",
"546 41 OFFCURVE",
"540 62 OFFCURVE",
"540 138 CURVE SMOOTH",
"540 372 LINE SMOOTH",
"540 499 OFFCURVE",
"484 560 OFFCURVE",
"369 560 CURVE SMOOTH",
"277 560 OFFCURVE",
"213 490 OFFCURVE",
"159 440 CURVE",
"159 358 LINE",
"212 415 OFFCURVE",
"269 456 OFFCURVE",
"322 456 CURVE SMOOTH",
"379 456 OFFCURVE",
"392 426 OFFCURVE",
"392 363 CURVE SMOOTH",
"392 102 LINE SMOOTH",
"392 18 OFFCURVE",
"407 -5 OFFCURVE",
"437 -5 CURVE SMOOTH"
);
},
{
closed = 1;
nodes = (
"208 0 LINE",
"208 496 LINE SMOOTH",
"208 538 OFFCURVE",
"196 554 OFFCURVE",
"169 554 CURVE SMOOTH",
"127 554 OFFCURVE",
"77 540 OFFCURVE",
"48 531 CURVE",
"60 490 OFFCURVE",
"60 425 OFFCURVE",
"60 370 CURVE SMOOTH",
"60 0 LINE"
);
}
);
width = 610;
},
{
anchors = (
{
name = bottom;
position = "{305, 0}";
},
{
name = top;
position = "{305, 550}";
}
);
hints = (
{
horizontal = 1;
origin = "{1, 11}";
target = up;
type = BottomGhost;
},
{
horizontal = 1;
origin = "{0, 16}";
target = "{0, 9}";
type = Stem;
},
{
horizontal = 1;
origin = "{0, 23}";
target = up;
type = BottomGhost;
},
{
origin = "{1, 11}";
target = "{1, 0}";
type = Stem;
},
{
origin = "{0, 20}";
target = "{0, 5}";
type = Stem;
}
);
layerId = "EB12C417-147C-44D3-ABF9-73FB32C0B9E2";
paths = (
{
closed = 1;
nodes = (
"524 -5 OFFCURVE",
"535 0 OFFCURVE",
"540 7 CURVE",
"526 26 OFFCURVE",
"520 42 OFFCURVE",
"520 108 CURVE SMOOTH",
"520 372 LINE SMOOTH",
"520 499 OFFCURVE",
"464 560 OFFCURVE",
"349 560 CURVE SMOOTH",
"257 560 OFFCURVE",
"173 512 OFFCURVE",
"119 462 CURVE",
"119 418 LINE",
"182 485 OFFCURVE",
"269 526 OFFCURVE",
"342 526 CURVE SMOOTH",
"429 526 OFFCURVE",
"480 486 OFFCURVE",
"480 373 CURVE SMOOTH",
"480 102 LINE SMOOTH",
"480 28 OFFCURVE",
"491 -5 OFFCURVE",
"516 -5 CURVE SMOOTH"
);
},
{
closed = 1;
nodes = (
"130 0 LINE",
"130 481 LINE SMOOTH",
"130 523 OFFCURVE",
"126 549 OFFCURVE",
"109 549 CURVE SMOOTH",
"97 549 OFFCURVE",
"87 543 OFFCURVE",
"78 534 CURVE",
"90 523 OFFCURVE",
"90 508 OFFCURVE",
"90 413 CURVE SMOOTH",
"90 0 LINE"
);
}
);
width = 610;
}
);
note = n;
unicode = 006E;
},
{
glyphname = o;
lastChange = "2018-04-30 16:23:34 +0000";
layers = (
{
anchors = (
{
name = bottom;
position = "{274, 0}";
},
{
name = center;
position = "{274, 275}";
},
{
name = ogonek;
position = "{359, 10}";
},
{
name = top;
position = "{274, 550}";
},
{
name = topright;
position = "{413, 474}";
}
);
hints = (
{
horizontal = 1;
origin = "{0, 11}";
target = "{1, 11}";
type = Stem;
},
{
horizontal = 1;
origin = "{1, 5}";
target = "{0, 5}";
type = Stem;
},
{
origin = "{0, 8}";
target = "{1, 2}";
type = Stem;
},
{
origin = "{1, 8}";
target = "{0, 2}";
type = Stem;
}
);
layerId = "5A4BD32C-A1D1-4EB1-A794-47BD06E3B809";
paths = (
{
closed = 1;
nodes = (
"442 -12 OFFCURVE",
"508 101 OFFCURVE",
"508 275 CURVE SMOOTH",
"508 449 OFFCURVE",
"442 560 OFFCURVE",
"274 560 CURVE SMOOTH",
"106 560 OFFCURVE",
"40 449 OFFCURVE",
"40 275 CURVE SMOOTH",
"40 101 OFFCURVE",
"106 -12 OFFCURVE",
"274 -12 CURVE SMOOTH"
);
},
{
closed = 1;
nodes = (
"151 44 OFFCURVE",
"110 130 OFFCURVE",
"110 275 CURVE SMOOTH",
"110 419 OFFCURVE",
"151 504 OFFCURVE",
"274 504 CURVE SMOOTH",
"396 504 OFFCURVE",
"438 419 OFFCURVE",
"438 275 CURVE SMOOTH",
"438 130 OFFCURVE",
"396 44 OFFCURVE",
"274 44 CURVE SMOOTH"
);
}
);
width = 548;
},
{
anchors = (
{
name = bottom;
position = "{284, 0}";
},
{
name = center;
position = "{284, 275}";
},
{
name = ogonek;
position = "{369, 10}";
},
{
name = top;
position = "{284, 550}";
},
{
name = topright;
position = "{423, 474}";
}
);
hints = (
{
horizontal = 1;
origin = "{0, 11}";
target = "{1, 11}";
type = Stem;
},
{
horizontal = 1;
origin = "{1, 5}";
target = "{0, 5}";
type = Stem;
},
{
origin = "{0, 8}";
target = "{1, 2}";
type = Stem;
},
{
origin = "{1, 8}";
target = "{0, 2}";
type = Stem;
}
);
layerId = "FD6510A9-FDB4-489D-9A3E-85E488E95339";
paths = (
{
closed = 1;
nodes = (
"452 -12 OFFCURVE",
"538 101 OFFCURVE",
"538 275 CURVE SMOOTH",
"538 449 OFFCURVE",
"452 560 OFFCURVE",
"284 560 CURVE SMOOTH",
"116 560 OFFCURVE",
"30 449 OFFCURVE",
"30 275 CURVE SMOOTH",
"30 101 OFFCURVE",
"116 -12 OFFCURVE",
"284 -12 CURVE SMOOTH"
);
},
{
closed = 1;
nodes = (
"211 84 OFFCURVE",
"180 140 OFFCURVE",
"180 275 CURVE SMOOTH",
"180 409 OFFCURVE",
"211 464 OFFCURVE",
"284 464 CURVE SMOOTH",
"356 464 OFFCURVE",
"388 409 OFFCURVE",
"388 275 CURVE SMOOTH",
"388 140 OFFCURVE",
"356 84 OFFCURVE",
"284 84 CURVE SMOOTH"
);
}
);
width = 568;
},
{
anchors = (
{
name = bottom;
position = "{274, 0}";
},
{
name = center;
position = "{274, 275}";
},
{
name = ogonek;
position = "{359, 10}";
},
{
name = top;
position = "{274, 550}";
},
{
name = topright;
position = "{413, 474}";
}
);
hints = (
{
horizontal = 1;
origin = "{0, 11}";
target = "{1, 11}";
type = Stem;
},
{
horizontal = 1;
origin = "{1, 5}";
target = "{0, 5}";
type = Stem;
},
{
origin = "{0, 8}";
target = "{1, 2}";
type = Stem;
},
{
origin = "{1, 8}";
target = "{0, 2}";
type = Stem;
}
);
layerId = "EB12C417-147C-44D3-ABF9-73FB32C0B9E2";
paths = (
{
closed = 1;
nodes = (
"442 -12 OFFCURVE",
"508 101 OFFCURVE",
"508 275 CURVE SMOOTH",
"508 449 OFFCURVE",
"442 560 OFFCURVE",
"274 560 CURVE SMOOTH",
"106 560 OFFCURVE",
"40 449 OFFCURVE",
"40 275 CURVE SMOOTH",
"40 101 OFFCURVE",
"106 -12 OFFCURVE",
"274 -12 CURVE SMOOTH"
);
},
{
closed = 1;
nodes = (
"141 24 OFFCURVE",
"80 110 OFFCURVE",
"80 275 CURVE SMOOTH",
"80 439 OFFCURVE",
"141 524 OFFCURVE",
"274 524 CURVE SMOOTH",
"406 524 OFFCURVE",
"468 439 OFFCURVE",
"468 275 CURVE SMOOTH",
"468 110 OFFCURVE",
"406 24 OFFCURVE",
"274 24 CURVE SMOOTH"
);
}
);
width = 548;
}
);
note = o;
unicode = 006F;
},
{
glyphname = p;
lastChange = "2018-04-30 17:19:11 +0000";
layers = (
{
hints = (
{
horizontal = 1;
origin = "{0, 25}";
target = "{0, 18}";
type = Stem;
},
{
horizontal = 1;
origin = "{0, 12}";
target = "{0, 5}";
type = Stem;
},
{
origin = "{1, 11}";
target = "{1, 0}";
type = Stem;
},
{
origin = "{0, 15}";
target = "{0, 2}";
type = Stem;
}
);
layerId = "5A4BD32C-A1D1-4EB1-A794-47BD06E3B809";
paths = (
{
closed = 1;
nodes = (
"453 -12 OFFCURVE",
"558 90 OFFCURVE",
"558 275 CURVE SMOOTH",
"558 479 OFFCURVE",
"460 560 OFFCURVE",
"328 560 CURVE SMOOTH",
"252 560 OFFCURVE",
"180 525 OFFCURVE",
"134 462 CURVE",
"136 393 LINE",
"176 450 OFFCURVE",
"241 504 OFFCURVE",
"328 504 CURVE SMOOTH",
"433 504 OFFCURVE",
"486 428 OFFCURVE",
"486 275 CURVE SMOOTH",
"486 122 OFFCURVE",
"415 44 OFFCURVE",
"305 44 CURVE SMOOTH",
"238 44 OFFCURVE",
"169 62 OFFCURVE",
"129 94 CURVE",
"129 32 LINE",
"160 10 OFFCURVE",
"225 -12 OFFCURVE",
"305 -12 CURVE SMOOTH"
);
},
{
closed = 1;
nodes = (
"160 -220 LINE",
"160 491 LINE SMOOTH",
"160 533 OFFCURVE",
"148 549 OFFCURVE",
"131 549 CURVE SMOOTH",
"119 549 OFFCURVE",
"99 543 OFFCURVE",
"80 534 CURVE",
"92 503 OFFCURVE",
"92 398 OFFCURVE",
"92 363 CURVE SMOOTH",
"92 -220 LINE"
);
}
);
width = 598;
},
{
hints = (
{
horizontal = 1;
origin = "{0, 25}";
target = "{0, 22}";
type = Stem;
},
{
horizontal = 1;
origin = "{0, 8}";
target = "{0, 5}";
type = Stem;
},
{
origin = "{1, 11}";
target = "{1, 4}";
type = Stem;
},
{
origin = "{0, 15}";
target = "{0, 2}";
type = Stem;
}
);
layerId = "FD6510A9-FDB4-489D-9A3E-85E488E95339";
paths = (
{
closed = 1;
nodes = (
"459 -12 OFFCURVE",
"570 69 OFFCURVE",
"570 272 CURVE SMOOTH",
"570 451 OFFCURVE",
"489 560 OFFCURVE",
"358 560 CURVE SMOOTH",
"272 560 OFFCURVE",
"224 521 OFFCURVE",
"195 488 CURVE",
"199 391 LINE",
"211 430 OFFCURVE",
"271 466 OFFCURVE",
"322 466 CURVE SMOOTH",
"383 466 OFFCURVE",
"420 419 OFFCURVE",
"420 272 CURVE SMOOTH",
"420 122 OFFCURVE",
"368 84 OFFCURVE",
"292 84 CURVE SMOOTH",
"248 84 OFFCURVE",
"211 100 OFFCURVE",
"184 119 CURVE",
"184 16 LINE",
"211 7 OFFCURVE",
"257 -12 OFFCURVE",
"317 -12 CURVE SMOOTH"
);
},
{
closed = 1;
nodes = (
"211 -228 LINE",
"211 407 LINE SMOOTH",
"211 501 OFFCURVE",
"198 560 OFFCURVE",
"149 560 CURVE SMOOTH",
"103 560 OFFCURVE",
"58 542 OFFCURVE",
"30 526 CURVE",
"57 491 OFFCURVE",
"63 452 OFFCURVE",
"63 346 CURVE SMOOTH",
"63 -228 LINE"
);
}
);
width = 598;
},
{
hints = (
{
horizontal = 1;
origin = "{0, 25}";
target = "{0, 18}";
type = Stem;
},
{
horizontal = 1;
origin = "{0, 12}";
target = "{0, 5}";
type = Stem;
},
{
origin = "{1, 11}";
target = "{1, 0}";
type = Stem;
},
{
origin = "{0, 15}";
target = "{0, 2}";
type = Stem;
}
);
layerId = "EB12C417-147C-44D3-ABF9-73FB32C0B9E2";
paths = (
{
closed = 1;
nodes = (
"458 -12 OFFCURVE",
"558 90 OFFCURVE",
"558 275 CURVE SMOOTH",
"558 479 OFFCURVE",
"460 560 OFFCURVE",
"318 560 CURVE SMOOTH",
"242 560 OFFCURVE",
"160 524 OFFCURVE",
"114 462 CURVE",
"116 413 LINE",
"156 470 OFFCURVE",
"231 524 OFFCURVE",
"318 524 CURVE SMOOTH",
"433 524 OFFCURVE",
"518 448 OFFCURVE",
"518 275 CURVE SMOOTH",
"518 102 OFFCURVE",
"420 24 OFFCURVE",
"310 24 CURVE SMOOTH",
"229 24 OFFCURVE",
"159 53 OFFCURVE",
"109 89 CURVE",
"109 47 LINE",
"150 21 OFFCURVE",
"216 -12 OFFCURVE",
"310 -12 CURVE SMOOTH"
);
},
{
closed = 1;
nodes = (
"130 -220 LINE",
"130 492 LINE SMOOTH",
"130 534 OFFCURVE",
"123 552 OFFCURVE",
"106 552 CURVE SMOOTH",
"96 552 OFFCURVE",
"85 546 OFFCURVE",
"80 541 CURVE",
"92 520 OFFCURVE",
"92 498 OFFCURVE",
"92 413 CURVE SMOOTH",
"92 -220 LINE"
);
}
);
width = 598;
}
);
note = p;
unicode = 0070;
},
{
glyphname = q;
lastChange = "2018-04-30 17:22:50 +0000";
layers = (
{
hints = (
{
horizontal = 1;
origin = "{0, 25}";
target = "{0, 6}";
type = Stem;
},
{
horizontal = 1;
origin = "{0, 12}";
target = "{0, 19}";
type = Stem;
},
{
origin = "{0, 22}";
target = "{0, 9}";
type = Stem;
},
{
origin = "{1, 11}";
target = "{1, 0}";
type = Stem;
}
);
layerId = "5A4BD32C-A1D1-4EB1-A794-47BD06E3B809";
paths = (
{
closed = 1;
nodes = (
"358 -12 OFFCURVE",
"392 2 OFFCURVE",
"457 40 CURVE",
"457 103 LINE",
"411 60 OFFCURVE",
"363 40 OFFCURVE",
"292 40 CURVE SMOOTH",
"168 40 OFFCURVE",
"111 120 OFFCURVE",
"111 277 CURVE SMOOTH",
"111 416 OFFCURVE",
"165 507 OFFCURVE",
"281 507 CURVE SMOOTH",
"354 507 OFFCURVE",
"413 473 OFFCURVE",
"458 404 CURVE",
"467 478 LINE",
"409 537 OFFCURVE",
"362 560 OFFCURVE",
"276 560 CURVE SMOOTH",
"144 560 OFFCURVE",
"40 470 OFFCURVE",
"40 277 CURVE SMOOTH",
"40 88 OFFCURVE",
"135 -12 OFFCURVE",
"275 -12 CURVE SMOOTH"
);
},
{
closed = 1;
nodes = (
"507 -220 LINE",
"507 357 LINE SMOOTH",
"507 406 OFFCURVE",
"514 503 OFFCURVE",
"526 534 CURVE",
"502 546 OFFCURVE",
"499 549 OFFCURVE",
"475 549 CURVE SMOOTH",
"453 549 OFFCURVE",
"439 508 OFFCURVE",
"439 425 CURVE SMOOTH",
"439 -220 LINE"
);
}
);
width = 608;
},
{
hints = (
{
horizontal = 1;
origin = "{0, 25}";
target = "{0, 6}";
type = Stem;
},
{
horizontal = 1;
origin = "{0, 12}";
target = "{0, 19}";
type = Stem;
},
{
origin = "{0, 22}";
target = "{0, 9}";
type = Stem;
},
{
origin = "{1, 11}";
target = "{1, 0}";
type = Stem;
}
);
layerId = "FD6510A9-FDB4-489D-9A3E-85E488E95339";
paths = (
{
closed = 1;
nodes = (
"333 -12 OFFCURVE",
"380 30 OFFCURVE",
"406 81 CURVE",
"404 194 LINE",
"373 117 OFFCURVE",
"332 84 OFFCURVE",
"278 84 CURVE SMOOTH",
"222 84 OFFCURVE",
"180 122 OFFCURVE",
"180 272 CURVE SMOOTH",
"180 419 OFFCURVE",
"227 466 OFFCURVE",
"288 466 CURVE SMOOTH",
"339 466 OFFCURVE",
"379 439 OFFCURVE",
"401 391 CURVE",
"405 488 LINE",
"386 531 OFFCURVE",
"338 560 OFFCURVE",
"252 560 CURVE SMOOTH",
"121 560 OFFCURVE",
"30 451 OFFCURVE",
"30 272 CURVE SMOOTH",
"30 69 OFFCURVE",
"131 -12 OFFCURVE",
"253 -12 CURVE SMOOTH"
);
},
{
closed = 1;
nodes = (
"537 -228 LINE",
"537 346 LINE SMOOTH",
"537 452 OFFCURVE",
"543 491 OFFCURVE",
"570 526 CURVE",
"542 542 OFFCURVE",
"497 560 OFFCURVE",
"451 560 CURVE SMOOTH",
"402 560 OFFCURVE",
"389 501 OFFCURVE",
"389 407 CURVE SMOOTH",
"389 -228 LINE"
);
}
);
width = 608;
},
{
hints = (
{
horizontal = 1;
origin = "{0, 25}";
target = "{0, 6}";
type = Stem;
},
{
horizontal = 1;
origin = "{0, 12}";
target = "{0, 19}";
type = Stem;
},
{
origin = "{0, 22}";
target = "{0, 9}";
type = Stem;
},
{
origin = "{1, 11}";
target = "{1, 0}";
type = Stem;
}
);
layerId = "EB12C417-147C-44D3-ABF9-73FB32C0B9E2";
paths = (
{
closed = 1;
nodes = (
"378 -12 OFFCURVE",
"452 20 OFFCURVE",
"487 60 CURVE",
"487 103 LINE",
"441 53 OFFCURVE",
"383 24 OFFCURVE",
"295 24 CURVE SMOOTH",
"178 24 OFFCURVE",
"90 110 OFFCURVE",
"90 277 CURVE SMOOTH",
"90 446 OFFCURVE",
"185 524 OFFCURVE",
"295 524 CURVE SMOOTH",
"368 524 OFFCURVE",
"440 496 OFFCURVE",
"488 429 CURVE",
"497 474 LINE",
"440 530 OFFCURVE",
"382 560 OFFCURVE",
"295 560 CURVE SMOOTH",
"164 560 OFFCURVE",
"50 470 OFFCURVE",
"50 277 CURVE SMOOTH",
"50 88 OFFCURVE",
"155 -12 OFFCURVE",
"295 -12 CURVE SMOOTH"
);
},
{
closed = 1;
nodes = (
"507 -220 LINE",
"507 420 LINE SMOOTH",
"507 479 OFFCURVE",
"514 514 OFFCURVE",
"526 539 CURVE",
"520 543 OFFCURVE",
"511 550 OFFCURVE",
"500 550 CURVE SMOOTH",
"478 550 OFFCURVE",
"469 515 OFFCURVE",
"469 432 CURVE SMOOTH",
"469 -220 LINE"
);
}
);
width = 608;
}
);
note = q;
unicode = 0071;
},
{
glyphname = r;
lastChange = "2018-04-30 17:24:34 +0000";
layers = (
{
anchors = (
{
name = bottom;
position = "{119, 0}";
},
{
name = top;
position = "{200, 550}";
}
);
hints = (
{
horizontal = 1;
origin = "{0, 20}";
target = up;
type = BottomGhost;
},
{
horizontal = 1;
origin = "{0, 4}";
target = "{0, 13}";
type = Stem;
},
{
origin = "{0, 20}";
target = "{0, 0}";
type = Stem;
}
);
layerId = "5A4BD32C-A1D1-4EB1-A794-47BD06E3B809";
paths = (
{
closed = 1;
nodes = (
"153 0 LINE",
"153 303 LINE SMOOTH",
"153 442 OFFCURVE",
"231 495 OFFCURVE",
"301 495 CURVE SMOOTH",
"330 495 OFFCURVE",
"354 489 OFFCURVE",
"367 482 CURVE",
"374 490 OFFCURVE",
"378 500 OFFCURVE",
"378 511 CURVE SMOOTH",
"378 544 OFFCURVE",
"348 557 OFFCURVE",
"306 557 CURVE SMOOTH",
"223 557 OFFCURVE",
"142 475 OFFCURVE",
"134 385 CURVE",
"153 383 LINE",
"153 550 LINE",
"85 550 LINE",
"85 0 LINE"
);
}
);
width = 400;
},
{
anchors = (
{
name = bottom;
position = "{139, 0}";
},
{
name = top;
position = "{220, 550}";
}
);
hints = (
{
horizontal = 1;
origin = "{0, 20}";
target = up;
type = BottomGhost;
},
{
horizontal = 1;
origin = "{0, 4}";
target = "{0, 13}";
type = Stem;
},
{
origin = "{0, 20}";
target = "{0, 0}";
type = Stem;
}
);
layerId = "FD6510A9-FDB4-489D-9A3E-85E488E95339";
paths = (
{
closed = 1;
nodes = (
"213 0 LINE",
"213 263 LINE SMOOTH",
"213 392 OFFCURVE",
"271 425 OFFCURVE",
"341 425 CURVE SMOOTH",
"380 425 OFFCURVE",
"396 421 OFFCURVE",
"411 412 CURVE",
"421 424 OFFCURVE",
"428 448 OFFCURVE",
"428 471 CURVE SMOOTH",
"428 529 OFFCURVE",
"402 557 OFFCURVE",
"336 557 CURVE SMOOTH",
"253 557 OFFCURVE",
"192 485 OFFCURVE",
"184 365 CURVE",
"213 363 LINE",
"213 550 LINE",
"65 550 LINE",
"65 0 LINE"
);
}
);
width = 440;
},
{
anchors = (
{
name = bottom;
position = "{119, 0}";
},
{
name = top;
position = "{200, 550}";
}
);
hints = (
{
horizontal = 1;
origin = "{0, 20}";
target = up;
type = BottomGhost;
},
{
horizontal = 1;
origin = "{0, 4}";
target = "{0, 13}";
type = Stem;
},
{
origin = "{0, 20}";
target = "{0, 0}";
type = Stem;
}
);
layerId = "EB12C417-147C-44D3-ABF9-73FB32C0B9E2";
paths = (
{
closed = 1;
nodes = (
"123 0 LINE",
"123 307 LINE SMOOTH",
"123 446 OFFCURVE",
"218 519 OFFCURVE",
"298 519 CURVE SMOOTH",
"330 519 OFFCURVE",
"352 513 OFFCURVE",
"367 503 CURVE",
"373 506 OFFCURVE",
"378 512 OFFCURVE",
"378 522 CURVE SMOOTH",
"378 545 OFFCURVE",
"345 557 OFFCURVE",
"303 557 CURVE SMOOTH",
"208 557 OFFCURVE",
"116 475 OFFCURVE",
"108 375 CURVE",
"123 373 LINE",
"123 550 LINE",
"85 550 LINE",
"85 0 LINE"
);
}
);
width = 400;
}
);
note = r;
unicode = 0072;
},
{
glyphname = s;
lastChange = "2018-04-30 17:28:25 +0000";
layers = (
{
anchors = (
{
name = bottom;
position = "{243, 0}";
},
{
name = top;
position = "{243, 550}";
}
);
hints = (
{
horizontal = 1;
origin = "{0, 38}";
target = "{0, 29}";
type = Stem;
},
{
horizontal = 1;
place = "{256.29, 56.54}";
type = Stem;
},
{
horizontal = 1;
place = "{437.35, 24.65}";
type = Stem;
},
{
horizontal = 1;
origin = "{0, 8}";
target = "{0, 20}";
type = Stem;
},
{
origin = "{0, 23}";
target = "{0, 5}";
type = Stem;
},
{
origin = "{0, 26}";
target = "{0, 2}";
type = Stem;
}
);
layerId = "5A4BD32C-A1D1-4EB1-A794-47BD06E3B809";
paths = (
{
closed = 1;
nodes = (
"360 -12 OFFCURVE",
"445 48 OFFCURVE",
"445 151 CURVE SMOOTH",
"445 360 OFFCURVE",
"121 269 OFFCURVE",
"121 408 CURVE SMOOTH",
"121 477 OFFCURVE",
"168 506 OFFCURVE",
"232 506 CURVE SMOOTH",
"293 506 OFFCURVE",
"333 487 OFFCURVE",
"364 451 CURVE SMOOTH",
"372 442 OFFCURVE",
"380 437 OFFCURVE",
"389 437 CURVE SMOOTH",
"401 437 OFFCURVE",
"414 445 OFFCURVE",
"430 462 CURVE",
"390 527 OFFCURVE",
"317 560 OFFCURVE",
"235 560 CURVE SMOOTH",
"153 560 OFFCURVE",
"53 513 OFFCURVE",
"53 405 CURVE SMOOTH",
"53 212 OFFCURVE",
"377 298 OFFCURVE",
"377 151 CURVE SMOOTH",
"377 89 OFFCURVE",
"335 44 OFFCURVE",
"249 44 CURVE SMOOTH",
"169 44 OFFCURVE",
"117 72 OFFCURVE",
"70 134 CURVE",
"53 129 OFFCURVE",
"40 113 OFFCURVE",
"40 96 CURVE SMOOTH",
"40 38 OFFCURVE",
"155 -12 OFFCURVE",
"245 -12 CURVE SMOOTH"
);
}
);
width = 485;
},
{
anchors = (
{
name = bottom;
position = "{243, 0}";
},
{
name = top;
position = "{243, 550}";
}
);
hints = (
{
horizontal = 1;
origin = "{0, 38}";
target = "{0, 29}";
type = Stem;
},
{
horizontal = 1;
place = "{256.29, 56.54}";
type = Stem;
},
{
horizontal = 1;
place = "{437.35, 24.65}";
type = Stem;
},
{
horizontal = 1;
origin = "{0, 8}";
target = "{0, 20}";
type = Stem;
},
{
origin = "{0, 23}";
target = "{0, 5}";
type = Stem;
},
{
origin = "{0, 26}";
target = "{0, 2}";
type = Stem;
}
);
layerId = "FD6510A9-FDB4-489D-9A3E-85E488E95339";
paths = (
{
closed = 1;
nodes = (
"390 -12 OFFCURVE",
"475 48 OFFCURVE",
"475 161 CURVE SMOOTH",
"475 360 OFFCURVE",
"181 299 OFFCURVE",
"181 408 CURVE SMOOTH",
"181 447 OFFCURVE",
"203 466 OFFCURVE",
"252 466 CURVE SMOOTH",
"315 466 OFFCURVE",
"339 445 OFFCURVE",
"364 414 CURVE SMOOTH",
"372 404 OFFCURVE",
"384 401 OFFCURVE",
"396 401 CURVE SMOOTH",
"421 401 OFFCURVE",
"451 418 OFFCURVE",
"470 452 CURVE",
"430 517 OFFCURVE",
"377 560 OFFCURVE",
"245 560 CURVE SMOOTH",
"133 560 OFFCURVE",
"43 503 OFFCURVE",
"43 405 CURVE SMOOTH",
"43 202 OFFCURVE",
"337 248 OFFCURVE",
"337 151 CURVE SMOOTH",
"337 114 OFFCURVE",
"315 84 OFFCURVE",
"249 84 CURVE SMOOTH",
"179 84 OFFCURVE",
"137 112 OFFCURVE",
"110 164 CURVE",
"59 161 OFFCURVE",
"34 131 OFFCURVE",
"34 95 CURVE SMOOTH",
"34 34 OFFCURVE",
"112 -12 OFFCURVE",
"245 -12 CURVE SMOOTH"
);
}
);
width = 505;
},
{
anchors = (
{
name = bottom;
position = "{243, 0}";
},
{
name = top;
position = "{243, 550}";
}
);
hints = (
{
horizontal = 1;
origin = "{0, 38}";
target = "{0, 29}";
type = Stem;
},
{
horizontal = 1;
place = "{256.29, 56.54}";
type = Stem;
},
{
horizontal = 1;
place = "{437.35, 24.65}";
type = Stem;
},
{
horizontal = 1;
origin = "{0, 8}";
target = "{0, 20}";
type = Stem;
},
{
origin = "{0, 23}";
target = "{0, 5}";
type = Stem;
},
{
origin = "{0, 26}";
target = "{0, 2}";
type = Stem;
}
);
layerId = "EB12C417-147C-44D3-ABF9-73FB32C0B9E2";
paths = (
{
closed = 1;
nodes = (
"360 -12 OFFCURVE",
"445 42 OFFCURVE",
"445 145 CURVE SMOOTH",
"445 344 OFFCURVE",
"93 255 OFFCURVE",
"93 419 CURVE SMOOTH",
"93 494 OFFCURVE",
"163 524 OFFCURVE",
"242 524 CURVE SMOOTH",
"312 524 OFFCURVE",
"352 492 OFFCURVE",
"383 451 CURVE SMOOTH",
"390 442 OFFCURVE",
"395 437 OFFCURVE",
"404 437 CURVE SMOOTH",
"416 437 OFFCURVE",
"420 442 OFFCURVE",
"430 452 CURVE",
"390 517 OFFCURVE",
"332 560 OFFCURVE",
"240 560 CURVE SMOOTH",
"148 560 OFFCURVE",
"53 520 OFFCURVE",
"53 416 CURVE SMOOTH",
"53 218 OFFCURVE",
"405 312 OFFCURVE",
"405 145 CURVE SMOOTH",
"405 64 OFFCURVE",
"344 24 OFFCURVE",
"249 24 CURVE SMOOTH",
"139 24 OFFCURVE",
"86 66 OFFCURVE",
"60 120 CURVE",
"48 118 OFFCURVE",
"40 108 OFFCURVE",
"40 96 CURVE SMOOTH",
"40 38 OFFCURVE",
"135 -12 OFFCURVE",
"245 -12 CURVE SMOOTH"
);
}
);
width = 485;
}
);
note = s;
unicode = 0073;
},
{
glyphname = t;
lastChange = "2018-04-30 16:29:14 +0000";
layers = (
{
anchors = (
{
name = bottom;
position = "{249, 0}";
},
{
name = center;
position = "{190, 278}";
},
{
name = top;
position = "{150, 660}";
},
{
name = topright;
position = "{328, 630}";
}
);
hints = (
{
horizontal = 1;
origin = "{0, 20}";
target = "{0, 11}";
type = Stem;
},
{
horizontal = 1;
origin = "{1, 3}";
target = "{1, 2}";
type = Stem;
},
{
horizontal = 1;
origin = "{0, 16}";
target = down;
type = TopGhost;
},
{
origin = "{0, 17}";
target = "{0, 14}";
type = Stem;
}
);
layerId = "5A4BD32C-A1D1-4EB1-A794-47BD06E3B809";
paths = (
{
closed = 1;
nodes = (
"291 -12 OFFCURVE",
"322 -7 OFFCURVE",
"342 4 CURVE SMOOTH",
"354 10 OFFCURVE",
"358 21 OFFCURVE",
"358 31 CURVE SMOOTH",
"358 45 OFFCURVE",
"351 59 OFFCURVE",
"342 65 CURVE",
"320 56 OFFCURVE",
"288 48 OFFCURVE",
"256 48 CURVE SMOOTH",
"213 48 OFFCURVE",
"184 71 OFFCURVE",
"184 132 CURVE SMOOTH",
"184 700 LINE",
"116 700 LINE",
"116 119 LINE SMOOTH",
"116 37 OFFCURVE",
"174 -12 OFFCURVE",
"259 -12 CURVE SMOOTH"
);
},
{
closed = 1;
nodes = (
"328 496 LINE",
"328 550 LINE",
"12 550 LINE",
"12 496 LINE"
);
}
);
width = 374;
},
{
anchors = (
{
name = bottom;
position = "{249, 0}";
},
{
name = center;
position = "{210, 278}";
},
{
name = top;
position = "{170, 660}";
},
{
name = topright;
position = "{348, 630}";
}
);
hints = (
{
horizontal = 1;
origin = "{0, 20}";
target = "{0, 11}";
type = Stem;
},
{
horizontal = 1;
origin = "{1, 3}";
target = "{1, 2}";
type = Stem;
},
{
horizontal = 1;
origin = "{0, 16}";
target = down;
type = TopGhost;
},
{
origin = "{0, 17}";
target = "{0, 14}";
type = Stem;
}
);
layerId = "FD6510A9-FDB4-489D-9A3E-85E488E95339";
paths = (
{
closed = 1;
nodes = (
"311 -12 OFFCURVE",
"362 3 OFFCURVE",
"382 24 CURVE SMOOTH",
"391 33 OFFCURVE",
"395 46 OFFCURVE",
"395 58 CURVE SMOOTH",
"395 75 OFFCURVE",
"387 91 OFFCURVE",
"372 95 CURVE",
"350 86 OFFCURVE",
"328 78 OFFCURVE",
"296 78 CURVE SMOOTH",
"253 78 OFFCURVE",
"244 101 OFFCURVE",
"244 142 CURVE SMOOTH",
"244 700 LINE",
"96 700 LINE",
"96 129 LINE SMOOTH",
"96 47 OFFCURVE",
"154 -12 OFFCURVE",
"249 -12 CURVE SMOOTH"
);
},
{
closed = 1;
nodes = (
"348 456 LINE",
"348 550 LINE",
"12 550 LINE",
"12 456 LINE"
);
}
);
width = 405;
},
{
anchors = (
{
name = bottom;
position = "{249, 0}";
},
{
name = center;
position = "{190, 278}";
},
{
name = top;
position = "{150, 660}";
},
{
name = topright;
position = "{328, 630}";
}
);
hints = (
{
horizontal = 1;
origin = "{0, 20}";
target = "{0, 11}";
type = Stem;
},
{
horizontal = 1;
origin = "{1, 3}";
target = "{1, 2}";
type = Stem;
},
{
horizontal = 1;
origin = "{0, 16}";
target = down;
type = TopGhost;
},
{
origin = "{0, 17}";
target = "{0, 14}";
type = Stem;
}
);
layerId = "EB12C417-147C-44D3-ABF9-73FB32C0B9E2";
paths = (
{
closed = 1;
nodes = (
"301 -12 OFFCURVE",
"322 -7 OFFCURVE",
"342 4 CURVE SMOOTH",
"349 8 OFFCURVE",
"354 17 OFFCURVE",
"354 27 CURVE SMOOTH",
"354 36 OFFCURVE",
"349 41 OFFCURVE",
"342 45 CURVE",
"320 32 OFFCURVE",
"293 24 OFFCURVE",
"256 24 CURVE SMOOTH",
"203 24 OFFCURVE",
"156 52 OFFCURVE",
"156 138 CURVE SMOOTH",
"156 700 LINE",
"116 700 LINE",
"116 129 LINE SMOOTH",
"116 22 OFFCURVE",
"189 -12 OFFCURVE",
"249 -12 CURVE SMOOTH"
);
},
{
closed = 1;
nodes = (
"328 514 LINE",
"328 550 LINE",
"12 550 LINE",
"12 514 LINE"
);
}
);
width = 374;
}
);
note = t;
unicode = 0074;
},
{
glyphname = u;
lastChange = "2018-04-30 16:31:08 +0000";
layers = (
{
anchors = (
{
name = bottom;
position = "{304, 0}";
},
{
name = ogonek;
position = "{557, 10}";
},
{
name = top;
position = "{304, 550}";
},
{
name = topright;
position = "{517, 523}";
}
);
hints = (
{
horizontal = 1;
origin = "{0, 15}";
target = "{0, 6}";
type = Stem;
},
{
origin = "{0, 12}";
target = "{0, 9}";
type = Stem;
},
{
origin = "{1, 8}";
target = "{1, 5}";
type = Stem;
}
);
layerId = "5A4BD32C-A1D1-4EB1-A794-47BD06E3B809";
paths = (
{
closed = 1;
nodes = (
"347 -12 OFFCURVE",
"437 33 OFFCURVE",
"466 106 CURVE",
"460 166 LINE",
"420 87 OFFCURVE",
"347 42 OFFCURVE",
"271 42 CURVE SMOOTH",
"189 42 OFFCURVE",
"158 87 OFFCURVE",
"158 180 CURVE SMOOTH",
"158 550 LINE",
"90 550 LINE",
"90 173 LINE SMOOTH",
"90 51 OFFCURVE",
"144 -12 OFFCURVE",
"259 -12 CURVE SMOOTH"
);
},
{
closed = 1;
nodes = (
"504 -5 OFFCURVE",
"516 -1 OFFCURVE",
"532 7 CURVE",
"526 25 OFFCURVE",
"517 52 OFFCURVE",
"517 113 CURVE SMOOTH",
"517 550 LINE",
"448 550 LINE",
"448 104 LINE SMOOTH",
"448 28 OFFCURVE",
"453 -5 OFFCURVE",
"489 -5 CURVE SMOOTH"
);
}
);
width = 610;
},
{
anchors = (
{
name = bottom;
position = "{305, 0}";
},
{
name = ogonek;
position = "{572, 17}";
},
{
name = top;
position = "{315, 550}";
},
{
name = topright;
position = "{557, 523}";
}
);
hints = (
{
horizontal = 1;
origin = "{0, 15}";
target = "{0, 6}";
type = Stem;
},
{
origin = "{0, 12}";
target = "{0, 9}";
type = Stem;
},
{
origin = "{1, 8}";
target = "{1, 5}";
type = Stem;
}
);
layerId = "FD6510A9-FDB4-489D-9A3E-85E488E95339";
paths = (
{
closed = 1;
nodes = (
"337 -12 OFFCURVE",
"417 33 OFFCURVE",
"446 116 CURVE",
"430 196 LINE",
"396 121 OFFCURVE",
"350 82 OFFCURVE",
"291 82 CURVE SMOOTH",
"240 82 OFFCURVE",
"218 107 OFFCURVE",
"218 180 CURVE SMOOTH",
"218 550 LINE",
"70 550 LINE",
"70 173 LINE SMOOTH",
"70 41 OFFCURVE",
"144 -12 OFFCURVE",
"249 -12 CURVE SMOOTH"
);
},
{
closed = 1;
nodes = (
"506 -5 OFFCURVE",
"546 4 OFFCURVE",
"572 17 CURVE",
"562 39 OFFCURVE",
"557 67 OFFCURVE",
"557 133 CURVE SMOOTH",
"557 550 LINE",
"408 550 LINE",
"408 93 LINE SMOOTH",
"408 17 OFFCURVE",
"425 -5 OFFCURVE",
"471 -5 CURVE SMOOTH"
);
}
);
width = 630;
},
{
anchors = (
{
name = bottom;
position = "{304, 0}";
},
{
name = ogonek;
position = "{557, 10}";
},
{
name = top;
position = "{304, 550}";
},
{
name = topright;
position = "{517, 523}";
}
);
hints = (
{
horizontal = 1;
origin = "{1, 11}";
target = up;
type = BottomGhost;
},
{
horizontal = 1;
origin = "{0, 15}";
target = "{0, 6}";
type = Stem;
},
{
origin = "{0, 12}";
target = "{0, 9}";
type = Stem;
},
{
origin = "{1, 8}";
target = "{1, 5}";
type = Stem;
}
);
layerId = "EB12C417-147C-44D3-ABF9-73FB32C0B9E2";
paths = (
{
closed = 1;
nodes = (
"372 -12 OFFCURVE",
"462 43 OFFCURVE",
"496 116 CURVE",
"490 158 LINE",
"450 79 OFFCURVE",
"377 24 OFFCURVE",
"281 24 CURVE SMOOTH",
"179 24 OFFCURVE",
"128 77 OFFCURVE",
"128 180 CURVE SMOOTH",
"128 550 LINE",
"90 550 LINE",
"90 183 LINE SMOOTH",
"90 51 OFFCURVE",
"159 -12 OFFCURVE",
"274 -12 CURVE SMOOTH"
);
},
{
closed = 1;
nodes = (
"515 -5 OFFCURVE",
"526 -1 OFFCURVE",
"532 7 CURVE",
"526 25 OFFCURVE",
"517 52 OFFCURVE",
"517 113 CURVE SMOOTH",
"517 550 LINE",
"478 550 LINE",
"478 94 LINE SMOOTH",
"478 8 OFFCURVE",
"493 -5 OFFCURVE",
"504 -5 CURVE SMOOTH"
);
}
);
width = 610;
}
);
note = u;
unicode = 0075;
},
{
glyphname = v;
lastChange = "2018-04-30 17:33:26 +0000";
layers = (
{
layerId = "5A4BD32C-A1D1-4EB1-A794-47BD06E3B809";
paths = (
{
closed = 1;
nodes = (
"275 0 LINE",
"359 216 OFFCURVE",
"462 507 OFFCURVE",
"462 529 CURVE SMOOTH",
"462 542 OFFCURVE",
"453 553 OFFCURVE",
"436 553 CURVE SMOOTH",
"423 553 OFFCURVE",
"411 550 OFFCURVE",
"401 547 CURVE",
"343 363 OFFCURVE",
"285 200 OFFCURVE",
"227 56 CURVE",
"258 56 LINE",
"93 526 LINE SMOOTH",
"86 546 OFFCURVE",
"74 555 OFFCURVE",
"52 555 CURVE SMOOTH",
"36 555 OFFCURVE",
"24 551 OFFCURVE",
"16 547 CURVE",
"210 0 LINE"
);
}
);
width = 485;
},
{
layerId = "FD6510A9-FDB4-489D-9A3E-85E488E95339";
paths = (
{
closed = 1;
nodes = (
"333 0 LINE",
"419 183 OFFCURVE",
"535 421 OFFCURVE",
"535 497 CURVE SMOOTH",
"535 535 OFFCURVE",
"513 558 OFFCURVE",
"469 558 CURVE SMOOTH",
"439 558 OFFCURVE",
"419 550 OFFCURVE",
"404 537 CURVE",
"366 382 OFFCURVE",
"314 243 OFFCURVE",
"265 116 CURVE",
"296 116 LINE",
"172 516 LINE SMOOTH",
"161 551 OFFCURVE",
"133 560 OFFCURVE",
"101 560 CURVE SMOOTH",
"73 560 OFFCURVE",
"38 549 OFFCURVE",
"15 527 CURVE",
"218 0 LINE"
);
}
);
width = 550;
},
{
layerId = "EB12C417-147C-44D3-ABF9-73FB32C0B9E2";
paths = (
{
closed = 1;
nodes = (
"260 0 LINE",
"334 186 OFFCURVE",
"462 511 OFFCURVE",
"462 539 CURVE SMOOTH",
"462 549 OFFCURVE",
"454 553 OFFCURVE",
"446 553 CURVE SMOOTH",
"438 553 OFFCURVE",
"433 552 OFFCURVE",
"429 549 CURVE",
"371 365 OFFCURVE",
"305 190 OFFCURVE",
"237 26 CURVE",
"248 26 LINE",
"65 526 LINE SMOOTH",
"58 546 OFFCURVE",
"54 555 OFFCURVE",
"42 555 CURVE SMOOTH",
"30 555 OFFCURVE",
"22 551 OFFCURVE",
"16 547 CURVE",
"225 0 LINE"
);
}
);
width = 485;
}
);
note = v;
unicode = 0076;
},
{
glyphname = w;
lastChange = "2018-04-30 17:36:09 +0000";
layers = (
{
anchors = (
{
name = bottom;
position = "{380, 0}";
},
{
name = top;
position = "{380, 550}";
}
);
layerId = "5A4BD32C-A1D1-4EB1-A794-47BD06E3B809";
paths = (
{
closed = 1;
nodes = (
"256 0 LINE",
"390 484 LINE",
"366 484 LINE",
"498 0 LINE",
"560 0 LINE",
"639 241 OFFCURVE",
"712 478 OFFCURVE",
"712 516 CURVE SMOOTH",
"712 544 OFFCURVE",
"696 556 OFFCURVE",
"677 556 CURVE SMOOTH",
"664 556 OFFCURVE",
"654 553 OFFCURVE",
"643 547 CURVE",
"622 427 OFFCURVE",
"562 207 OFFCURVE",
"521 65 CURVE",
"543 65 LINE",
"412 550 LINE",
"346 550 LINE",
"213 65 LINE",
"238 65 LINE",
"100 527 LINE SMOOTH",
"94 547 OFFCURVE",
"82 555 OFFCURVE",
"60 555 CURVE SMOOTH",
"44 555 OFFCURVE",
"32 551 OFFCURVE",
"24 547 CURVE",
"192 0 LINE"
);
}
);
width = 760;
},
{
anchors = (
{
name = bottom;
position = "{390, 0}";
},
{
name = top;
position = "{390, 550}";
}
);
layerId = "FD6510A9-FDB4-489D-9A3E-85E488E95339";
paths = (
{
closed = 1;
nodes = (
"296 0 LINE",
"400 374 LINE",
"376 374 LINE",
"478 0 LINE",
"593 0 LINE",
"669 183 OFFCURVE",
"775 411 OFFCURVE",
"775 497 CURVE SMOOTH",
"775 535 OFFCURVE",
"753 558 OFFCURVE",
"709 558 CURVE SMOOTH",
"679 558 OFFCURVE",
"659 550 OFFCURVE",
"644 537 CURVE",
"606 372 OFFCURVE",
"574 283 OFFCURVE",
"525 156 CURVE",
"547 156 LINE",
"452 550 LINE",
"326 550 LINE",
"234 156 LINE",
"259 156 LINE",
"155 516 LINE SMOOTH",
"145 551 OFFCURVE",
"116 560 OFFCURVE",
"84 560 CURVE SMOOTH",
"56 560 OFFCURVE",
"21 549 OFFCURVE",
"-2 527 CURVE",
"181 0 LINE"
);
}
);
width = 780;
},
{
anchors = (
{
name = bottom;
position = "{380, 0}";
},
{
name = top;
position = "{380, 550}";
}
);
layerId = "EB12C417-147C-44D3-ABF9-73FB32C0B9E2";
paths = (
{
closed = 1;
nodes = (
"241 0 LINE",
"390 524 LINE",
"366 524 LINE",
"513 0 LINE",
"545 0 LINE",
"634 241 OFFCURVE",
"712 498 OFFCURVE",
"712 536 CURVE SMOOTH",
"712 551 OFFCURVE",
"705 556 OFFCURVE",
"692 556 CURVE SMOOTH",
"683 556 OFFCURVE",
"676 553 OFFCURVE",
"671 550 CURVE",
"660 465 OFFCURVE",
"602 247 OFFCURVE",
"521 29 CURVE",
"543 29 LINE",
"397 550 LINE",
"361 550 LINE",
"213 29 LINE",
"238 29 LINE",
"75 527 LINE SMOOTH",
"68 547 OFFCURVE",
"62 555 OFFCURVE",
"50 555 CURVE SMOOTH",
"39 555 OFFCURVE",
"30 551 OFFCURVE",
"24 547 CURVE",
"207 0 LINE"
);
}
);
width = 760;
}
);
note = w;
unicode = 0077;
},
{
glyphname = x;
lastChange = "2018-04-30 16:26:43 +0000";
layers = (
{
layerId = "5A4BD32C-A1D1-4EB1-A794-47BD06E3B809";
paths = (
{
closed = 1;
nodes = (
"468 0 LINE",
"106 550 LINE",
"28 550 LINE",
"390 0 LINE"
);
},
{
closed = 1;
nodes = (
"94 0 LINE",
"456 550 LINE",
"378 550 LINE",
"16 0 LINE"
);
}
);
width = 484;
},
{
layerId = "FD6510A9-FDB4-489D-9A3E-85E488E95339";
paths = (
{
closed = 1;
nodes = (
"494 0 LINE",
"146 550 LINE",
"8 550 LINE",
"356 0 LINE"
);
},
{
closed = 1;
nodes = (
"144 0 LINE",
"492 550 LINE",
"354 550 LINE",
"6 0 LINE"
);
}
);
width = 500;
},
{
layerId = "EB12C417-147C-44D3-ABF9-73FB32C0B9E2";
paths = (
{
closed = 1;
nodes = (
"468 0 LINE",
"76 550 LINE",
"28 550 LINE",
"420 0 LINE"
);
},
{
closed = 1;
nodes = (
"64 0 LINE",
"456 550 LINE",
"408 550 LINE",
"16 0 LINE"
);
}
);
width = 484;
}
);
note = x;
unicode = 0078;
},
{
glyphname = y;
lastChange = "2018-04-30 16:27:47 +0000";
layers = (
{
anchors = (
{
name = bottom;
position = "{348, 0}";
},
{
name = top;
position = "{243, 550}";
}
);
layerId = "5A4BD32C-A1D1-4EB1-A794-47BD06E3B809";
paths = (
{
closed = 1;
nodes = (
"167 -194 OFFCURVE",
"222 -151 OFFCURVE",
"261 -42 CURVE SMOOTH",
"474 550 LINE",
"402 550 LINE",
"230 65 LINE",
"260 65 LINE",
"86 550 LINE",
"14 550 LINE",
"210 9 LINE",
"177 -108 OFFCURVE",
"133 -137 OFFCURVE",
"89 -137 CURVE SMOOTH",
"61 -137 OFFCURVE",
"31 -129 OFFCURVE",
"18 -120 CURVE",
"7 -128 OFFCURVE",
"1 -139 OFFCURVE",
"1 -152 CURVE SMOOTH",
"1 -179 OFFCURVE",
"36 -194 OFFCURVE",
"83 -194 CURVE SMOOTH"
);
}
);
width = 485;
},
{
anchors = (
{
name = bottom;
position = "{423, 0}";
},
{
name = top;
position = "{268, 550}";
}
);
layerId = "FD6510A9-FDB4-489D-9A3E-85E488E95339";
paths = (
{
closed = 1;
nodes = (
"232 -214 OFFCURVE",
"284 -160 OFFCURVE",
"326 -42 CURVE SMOOTH",
"539 550 LINE",
"387 550 LINE",
"255 135 LINE",
"285 135 LINE",
"151 550 LINE",
"-1 550 LINE",
"195 9 LINE",
"167 -76 OFFCURVE",
"143 -97 OFFCURVE",
"94 -97 CURVE SMOOTH",
"66 -97 OFFCURVE",
"46 -89 OFFCURVE",
"33 -80 CURVE",
"22 -93 OFFCURVE",
"6 -109 OFFCURVE",
"6 -142 CURVE SMOOTH",
"6 -179 OFFCURVE",
"41 -214 OFFCURVE",
"118 -214 CURVE SMOOTH"
);
}
);
width = 535;
},
{
anchors = (
{
name = bottom;
position = "{348, 0}";
},
{
name = top;
position = "{243, 550}";
}
);
layerId = "EB12C417-147C-44D3-ABF9-73FB32C0B9E2";
paths = (
{
closed = 1;
nodes = (
"167 -194 OFFCURVE",
"210 -150 OFFCURVE",
"251 -42 CURVE SMOOTH",
"474 550 LINE",
"432 550 LINE",
"235 29 LINE",
"265 29 LINE",
"56 550 LINE",
"14 550 LINE",
"230 9 LINE",
"187 -105 OFFCURVE",
"150 -158 OFFCURVE",
"89 -158 CURVE SMOOTH",
"55 -158 OFFCURVE",
"30 -151 OFFCURVE",
"16 -140 CURVE",
"5 -143 OFFCURVE",
"1 -149 OFFCURVE",
"1 -159 CURVE SMOOTH",
"1 -176 OFFCURVE",
"41 -194 OFFCURVE",
"83 -194 CURVE SMOOTH"
);
}
);
width = 485;
}
);
note = y;
unicode = 0079;
},
{
glyphname = z;
lastChange = "2018-04-30 16:32:02 +0000";
layers = (
{
anchors = (
{
name = bottom;
position = "{250, 0}";
},
{
name = top;
position = "{250, 550}";
}
);
hints = (
{
horizontal = 1;
origin = "{0, 11}";
target = "{0, 3}";
type = Stem;
},
{
horizontal = 1;
origin = "{0, 7}";
target = "{0, 6}";
type = Stem;
},
{
origin = "{0, 11}";
target = "{0, 0}";
type = Stem;
}
);
layerId = "5A4BD32C-A1D1-4EB1-A794-47BD06E3B809";
paths = (
{
closed = 1;
nodes = (
"470 0 LINE",
"470 58 LINE",
"77 58 LINE",
"95 22 LINE",
"462 503 LINE",
"462 550 LINE",
"56 550 LINE",
"56 492 LINE",
"416 492 LINE",
"398 528 LINE",
"30 48 LINE",
"30 0 LINE"
);
}
);
width = 500;
},
{
anchors = (
{
name = bottom;
position = "{260, 0}";
},
{
name = top;
position = "{260, 550}";
}
);
hints = (
{
horizontal = 1;
origin = "{0, 11}";
target = "{0, 3}";
type = Stem;
},
{
horizontal = 1;
origin = "{0, 7}";
target = "{0, 6}";
type = Stem;
},
{
origin = "{0, 11}";
target = "{0, 0}";
type = Stem;
}
);
layerId = "FD6510A9-FDB4-489D-9A3E-85E488E95339";
paths = (
{
closed = 1;
nodes = (
"490 0 LINE",
"490 98 LINE",
"137 98 LINE",
"155 62 LINE",
"482 463 LINE",
"482 550 LINE",
"56 550 LINE",
"56 452 LINE",
"376 452 LINE",
"348 488 LINE",
"30 88 LINE",
"30 0 LINE"
);
}
);
width = 520;
},
{
anchors = (
{
name = bottom;
position = "{250, 0}";
},
{
name = top;
position = "{250, 550}";
}
);
hints = (
{
horizontal = 1;
origin = "{0, 11}";
target = "{0, 3}";
type = Stem;
},
{
horizontal = 1;
origin = "{0, 7}";
target = "{0, 6}";
type = Stem;
},
{
origin = "{0, 11}";
target = "{0, 0}";
type = Stem;
}
);
layerId = "EB12C417-147C-44D3-ABF9-73FB32C0B9E2";
paths = (
{
closed = 1;
nodes = (
"470 0 LINE",
"470 38 LINE",
"50 38 LINE",
"68 12 LINE",
"462 523 LINE",
"462 550 LINE",
"56 550 LINE",
"56 512 LINE",
"443 512 LINE",
"425 538 LINE",
"30 28 LINE",
"30 0 LINE"
);
}
);
width = 500;
}
);
note = z;
unicode = 007A;
},
{
glyphname = AE;
lastChange = "2018-04-30 18:09:21 +0000";
layers = (
{
anchors = (
{
name = bottom;
position = "{465, 0}";
},
{
name = top;
position = "{465, 700}";
}
);
hints = (
{
horizontal = 1;
origin = "{2, 14}";
target = "{2, 5}";
type = Stem;
},
{
horizontal = 1;
origin = "{0, 2}";
target = "{0, 1}";
type = Stem;
},
{
horizontal = 1;
origin = "{1, 3}";
target = "{1, 2}";
type = Stem;
},
{
horizontal = 1;
origin = "{2, 11}";
target = "{2, 18}";
type = Stem;
},
{
origin = "{2, 0}";
target = "{2, 6}";
type = Stem;
}
);
layerId = "5A4BD32C-A1D1-4EB1-A794-47BD06E3B809";
paths = (
{
closed = 1;
nodes = (
"486 266 LINE",
"145 266 LINE",
"116 206 LINE",
"486 206 LINE"
);
},
{
closed = 1;
nodes = (
"832 343 LINE",
"832 403 LINE",
"520 403 LINE",
"520 343 LINE"
);
},
{
closed = 1;
nodes = (
"470 0 LINE",
"818 0 LINE SMOOTH",
"860 0 OFFCURVE",
"870 12 OFFCURVE",
"870 60 CURVE",
"490 60 LINE",
"535 15 LINE",
"535 664 LINE",
"514 640 LINE",
"875 640 LINE",
"875 700 LINE",
"425 700 LINE",
"206 507 OFFCURVE",
"64 243 OFFCURVE",
"15 0 CURVE",
"89 0 LINE",
"133 233 OFFCURVE",
"284 491 OFFCURVE",
"461 640 CURVE",
"500 640 LINE",
"470 657 LINE"
);
}
);
width = 930;
},
{
anchors = (
{
name = bottom;
position = "{490, 0}";
},
{
name = top;
position = "{490, 700}";
}
);
hints = (
{
horizontal = 1;
origin = "{2, 14}";
target = "{2, 5}";
type = Stem;
},
{
horizontal = 1;
origin = "{0, 2}";
target = "{0, 1}";
type = Stem;
},
{
horizontal = 1;
origin = "{1, 3}";
target = "{1, 2}";
type = Stem;
},
{
horizontal = 1;
origin = "{2, 11}";
target = "{2, 18}";
type = Stem;
},
{
origin = "{2, 0}";
target = "{2, 6}";
type = Stem;
}
);
layerId = "FD6510A9-FDB4-489D-9A3E-85E488E95339";
paths = (
{
closed = 1;
nodes = (
"506 306 LINE",
"170 306 LINE",
"141 206 LINE",
"506 206 LINE"
);
},
{
closed = 1;
nodes = (
"872 303 LINE",
"872 403 LINE",
"540 403 LINE",
"540 303 LINE"
);
},
{
closed = 1;
nodes = (
"470 0 LINE",
"838 0 LINE SMOOTH",
"901 0 OFFCURVE",
"910 42 OFFCURVE",
"910 100 CURVE",
"490 100 LINE",
"615 15 LINE",
"615 624 LINE",
"594 600 LINE",
"915 600 LINE",
"915 700 LINE",
"385 700 LINE",
"156 507 OFFCURVE",
"59 243 OFFCURVE",
"10 0 CURVE",
"164 0 LINE",
"208 233 OFFCURVE",
"304 461 OFFCURVE",
"461 600 CURVE",
"500 600 LINE",
"470 617 LINE"
);
}
);
width = 970;
},
{
anchors = (
{
name = bottom;
position = "{465, 0}";
},
{
name = top;
position = "{465, 700}";
}
);
hints = (
{
horizontal = 1;
origin = "{2, 14}";
target = "{2, 5}";
type = Stem;
},
{
horizontal = 1;
origin = "{0, 2}";
target = "{0, 1}";
type = Stem;
},
{
horizontal = 1;
origin = "{1, 3}";
target = "{1, 2}";
type = Stem;
},
{
horizontal = 1;
origin = "{2, 11}";
target = "{2, 18}";
type = Stem;
},
{
origin = "{2, 0}";
target = "{2, 6}";
type = Stem;
}
);
layerId = "EB12C417-147C-44D3-ABF9-73FB32C0B9E2";
paths = (
{
closed = 1;
nodes = (
"486 246 LINE",
"135 246 LINE",
"116 206 LINE",
"486 206 LINE"
);
},
{
closed = 1;
nodes = (
"832 343 LINE",
"832 383 LINE",
"490 383 LINE",
"490 343 LINE"
);
},
{
closed = 1;
nodes = (
"470 0 LINE",
"838 0 LINE SMOOTH",
"860 0 OFFCURVE",
"870 10 OFFCURVE",
"870 38 CURVE",
"480 38 LINE",
"505 15 LINE",
"505 680 LINE",
"490 660 LINE",
"875 660 LINE",
"875 700 LINE",
"455 700 LINE",
"226 507 OFFCURVE",
"64 243 OFFCURVE",
"15 0 CURVE",
"59 0 LINE",
"103 233 OFFCURVE",
"284 511 OFFCURVE",
"461 660 CURVE",
"486 660 LINE",
"470 677 LINE"
);
}
);
width = 930;
}
);
leftMetricsKey = A;
note = AE;
rightMetricsKey = E;
unicode = 00C6;
},
{
glyphname = Eth;
lastChange = "2018-04-30 17:03:37 +0000";
layers = (
{
components = (
{
name = D;
}
);
layerId = "5A4BD32C-A1D1-4EB1-A794-47BD06E3B809";
paths = (
{
closed = 1;
nodes = (
"346 327 LINE",
"346 384 LINE",
"1 384 LINE",
"1 327 LINE"
);
}
);
width = 672;
},
{
components = (
{
name = D;
}
);
layerId = "FD6510A9-FDB4-489D-9A3E-85E488E95339";
paths = (
{
closed = 1;
nodes = (
"346 307 LINE",
"346 404 LINE",
"1 404 LINE",
"1 307 LINE"
);
}
);
width = 672;
},
{
components = (
{
name = D;
}
);
layerId = "EB12C417-147C-44D3-ABF9-73FB32C0B9E2";
paths = (
{
closed = 1;
nodes = (
"345 338 LINE",
"345 374 LINE",
"0 374 LINE",
"0 338 LINE"
);
}
);
width = 672;
}
);
note = Eth;
unicode = 00D0;
},
{
glyphname = Dcroat;
lastChange = "2018-04-30 17:03:29 +0000";
layers = (
{
components = (
{
name = D;
}
);
layerId = "5A4BD32C-A1D1-4EB1-A794-47BD06E3B809";
paths = (
{
closed = 1;
nodes = (
"346 327 LINE",
"346 384 LINE",
"1 384 LINE",
"1 327 LINE"
);
}
);
width = 672;
},
{
components = (
{
name = D;
}
);
layerId = "FD6510A9-FDB4-489D-9A3E-85E488E95339";
paths = (
{
closed = 1;
nodes = (
"346 307 LINE",
"346 404 LINE",
"1 404 LINE",
"1 307 LINE"
);
}
);
width = 672;
},
{
components = (
{
name = D;
}
);
hints = (
{
horizontal = 1;
origin = "{0, 3}";
target = "{0, 2}";
type = Stem;
},
{
origin = "{0, 3}";
target = "{0, 0}";
type = Stem;
}
);
layerId = "EB12C417-147C-44D3-ABF9-73FB32C0B9E2";
paths = (
{
closed = 1;
nodes = (
"345 338 LINE",
"345 374 LINE",
"0 374 LINE",
"0 338 LINE"
);
}
);
width = 672;
}
);
note = Dcroat;
unicode = 0110;
},
{
glyphname = Eacute;
lastChange = "2018-04-30 15:44:56 +0000";
layers = (
{
background = {
paths = (
{
closed = 1;
nodes = (
"554 0 LINE",
"571 179 LINE",
"544 179 LINE",
"538 124 OFFCURVE",
"520 40 OFFCURVE",
"456 40 CURVE SMOOTH",
"201 40 LINE",
"201 659 LINE",
"441 659 LINE SMOOTH",
"516 659 OFFCURVE",
"525 567 OFFCURVE",
"528 527 CURVE",
"555 527 LINE",
"555 700 LINE",
"16 700 LINE",
"16 673 LINE",
"44 673 LINE SMOOTH",
"83 673 OFFCURVE",
"103 662 OFFCURVE",
"103 637 CURVE SMOOTH",
"103 62 LINE SMOOTH",
"103 37 OFFCURVE",
"83 26 OFFCURVE",
"44 26 CURVE SMOOTH",
"16 26 LINE",
"16 0 LINE"
);
},
{
closed = 1;
nodes = (
"455 251 LINE",
"455 485 LINE",
"431 485 LINE",
"427 436 OFFCURVE",
"424 388 OFFCURVE",
"379 388 CURVE SMOOTH",
"162 388 LINE",
"162 348 LINE",
"379 348 LINE SMOOTH",
"424 348 OFFCURVE",
"427 300 OFFCURVE",
"431 251 CURVE"
);
},
{
closed = 1;
nodes = (
"398 865 LINE SMOOTH",
"420 877 OFFCURVE",
"432 890 OFFCURVE",
"432 907 CURVE SMOOTH",
"432 922 OFFCURVE",
"420 937 OFFCURVE",
"398 937 CURVE SMOOTH",
"377 937 OFFCURVE",
"362 921 OFFCURVE",
"354 914 CURVE SMOOTH",
"239 807 LINE",
"256 782 LINE"
);
}
);
};
components = (
{
name = E;
},
{
name = acutecomb;
transform = "{1, 0, 0, 1, 153, 120}";
}
);
layerId = "5A4BD32C-A1D1-4EB1-A794-47BD06E3B809";
width = 560;
},
{
background = {
paths = (
{
closed = 1;
nodes = (
"554 0 LINE",
"571 179 LINE",
"544 179 LINE",
"538 124 OFFCURVE",
"520 40 OFFCURVE",
"456 40 CURVE SMOOTH",
"201 40 LINE",
"201 659 LINE",
"441 659 LINE SMOOTH",
"516 659 OFFCURVE",
"525 567 OFFCURVE",
"528 527 CURVE",
"555 527 LINE",
"555 700 LINE",
"16 700 LINE",
"16 673 LINE",
"44 673 LINE SMOOTH",
"83 673 OFFCURVE",
"103 662 OFFCURVE",
"103 637 CURVE SMOOTH",
"103 62 LINE SMOOTH",
"103 37 OFFCURVE",
"83 26 OFFCURVE",
"44 26 CURVE SMOOTH",
"16 26 LINE",
"16 0 LINE"
);
},
{
closed = 1;
nodes = (
"455 251 LINE",
"455 485 LINE",
"431 485 LINE",
"427 436 OFFCURVE",
"424 388 OFFCURVE",
"379 388 CURVE SMOOTH",
"162 388 LINE",
"162 348 LINE",
"379 348 LINE SMOOTH",
"424 348 OFFCURVE",
"427 300 OFFCURVE",
"431 251 CURVE"
);
},
{
closed = 1;
nodes = (
"398 865 LINE SMOOTH",
"420 877 OFFCURVE",
"432 890 OFFCURVE",
"432 907 CURVE SMOOTH",
"432 922 OFFCURVE",
"420 937 OFFCURVE",
"398 937 CURVE SMOOTH",
"377 937 OFFCURVE",
"362 921 OFFCURVE",
"354 914 CURVE SMOOTH",
"239 807 LINE",
"256 782 LINE"
);
}
);
};
components = (
{
name = E;
},
{
name = acutecomb;
transform = "{1, 0, 0, 1, 153, 120}";
}
);
layerId = "FD6510A9-FDB4-489D-9A3E-85E488E95339";
width = 560;
},
{
background = {
paths = (
{
closed = 1;
nodes = (
"554 0 LINE",
"571 179 LINE",
"544 179 LINE",
"538 124 OFFCURVE",
"520 40 OFFCURVE",
"456 40 CURVE SMOOTH",
"201 40 LINE",
"201 659 LINE",
"441 659 LINE SMOOTH",
"516 659 OFFCURVE",
"525 567 OFFCURVE",
"528 527 CURVE",
"555 527 LINE",
"555 700 LINE",
"16 700 LINE",
"16 673 LINE",
"44 673 LINE SMOOTH",
"83 673 OFFCURVE",
"103 662 OFFCURVE",
"103 637 CURVE SMOOTH",
"103 62 LINE SMOOTH",
"103 37 OFFCURVE",
"83 26 OFFCURVE",
"44 26 CURVE SMOOTH",
"16 26 LINE",
"16 0 LINE"
);
},
{
closed = 1;
nodes = (
"455 251 LINE",
"455 485 LINE",
"431 485 LINE",
"427 436 OFFCURVE",
"424 388 OFFCURVE",
"379 388 CURVE SMOOTH",
"162 388 LINE",
"162 348 LINE",
"379 348 LINE SMOOTH",
"424 348 OFFCURVE",
"427 300 OFFCURVE",
"431 251 CURVE"
);
},
{
closed = 1;
nodes = (
"398 865 LINE SMOOTH",
"420 877 OFFCURVE",
"432 890 OFFCURVE",
"432 907 CURVE SMOOTH",
"432 922 OFFCURVE",
"420 937 OFFCURVE",
"398 937 CURVE SMOOTH",
"377 937 OFFCURVE",
"362 921 OFFCURVE",
"354 914 CURVE SMOOTH",
"239 807 LINE",
"256 782 LINE"
);
}
);
};
components = (
{
name = E;
},
{
name = acutecomb;
transform = "{1, 0, 0, 1, 153, 120}";
}
);
layerId = "EB12C417-147C-44D3-ABF9-73FB32C0B9E2";
width = 560;
}
);
note = Eacute;
unicode = 00C9;
},
{
glyphname = Ebreve;
lastChange = "2018-04-30 15:44:56 +0000";
layers = (
{
background = {
paths = (
{
closed = 1;
nodes = (
"554 0 LINE",
"571 179 LINE",
"544 179 LINE",
"538 124 OFFCURVE",
"520 40 OFFCURVE",
"456 40 CURVE SMOOTH",
"201 40 LINE",
"201 659 LINE",
"441 659 LINE SMOOTH",
"516 659 OFFCURVE",
"525 567 OFFCURVE",
"528 527 CURVE",
"555 527 LINE",
"555 700 LINE",
"16 700 LINE",
"16 673 LINE",
"44 673 LINE SMOOTH",
"83 673 OFFCURVE",
"103 662 OFFCURVE",
"103 637 CURVE SMOOTH",
"103 62 LINE SMOOTH",
"103 37 OFFCURVE",
"83 26 OFFCURVE",
"44 26 CURVE SMOOTH",
"16 26 LINE",
"16 0 LINE"
);
},
{
closed = 1;
nodes = (
"455 251 LINE",
"455 485 LINE",
"431 485 LINE",
"427 436 OFFCURVE",
"424 388 OFFCURVE",
"379 388 CURVE SMOOTH",
"162 388 LINE",
"162 348 LINE",
"379 348 LINE SMOOTH",
"424 348 OFFCURVE",
"427 300 OFFCURVE",
"431 251 CURVE"
);
},
{
closed = 1;
nodes = (
"432 776 OFFCURVE",
"474 832 OFFCURVE",
"478 907 CURVE",
"445 907 LINE",
"439 848 OFFCURVE",
"397 822 OFFCURVE",
"333 822 CURVE SMOOTH",
"269 822 OFFCURVE",
"226 848 OFFCURVE",
"219 907 CURVE",
"186 907 LINE",
"190 829 OFFCURVE",
"232 776 OFFCURVE",
"333 776 CURVE SMOOTH"
);
}
);
};
components = (
{
name = E;
},
{
name = brevecomb;
transform = "{1, 0, 0, 1, 280, 120}";
}
);
layerId = "5A4BD32C-A1D1-4EB1-A794-47BD06E3B809";
width = 560;
},
{
background = {
paths = (
{
closed = 1;
nodes = (
"554 0 LINE",
"571 179 LINE",
"544 179 LINE",
"538 124 OFFCURVE",
"520 40 OFFCURVE",
"456 40 CURVE SMOOTH",
"201 40 LINE",
"201 659 LINE",
"441 659 LINE SMOOTH",
"516 659 OFFCURVE",
"525 567 OFFCURVE",
"528 527 CURVE",
"555 527 LINE",
"555 700 LINE",
"16 700 LINE",
"16 673 LINE",
"44 673 LINE SMOOTH",
"83 673 OFFCURVE",
"103 662 OFFCURVE",
"103 637 CURVE SMOOTH",
"103 62 LINE SMOOTH",
"103 37 OFFCURVE",
"83 26 OFFCURVE",
"44 26 CURVE SMOOTH",
"16 26 LINE",
"16 0 LINE"
);
},
{
closed = 1;
nodes = (
"455 251 LINE",
"455 485 LINE",
"431 485 LINE",
"427 436 OFFCURVE",
"424 388 OFFCURVE",
"379 388 CURVE SMOOTH",
"162 388 LINE",
"162 348 LINE",
"379 348 LINE SMOOTH",
"424 348 OFFCURVE",
"427 300 OFFCURVE",
"431 251 CURVE"
);
},
{
closed = 1;
nodes = (
"432 776 OFFCURVE",
"474 832 OFFCURVE",
"478 907 CURVE",
"445 907 LINE",
"439 848 OFFCURVE",
"397 822 OFFCURVE",
"333 822 CURVE SMOOTH",
"269 822 OFFCURVE",
"226 848 OFFCURVE",
"219 907 CURVE",
"186 907 LINE",
"190 829 OFFCURVE",
"232 776 OFFCURVE",
"333 776 CURVE SMOOTH"
);
}
);
};
components = (
{
name = E;
},
{
name = brevecomb;
transform = "{1, 0, 0, 1, 280, 120}";
}
);
layerId = "FD6510A9-FDB4-489D-9A3E-85E488E95339";
width = 560;
},
{
background = {
paths = (
{
closed = 1;
nodes = (
"554 0 LINE",
"571 179 LINE",
"544 179 LINE",
"538 124 OFFCURVE",
"520 40 OFFCURVE",
"456 40 CURVE SMOOTH",
"201 40 LINE",
"201 659 LINE",
"441 659 LINE SMOOTH",
"516 659 OFFCURVE",
"525 567 OFFCURVE",
"528 527 CURVE",
"555 527 LINE",
"555 700 LINE",
"16 700 LINE",
"16 673 LINE",
"44 673 LINE SMOOTH",
"83 673 OFFCURVE",
"103 662 OFFCURVE",
"103 637 CURVE SMOOTH",
"103 62 LINE SMOOTH",
"103 37 OFFCURVE",
"83 26 OFFCURVE",
"44 26 CURVE SMOOTH",
"16 26 LINE",
"16 0 LINE"
);
},
{
closed = 1;
nodes = (
"455 251 LINE",
"455 485 LINE",
"431 485 LINE",
"427 436 OFFCURVE",
"424 388 OFFCURVE",
"379 388 CURVE SMOOTH",
"162 388 LINE",
"162 348 LINE",
"379 348 LINE SMOOTH",
"424 348 OFFCURVE",
"427 300 OFFCURVE",
"431 251 CURVE"
);
},
{
closed = 1;
nodes = (
"432 776 OFFCURVE",
"474 832 OFFCURVE",
"478 907 CURVE",
"445 907 LINE",
"439 848 OFFCURVE",
"397 822 OFFCURVE",
"333 822 CURVE SMOOTH",
"269 822 OFFCURVE",
"226 848 OFFCURVE",
"219 907 CURVE",
"186 907 LINE",
"190 829 OFFCURVE",
"232 776 OFFCURVE",
"333 776 CURVE SMOOTH"
);
}
);
};
components = (
{
name = E;
},
{
name = brevecomb;
transform = "{1, 0, 0, 1, 280, 120}";
}
);
layerId = "EB12C417-147C-44D3-ABF9-73FB32C0B9E2";
width = 560;
}
);
note = Ebreve;
unicode = 0114;
},
{
glyphname = Ecaron;
lastChange = "2018-04-30 15:44:56 +0000";
layers = (
{
background = {
paths = (
{
closed = 1;
nodes = (
"554 0 LINE",
"571 179 LINE",
"544 179 LINE",
"538 124 OFFCURVE",
"520 40 OFFCURVE",
"456 40 CURVE SMOOTH",
"201 40 LINE",
"201 659 LINE",
"441 659 LINE SMOOTH",
"516 659 OFFCURVE",
"525 567 OFFCURVE",
"528 527 CURVE",
"555 527 LINE",
"555 700 LINE",
"16 700 LINE",
"16 673 LINE",
"44 673 LINE SMOOTH",
"83 673 OFFCURVE",
"103 662 OFFCURVE",
"103 637 CURVE SMOOTH",
"103 62 LINE SMOOTH",
"103 37 OFFCURVE",
"83 26 OFFCURVE",
"44 26 CURVE SMOOTH",
"16 26 LINE",
"16 0 LINE"
);
},
{
closed = 1;
nodes = (
"455 251 LINE",
"455 485 LINE",
"431 485 LINE",
"427 436 OFFCURVE",
"424 388 OFFCURVE",
"379 388 CURVE SMOOTH",
"162 388 LINE",
"162 348 LINE",
"379 348 LINE SMOOTH",
"424 348 OFFCURVE",
"427 300 OFFCURVE",
"431 251 CURVE"
);
},
{
closed = 1;
nodes = (
"357 782 LINE",
"481 911 LINE",
"462 932 LINE",
"354 847 LINE",
"346 840 OFFCURVE",
"337 836 OFFCURVE",
"331 836 CURVE SMOOTH",
"325 836 OFFCURVE",
"317 840 OFFCURVE",
"307 847 CURVE",
"199 932 LINE",
"180 911 LINE",
"304 782 LINE"
);
}
);
};
components = (
{
name = E;
},
{
name = caroncomb;
transform = "{1, 0, 0, 1, 282, 120}";
}
);
layerId = "5A4BD32C-A1D1-4EB1-A794-47BD06E3B809";
width = 560;
},
{
background = {
paths = (
{
closed = 1;
nodes = (
"554 0 LINE",
"571 179 LINE",
"544 179 LINE",
"538 124 OFFCURVE",
"520 40 OFFCURVE",
"456 40 CURVE SMOOTH",
"201 40 LINE",
"201 659 LINE",
"441 659 LINE SMOOTH",
"516 659 OFFCURVE",
"525 567 OFFCURVE",
"528 527 CURVE",
"555 527 LINE",
"555 700 LINE",
"16 700 LINE",
"16 673 LINE",
"44 673 LINE SMOOTH",
"83 673 OFFCURVE",
"103 662 OFFCURVE",
"103 637 CURVE SMOOTH",
"103 62 LINE SMOOTH",
"103 37 OFFCURVE",
"83 26 OFFCURVE",
"44 26 CURVE SMOOTH",
"16 26 LINE",
"16 0 LINE"
);
},
{
closed = 1;
nodes = (
"455 251 LINE",
"455 485 LINE",
"431 485 LINE",
"427 436 OFFCURVE",
"424 388 OFFCURVE",
"379 388 CURVE SMOOTH",
"162 388 LINE",
"162 348 LINE",
"379 348 LINE SMOOTH",
"424 348 OFFCURVE",
"427 300 OFFCURVE",
"431 251 CURVE"
);
},
{
closed = 1;
nodes = (
"357 782 LINE",
"481 911 LINE",
"462 932 LINE",
"354 847 LINE",
"346 840 OFFCURVE",
"337 836 OFFCURVE",
"331 836 CURVE SMOOTH",
"325 836 OFFCURVE",
"317 840 OFFCURVE",
"307 847 CURVE",
"199 932 LINE",
"180 911 LINE",
"304 782 LINE"
);
}
);
};
components = (
{
name = E;
},
{
name = caroncomb;
transform = "{1, 0, 0, 1, 282, 120}";
}
);
layerId = "FD6510A9-FDB4-489D-9A3E-85E488E95339";
width = 560;
},
{
background = {
paths = (
{
closed = 1;
nodes = (
"554 0 LINE",
"571 179 LINE",
"544 179 LINE",
"538 124 OFFCURVE",
"520 40 OFFCURVE",
"456 40 CURVE SMOOTH",
"201 40 LINE",
"201 659 LINE",
"441 659 LINE SMOOTH",
"516 659 OFFCURVE",
"525 567 OFFCURVE",
"528 527 CURVE",
"555 527 LINE",
"555 700 LINE",
"16 700 LINE",
"16 673 LINE",
"44 673 LINE SMOOTH",
"83 673 OFFCURVE",
"103 662 OFFCURVE",
"103 637 CURVE SMOOTH",
"103 62 LINE SMOOTH",
"103 37 OFFCURVE",
"83 26 OFFCURVE",
"44 26 CURVE SMOOTH",
"16 26 LINE",
"16 0 LINE"
);
},
{
closed = 1;
nodes = (
"455 251 LINE",
"455 485 LINE",
"431 485 LINE",
"427 436 OFFCURVE",
"424 388 OFFCURVE",
"379 388 CURVE SMOOTH",
"162 388 LINE",
"162 348 LINE",
"379 348 LINE SMOOTH",
"424 348 OFFCURVE",
"427 300 OFFCURVE",
"431 251 CURVE"
);
},
{
closed = 1;
nodes = (
"357 782 LINE",
"481 911 LINE",
"462 932 LINE",
"354 847 LINE",
"346 840 OFFCURVE",
"337 836 OFFCURVE",
"331 836 CURVE SMOOTH",
"325 836 OFFCURVE",
"317 840 OFFCURVE",
"307 847 CURVE",
"199 932 LINE",
"180 911 LINE",
"304 782 LINE"
);
}
);
};
components = (
{
name = E;
},
{
name = caroncomb;
transform = "{1, 0, 0, 1, 282, 120}";
}
);
layerId = "EB12C417-147C-44D3-ABF9-73FB32C0B9E2";
width = 560;
}
);
note = Ecaron;
unicode = 011A;
},
{
glyphname = Ecircumflex;
lastChange = "2018-04-30 15:44:56 +0000";
layers = (
{
background = {
paths = (
{
closed = 1;
nodes = (
"554 0 LINE",
"571 179 LINE",
"544 179 LINE",
"538 124 OFFCURVE",
"520 40 OFFCURVE",
"456 40 CURVE SMOOTH",
"201 40 LINE",
"201 659 LINE",
"441 659 LINE SMOOTH",
"516 659 OFFCURVE",
"525 567 OFFCURVE",
"528 527 CURVE",
"555 527 LINE",
"555 700 LINE",
"16 700 LINE",
"16 673 LINE",
"44 673 LINE SMOOTH",
"83 673 OFFCURVE",
"103 662 OFFCURVE",
"103 637 CURVE SMOOTH",
"103 62 LINE SMOOTH",
"103 37 OFFCURVE",
"83 26 OFFCURVE",
"44 26 CURVE SMOOTH",
"16 26 LINE",
"16 0 LINE"
);
},
{
closed = 1;
nodes = (
"455 251 LINE",
"455 485 LINE",
"431 485 LINE",
"427 436 OFFCURVE",
"424 388 OFFCURVE",
"379 388 CURVE SMOOTH",
"162 388 LINE",
"162 348 LINE",
"379 348 LINE SMOOTH",
"424 348 OFFCURVE",
"427 300 OFFCURVE",
"431 251 CURVE"
);
},
{
closed = 1;
nodes = (
"304 868 LINE SMOOTH",
"312 874 OFFCURVE",
"322 879 OFFCURVE",
"328 879 CURVE SMOOTH",
"334 879 OFFCURVE",
"342 874 OFFCURVE",
"351 868 CURVE",
"459 782 LINE",
"478 803 LINE",
"354 932 LINE",
"301 932 LINE",
"177 803 LINE",
"196 782 LINE"
);
}
);
};
components = (
{
name = E;
},
{
name = circumflexcomb;
transform = "{1, 0, 0, 1, 281, 120}";
}
);
layerId = "5A4BD32C-A1D1-4EB1-A794-47BD06E3B809";
width = 560;
},
{
background = {
paths = (
{
closed = 1;
nodes = (
"554 0 LINE",
"571 179 LINE",
"544 179 LINE",
"538 124 OFFCURVE",
"520 40 OFFCURVE",
"456 40 CURVE SMOOTH",
"201 40 LINE",
"201 659 LINE",
"441 659 LINE SMOOTH",
"516 659 OFFCURVE",
"525 567 OFFCURVE",
"528 527 CURVE",
"555 527 LINE",
"555 700 LINE",
"16 700 LINE",
"16 673 LINE",
"44 673 LINE SMOOTH",
"83 673 OFFCURVE",
"103 662 OFFCURVE",
"103 637 CURVE SMOOTH",
"103 62 LINE SMOOTH",
"103 37 OFFCURVE",
"83 26 OFFCURVE",
"44 26 CURVE SMOOTH",
"16 26 LINE",
"16 0 LINE"
);
},
{
closed = 1;
nodes = (
"455 251 LINE",
"455 485 LINE",
"431 485 LINE",
"427 436 OFFCURVE",
"424 388 OFFCURVE",
"379 388 CURVE SMOOTH",
"162 388 LINE",
"162 348 LINE",
"379 348 LINE SMOOTH",
"424 348 OFFCURVE",
"427 300 OFFCURVE",
"431 251 CURVE"
);
},
{
closed = 1;
nodes = (
"304 868 LINE SMOOTH",
"312 874 OFFCURVE",
"322 879 OFFCURVE",
"328 879 CURVE SMOOTH",
"334 879 OFFCURVE",
"342 874 OFFCURVE",
"351 868 CURVE",
"459 782 LINE",
"478 803 LINE",
"354 932 LINE",
"301 932 LINE",
"177 803 LINE",
"196 782 LINE"
);
}
);
};
components = (
{
name = E;
},
{
name = circumflexcomb;
transform = "{1, 0, 0, 1, 281, 120}";
}
);
layerId = "FD6510A9-FDB4-489D-9A3E-85E488E95339";
width = 560;
},
{
background = {
paths = (
{
closed = 1;
nodes = (
"554 0 LINE",
"571 179 LINE",
"544 179 LINE",
"538 124 OFFCURVE",
"520 40 OFFCURVE",
"456 40 CURVE SMOOTH",
"201 40 LINE",
"201 659 LINE",
"441 659 LINE SMOOTH",
"516 659 OFFCURVE",
"525 567 OFFCURVE",
"528 527 CURVE",
"555 527 LINE",
"555 700 LINE",
"16 700 LINE",
"16 673 LINE",
"44 673 LINE SMOOTH",
"83 673 OFFCURVE",
"103 662 OFFCURVE",
"103 637 CURVE SMOOTH",
"103 62 LINE SMOOTH",
"103 37 OFFCURVE",
"83 26 OFFCURVE",
"44 26 CURVE SMOOTH",
"16 26 LINE",
"16 0 LINE"
);
},
{
closed = 1;
nodes = (
"455 251 LINE",
"455 485 LINE",
"431 485 LINE",
"427 436 OFFCURVE",
"424 388 OFFCURVE",
"379 388 CURVE SMOOTH",
"162 388 LINE",
"162 348 LINE",
"379 348 LINE SMOOTH",
"424 348 OFFCURVE",
"427 300 OFFCURVE",
"431 251 CURVE"
);
},
{
closed = 1;
nodes = (
"304 868 LINE SMOOTH",
"312 874 OFFCURVE",
"322 879 OFFCURVE",
"328 879 CURVE SMOOTH",
"334 879 OFFCURVE",
"342 874 OFFCURVE",
"351 868 CURVE",
"459 782 LINE",
"478 803 LINE",
"354 932 LINE",
"301 932 LINE",
"177 803 LINE",
"196 782 LINE"
);
}
);
};
components = (
{
name = E;
},
{
name = circumflexcomb;
transform = "{1, 0, 0, 1, 281, 120}";
}
);
layerId = "EB12C417-147C-44D3-ABF9-73FB32C0B9E2";
width = 560;
}
);
note = Ecircumflex;
unicode = 00CA;
},
{
glyphname = Ecircumflexacute;
lastChange = "2018-04-30 15:44:56 +0000";
layers = (
{
background = {
paths = (
{
closed = 1;
nodes = (
"554 0 LINE",
"571 179 LINE",
"544 179 LINE",
"538 124 OFFCURVE",
"520 40 OFFCURVE",
"456 40 CURVE SMOOTH",
"201 40 LINE",
"201 659 LINE",
"441 659 LINE SMOOTH",
"516 659 OFFCURVE",
"525 567 OFFCURVE",
"528 527 CURVE",
"555 527 LINE",
"555 700 LINE",
"16 700 LINE",
"16 673 LINE",
"44 673 LINE SMOOTH",
"83 673 OFFCURVE",
"103 662 OFFCURVE",
"103 637 CURVE SMOOTH",
"103 62 LINE SMOOTH",
"103 37 OFFCURVE",
"83 26 OFFCURVE",
"44 26 CURVE SMOOTH",
"16 26 LINE",
"16 0 LINE"
);
},
{
closed = 1;
nodes = (
"455 251 LINE",
"455 485 LINE",
"431 485 LINE",
"427 436 OFFCURVE",
"424 388 OFFCURVE",
"379 388 CURVE SMOOTH",
"162 388 LINE",
"162 348 LINE",
"379 348 LINE SMOOTH",
"424 348 OFFCURVE",
"427 300 OFFCURVE",
"431 251 CURVE"
);
},
{
closed = 1;
nodes = (
"290 862 LINE SMOOTH",
"300 870 OFFCURVE",
"310 878 OFFCURVE",
"318 878 CURVE SMOOTH",
"324 878 OFFCURVE",
"332 873 OFFCURVE",
"341 867 CURVE",
"447 781 LINE",
"466 803 LINE",
"344 932 LINE",
"293 932 LINE",
"171 803 LINE",
"189 781 LINE"
);
},
{
closed = 1;
nodes = (
"555 960 LINE SMOOTH",
"578 972 OFFCURVE",
"591 988 OFFCURVE",
"591 1003 CURVE SMOOTH",
"591 1017 OFFCURVE",
"580 1034 OFFCURVE",
"557 1034 CURVE SMOOTH",
"538 1034 OFFCURVE",
"521 1018 OFFCURVE",
"511 1008 CURVE SMOOTH",
"415 915 LINE",
"433 893 LINE"
);
}
);
};
components = (
{
name = E;
},
{
name = circumflexacute;
transform = "{1, 0, 0, 1, 275, 120}";
}
);
layerId = "5A4BD32C-A1D1-4EB1-A794-47BD06E3B809";
width = 560;
},
{
background = {
paths = (
{
closed = 1;
nodes = (
"554 0 LINE",
"571 179 LINE",
"544 179 LINE",
"538 124 OFFCURVE",
"520 40 OFFCURVE",
"456 40 CURVE SMOOTH",
"201 40 LINE",
"201 659 LINE",
"441 659 LINE SMOOTH",
"516 659 OFFCURVE",
"525 567 OFFCURVE",
"528 527 CURVE",
"555 527 LINE",
"555 700 LINE",
"16 700 LINE",
"16 673 LINE",
"44 673 LINE SMOOTH",
"83 673 OFFCURVE",
"103 662 OFFCURVE",
"103 637 CURVE SMOOTH",
"103 62 LINE SMOOTH",
"103 37 OFFCURVE",
"83 26 OFFCURVE",
"44 26 CURVE SMOOTH",
"16 26 LINE",
"16 0 LINE"
);
},
{
closed = 1;
nodes = (
"455 251 LINE",
"455 485 LINE",
"431 485 LINE",
"427 436 OFFCURVE",
"424 388 OFFCURVE",
"379 388 CURVE SMOOTH",
"162 388 LINE",
"162 348 LINE",
"379 348 LINE SMOOTH",
"424 348 OFFCURVE",
"427 300 OFFCURVE",
"431 251 CURVE"
);
},
{
closed = 1;
nodes = (
"290 862 LINE SMOOTH",
"300 870 OFFCURVE",
"310 878 OFFCURVE",
"318 878 CURVE SMOOTH",
"324 878 OFFCURVE",
"332 873 OFFCURVE",
"341 867 CURVE",
"447 781 LINE",
"466 803 LINE",
"344 932 LINE",
"293 932 LINE",
"171 803 LINE",
"189 781 LINE"
);
},
{
closed = 1;
nodes = (
"555 960 LINE SMOOTH",
"578 972 OFFCURVE",
"591 988 OFFCURVE",
"591 1003 CURVE SMOOTH",
"591 1017 OFFCURVE",
"580 1034 OFFCURVE",
"557 1034 CURVE SMOOTH",
"538 1034 OFFCURVE",
"521 1018 OFFCURVE",
"511 1008 CURVE SMOOTH",
"415 915 LINE",
"433 893 LINE"
);
}
);
};
components = (
{
name = E;
},
{
name = circumflexacute;
transform = "{1, 0, 0, 1, 275, 120}";
}
);
layerId = "FD6510A9-FDB4-489D-9A3E-85E488E95339";
width = 560;
},
{
background = {
paths = (
{
closed = 1;
nodes = (
"554 0 LINE",
"571 179 LINE",
"544 179 LINE",
"538 124 OFFCURVE",
"520 40 OFFCURVE",
"456 40 CURVE SMOOTH",
"201 40 LINE",
"201 659 LINE",
"441 659 LINE SMOOTH",
"516 659 OFFCURVE",
"525 567 OFFCURVE",
"528 527 CURVE",
"555 527 LINE",
"555 700 LINE",
"16 700 LINE",
"16 673 LINE",
"44 673 LINE SMOOTH",
"83 673 OFFCURVE",
"103 662 OFFCURVE",
"103 637 CURVE SMOOTH",
"103 62 LINE SMOOTH",
"103 37 OFFCURVE",
"83 26 OFFCURVE",
"44 26 CURVE SMOOTH",
"16 26 LINE",
"16 0 LINE"
);
},
{
closed = 1;
nodes = (
"455 251 LINE",
"455 485 LINE",
"431 485 LINE",
"427 436 OFFCURVE",
"424 388 OFFCURVE",
"379 388 CURVE SMOOTH",
"162 388 LINE",
"162 348 LINE",
"379 348 LINE SMOOTH",
"424 348 OFFCURVE",
"427 300 OFFCURVE",
"431 251 CURVE"
);
},
{
closed = 1;
nodes = (
"290 862 LINE SMOOTH",
"300 870 OFFCURVE",
"310 878 OFFCURVE",
"318 878 CURVE SMOOTH",
"324 878 OFFCURVE",
"332 873 OFFCURVE",
"341 867 CURVE",
"447 781 LINE",
"466 803 LINE",
"344 932 LINE",
"293 932 LINE",
"171 803 LINE",
"189 781 LINE"
);
},
{
closed = 1;
nodes = (
"555 960 LINE SMOOTH",
"578 972 OFFCURVE",
"591 988 OFFCURVE",
"591 1003 CURVE SMOOTH",
"591 1017 OFFCURVE",
"580 1034 OFFCURVE",
"557 1034 CURVE SMOOTH",
"538 1034 OFFCURVE",
"521 1018 OFFCURVE",
"511 1008 CURVE SMOOTH",
"415 915 LINE",
"433 893 LINE"
);
}
);
};
components = (
{
name = E;
},
{
name = circumflexacute;
transform = "{1, 0, 0, 1, 275, 120}";
}
);
layerId = "EB12C417-147C-44D3-ABF9-73FB32C0B9E2";
width = 560;
}
);
note = Ecircumflexacute;
unicode = 1EBE;
},
{
glyphname = Ecircumflexdotbelow;
lastChange = "2018-04-30 15:44:56 +0000";
layers = (
{
background = {
paths = (
{
closed = 1;
nodes = (
"554 0 LINE",
"571 179 LINE",
"544 179 LINE",
"538 124 OFFCURVE",
"520 40 OFFCURVE",
"456 40 CURVE SMOOTH",
"201 40 LINE",
"201 659 LINE",
"441 659 LINE SMOOTH",
"516 659 OFFCURVE",
"525 567 OFFCURVE",
"528 527 CURVE",
"555 527 LINE",
"555 700 LINE",
"16 700 LINE",
"16 673 LINE",
"44 673 LINE SMOOTH",
"83 673 OFFCURVE",
"103 662 OFFCURVE",
"103 637 CURVE SMOOTH",
"103 62 LINE SMOOTH",
"103 37 OFFCURVE",
"83 26 OFFCURVE",
"44 26 CURVE SMOOTH",
"16 26 LINE",
"16 0 LINE"
);
},
{
closed = 1;
nodes = (
"350 -159 OFFCURVE",
"368 -140 OFFCURVE",
"368 -112 CURVE SMOOTH",
"368 -84 OFFCURVE",
"350 -64 OFFCURVE",
"322 -64 CURVE SMOOTH",
"294 -64 OFFCURVE",
"275 -84 OFFCURVE",
"275 -112 CURVE SMOOTH",
"275 -140 OFFCURVE",
"294 -159 OFFCURVE",
"322 -159 CURVE SMOOTH"
);
},
{
closed = 1;
nodes = (
"455 251 LINE",
"455 485 LINE",
"431 485 LINE",
"427 436 OFFCURVE",
"424 388 OFFCURVE",
"379 388 CURVE SMOOTH",
"162 388 LINE",
"162 348 LINE",
"379 348 LINE SMOOTH",
"424 348 OFFCURVE",
"427 300 OFFCURVE",
"431 251 CURVE"
);
},
{
closed = 1;
nodes = (
"294 868 LINE SMOOTH",
"302 874 OFFCURVE",
"312 879 OFFCURVE",
"318 879 CURVE SMOOTH",
"324 879 OFFCURVE",
"332 874 OFFCURVE",
"341 868 CURVE",
"449 782 LINE",
"468 803 LINE",
"344 932 LINE",
"291 932 LINE",
"167 803 LINE",
"186 782 LINE"
);
}
);
};
components = (
{
name = E;
},
{
name = dotbelowcomb;
transform = "{1, 0, 0, 1, 168, 0}";
},
{
name = circumflexcomb;
transform = "{1, 0, 0, 1, 281, 120}";
}
);
layerId = "5A4BD32C-A1D1-4EB1-A794-47BD06E3B809";
width = 560;
},
{
background = {
paths = (
{
closed = 1;
nodes = (
"554 0 LINE",
"571 179 LINE",
"544 179 LINE",
"538 124 OFFCURVE",
"520 40 OFFCURVE",
"456 40 CURVE SMOOTH",
"201 40 LINE",
"201 659 LINE",
"441 659 LINE SMOOTH",
"516 659 OFFCURVE",
"525 567 OFFCURVE",
"528 527 CURVE",
"555 527 LINE",
"555 700 LINE",
"16 700 LINE",
"16 673 LINE",
"44 673 LINE SMOOTH",
"83 673 OFFCURVE",
"103 662 OFFCURVE",
"103 637 CURVE SMOOTH",
"103 62 LINE SMOOTH",
"103 37 OFFCURVE",
"83 26 OFFCURVE",
"44 26 CURVE SMOOTH",
"16 26 LINE",
"16 0 LINE"
);
},
{
closed = 1;
nodes = (
"350 -159 OFFCURVE",
"368 -140 OFFCURVE",
"368 -112 CURVE SMOOTH",
"368 -84 OFFCURVE",
"350 -64 OFFCURVE",
"322 -64 CURVE SMOOTH",
"294 -64 OFFCURVE",
"275 -84 OFFCURVE",
"275 -112 CURVE SMOOTH",
"275 -140 OFFCURVE",
"294 -159 OFFCURVE",
"322 -159 CURVE SMOOTH"
);
},
{
closed = 1;
nodes = (
"455 251 LINE",
"455 485 LINE",
"431 485 LINE",
"427 436 OFFCURVE",
"424 388 OFFCURVE",
"379 388 CURVE SMOOTH",
"162 388 LINE",
"162 348 LINE",
"379 348 LINE SMOOTH",
"424 348 OFFCURVE",
"427 300 OFFCURVE",
"431 251 CURVE"
);
},
{
closed = 1;
nodes = (
"294 868 LINE SMOOTH",
"302 874 OFFCURVE",
"312 879 OFFCURVE",
"318 879 CURVE SMOOTH",
"324 879 OFFCURVE",
"332 874 OFFCURVE",
"341 868 CURVE",
"449 782 LINE",
"468 803 LINE",
"344 932 LINE",
"291 932 LINE",
"167 803 LINE",
"186 782 LINE"
);
}
);
};
components = (
{
name = E;
},
{
name = dotbelowcomb;
transform = "{1, 0, 0, 1, 155, 0}";
},
{
name = circumflexcomb;
transform = "{1, 0, 0, 1, 281, 120}";
}
);
layerId = "FD6510A9-FDB4-489D-9A3E-85E488E95339";
width = 560;
},
{
background = {
paths = (
{
closed = 1;
nodes = (
"554 0 LINE",
"571 179 LINE",
"544 179 LINE",
"538 124 OFFCURVE",
"520 40 OFFCURVE",
"456 40 CURVE SMOOTH",
"201 40 LINE",
"201 659 LINE",
"441 659 LINE SMOOTH",
"516 659 OFFCURVE",
"525 567 OFFCURVE",
"528 527 CURVE",
"555 527 LINE",
"555 700 LINE",
"16 700 LINE",
"16 673 LINE",
"44 673 LINE SMOOTH",
"83 673 OFFCURVE",
"103 662 OFFCURVE",
"103 637 CURVE SMOOTH",
"103 62 LINE SMOOTH",
"103 37 OFFCURVE",
"83 26 OFFCURVE",
"44 26 CURVE SMOOTH",
"16 26 LINE",
"16 0 LINE"
);
},
{
closed = 1;
nodes = (
"350 -159 OFFCURVE",
"368 -140 OFFCURVE",
"368 -112 CURVE SMOOTH",
"368 -84 OFFCURVE",
"350 -64 OFFCURVE",
"322 -64 CURVE SMOOTH",
"294 -64 OFFCURVE",
"275 -84 OFFCURVE",
"275 -112 CURVE SMOOTH",
"275 -140 OFFCURVE",
"294 -159 OFFCURVE",
"322 -159 CURVE SMOOTH"
);
},
{
closed = 1;
nodes = (
"455 251 LINE",
"455 485 LINE",
"431 485 LINE",
"427 436 OFFCURVE",
"424 388 OFFCURVE",
"379 388 CURVE SMOOTH",
"162 388 LINE",
"162 348 LINE",
"379 348 LINE SMOOTH",
"424 348 OFFCURVE",
"427 300 OFFCURVE",
"431 251 CURVE"
);
},
{
closed = 1;
nodes = (
"294 868 LINE SMOOTH",
"302 874 OFFCURVE",
"312 879 OFFCURVE",
"318 879 CURVE SMOOTH",
"324 879 OFFCURVE",
"332 874 OFFCURVE",
"341 868 CURVE",
"449 782 LINE",
"468 803 LINE",
"344 932 LINE",
"291 932 LINE",
"167 803 LINE",
"186 782 LINE"
);
}
);
};
components = (
{
name = E;
},
{
name = dotbelowcomb;
transform = "{1, 0, 0, 1, 168, 0}";
},
{
name = circumflexcomb;
transform = "{1, 0, 0, 1, 281, 120}";
}
);
layerId = "EB12C417-147C-44D3-ABF9-73FB32C0B9E2";
width = 560;
}
);
note = Ecircumflexdotbelow;
unicode = 1EC6;
},
{
glyphname = Ecircumflexgrave;
lastChange = "2018-04-30 15:44:56 +0000";
layers = (
{
background = {
paths = (
{
closed = 1;
nodes = (
"554 0 LINE",
"571 179 LINE",
"544 179 LINE",
"538 124 OFFCURVE",
"520 40 OFFCURVE",
"456 40 CURVE SMOOTH",
"201 40 LINE",
"201 659 LINE",
"441 659 LINE SMOOTH",
"516 659 OFFCURVE",
"525 567 OFFCURVE",
"528 527 CURVE",
"555 527 LINE",
"555 700 LINE",
"16 700 LINE",
"16 673 LINE",
"44 673 LINE SMOOTH",
"83 673 OFFCURVE",
"103 662 OFFCURVE",
"103 637 CURVE SMOOTH",
"103 62 LINE SMOOTH",
"103 37 OFFCURVE",
"83 26 OFFCURVE",
"44 26 CURVE SMOOTH",
"16 26 LINE",
"16 0 LINE"
);
},
{
closed = 1;
nodes = (
"455 251 LINE",
"455 485 LINE",
"431 485 LINE",
"427 436 OFFCURVE",
"424 388 OFFCURVE",
"379 388 CURVE SMOOTH",
"162 388 LINE",
"162 348 LINE",
"379 348 LINE SMOOTH",
"424 348 OFFCURVE",
"427 300 OFFCURVE",
"431 251 CURVE"
);
},
{
closed = 1;
nodes = (
"227 915 LINE",
"132 1008 LINE SMOOTH",
"122 1018 OFFCURVE",
"105 1034 OFFCURVE",
"85 1034 CURVE SMOOTH",
"63 1034 OFFCURVE",
"52 1017 OFFCURVE",
"52 1003 CURVE SMOOTH",
"52 988 OFFCURVE",
"65 972 OFFCURVE",
"88 960 CURVE SMOOTH",
"210 893 LINE"
);
},
{
closed = 1;
nodes = (
"290 862 LINE SMOOTH",
"300 870 OFFCURVE",
"310 878 OFFCURVE",
"318 878 CURVE SMOOTH",
"324 878 OFFCURVE",
"332 873 OFFCURVE",
"341 867 CURVE",
"447 781 LINE",
"466 803 LINE",
"344 932 LINE",
"293 932 LINE",
"171 803 LINE",
"189 781 LINE"
);
}
);
};
components = (
{
name = E;
},
{
name = circumflexgrave;
transform = "{1, 0, 0, 1, 280, 120}";
}
);
layerId = "5A4BD32C-A1D1-4EB1-A794-47BD06E3B809";
width = 560;
},
{
background = {
paths = (
{
closed = 1;
nodes = (
"554 0 LINE",
"571 179 LINE",
"544 179 LINE",
"538 124 OFFCURVE",
"520 40 OFFCURVE",
"456 40 CURVE SMOOTH",
"201 40 LINE",
"201 659 LINE",
"441 659 LINE SMOOTH",
"516 659 OFFCURVE",
"525 567 OFFCURVE",
"528 527 CURVE",
"555 527 LINE",
"555 700 LINE",
"16 700 LINE",
"16 673 LINE",
"44 673 LINE SMOOTH",
"83 673 OFFCURVE",
"103 662 OFFCURVE",
"103 637 CURVE SMOOTH",
"103 62 LINE SMOOTH",
"103 37 OFFCURVE",
"83 26 OFFCURVE",
"44 26 CURVE SMOOTH",
"16 26 LINE",
"16 0 LINE"
);
},
{
closed = 1;
nodes = (
"455 251 LINE",
"455 485 LINE",
"431 485 LINE",
"427 436 OFFCURVE",
"424 388 OFFCURVE",
"379 388 CURVE SMOOTH",
"162 388 LINE",
"162 348 LINE",
"379 348 LINE SMOOTH",
"424 348 OFFCURVE",
"427 300 OFFCURVE",
"431 251 CURVE"
);
},
{
closed = 1;
nodes = (
"227 915 LINE",
"132 1008 LINE SMOOTH",
"122 1018 OFFCURVE",
"105 1034 OFFCURVE",
"85 1034 CURVE SMOOTH",
"63 1034 OFFCURVE",
"52 1017 OFFCURVE",
"52 1003 CURVE SMOOTH",
"52 988 OFFCURVE",
"65 972 OFFCURVE",
"88 960 CURVE SMOOTH",
"210 893 LINE"
);
},
{
closed = 1;
nodes = (
"290 862 LINE SMOOTH",
"300 870 OFFCURVE",
"310 878 OFFCURVE",
"318 878 CURVE SMOOTH",
"324 878 OFFCURVE",
"332 873 OFFCURVE",
"341 867 CURVE",
"447 781 LINE",
"466 803 LINE",
"344 932 LINE",
"293 932 LINE",
"171 803 LINE",
"189 781 LINE"
);
}
);
};
components = (
{
name = E;
},
{
name = circumflexgrave;
transform = "{1, 0, 0, 1, 280, 120}";
}
);
layerId = "FD6510A9-FDB4-489D-9A3E-85E488E95339";
width = 560;
},
{
background = {
paths = (
{
closed = 1;
nodes = (
"554 0 LINE",
"571 179 LINE",
"544 179 LINE",
"538 124 OFFCURVE",
"520 40 OFFCURVE",
"456 40 CURVE SMOOTH",
"201 40 LINE",
"201 659 LINE",
"441 659 LINE SMOOTH",
"516 659 OFFCURVE",
"525 567 OFFCURVE",
"528 527 CURVE",
"555 527 LINE",
"555 700 LINE",
"16 700 LINE",
"16 673 LINE",
"44 673 LINE SMOOTH",
"83 673 OFFCURVE",
"103 662 OFFCURVE",
"103 637 CURVE SMOOTH",
"103 62 LINE SMOOTH",
"103 37 OFFCURVE",
"83 26 OFFCURVE",
"44 26 CURVE SMOOTH",
"16 26 LINE",
"16 0 LINE"
);
},
{
closed = 1;
nodes = (
"455 251 LINE",
"455 485 LINE",
"431 485 LINE",
"427 436 OFFCURVE",
"424 388 OFFCURVE",
"379 388 CURVE SMOOTH",
"162 388 LINE",
"162 348 LINE",
"379 348 LINE SMOOTH",
"424 348 OFFCURVE",
"427 300 OFFCURVE",
"431 251 CURVE"
);
},
{
closed = 1;
nodes = (
"227 915 LINE",
"132 1008 LINE SMOOTH",
"122 1018 OFFCURVE",
"105 1034 OFFCURVE",
"85 1034 CURVE SMOOTH",
"63 1034 OFFCURVE",
"52 1017 OFFCURVE",
"52 1003 CURVE SMOOTH",
"52 988 OFFCURVE",
"65 972 OFFCURVE",
"88 960 CURVE SMOOTH",
"210 893 LINE"
);
},
{
closed = 1;
nodes = (
"290 862 LINE SMOOTH",
"300 870 OFFCURVE",
"310 878 OFFCURVE",
"318 878 CURVE SMOOTH",
"324 878 OFFCURVE",
"332 873 OFFCURVE",
"341 867 CURVE",
"447 781 LINE",
"466 803 LINE",
"344 932 LINE",
"293 932 LINE",
"171 803 LINE",
"189 781 LINE"
);
}
);
};
components = (
{
name = E;
},
{
name = circumflexgrave;
transform = "{1, 0, 0, 1, 280, 120}";
}
);
layerId = "EB12C417-147C-44D3-ABF9-73FB32C0B9E2";
width = 560;
}
);
note = Ecircumflexgrave;
unicode = 1EC0;
},
{
glyphname = Ecircumflexhookabove;
lastChange = "2018-04-30 15:44:56 +0000";
layers = (
{
background = {
paths = (
{
closed = 1;
nodes = (
"554 0 LINE",
"571 179 LINE",
"544 179 LINE",
"538 124 OFFCURVE",
"520 40 OFFCURVE",
"456 40 CURVE SMOOTH",
"201 40 LINE",
"201 659 LINE",
"441 659 LINE SMOOTH",
"516 659 OFFCURVE",
"525 567 OFFCURVE",
"528 527 CURVE",
"555 527 LINE",
"555 700 LINE",
"16 700 LINE",
"16 673 LINE",
"44 673 LINE SMOOTH",
"83 673 OFFCURVE",
"103 662 OFFCURVE",
"103 637 CURVE SMOOTH",
"103 62 LINE SMOOTH",
"103 37 OFFCURVE",
"83 26 OFFCURVE",
"44 26 CURVE SMOOTH",
"16 26 LINE",
"16 0 LINE"
);
},
{
closed = 1;
nodes = (
"455 251 LINE",
"455 485 LINE",
"431 485 LINE",
"427 436 OFFCURVE",
"424 388 OFFCURVE",
"379 388 CURVE SMOOTH",
"162 388 LINE",
"162 348 LINE",
"379 348 LINE SMOOTH",
"424 348 OFFCURVE",
"427 300 OFFCURVE",
"431 251 CURVE"
);
},
{
closed = 1;
nodes = (
"286 858 LINE",
"297 868 OFFCURVE",
"309 878 OFFCURVE",
"318 878 CURVE SMOOTH",
"324 878 OFFCURVE",
"332 873 OFFCURVE",
"341 867 CURVE",
"447 781 LINE",
"466 803 LINE",
"344 932 LINE",
"293 932 LINE",
"171 803 LINE",
"189 781 LINE"
);
},
{
closed = 1;
nodes = (
"493 898 LINE",
"474 905 OFFCURVE",
"464 912 OFFCURVE",
"464 926 CURVE SMOOTH",
"464 954 OFFCURVE",
"544 965 OFFCURVE",
"544 1010 CURVE SMOOTH",
"544 1047 OFFCURVE",
"502 1063 OFFCURVE",
"460 1063 CURVE SMOOTH",
"429 1063 OFFCURVE",
"384 1053 OFFCURVE",
"384 1022 CURVE SMOOTH",
"384 1010 OFFCURVE",
"395 1001 OFFCURVE",
"405 1001 CURVE SMOOTH",
"434 1001 OFFCURVE",
"421 1040 OFFCURVE",
"464 1040 CURVE SMOOTH",
"483 1040 OFFCURVE",
"494 1028 OFFCURVE",
"494 1013 CURVE SMOOTH",
"494 973 OFFCURVE",
"421 965 OFFCURVE",
"421 925 CURVE SMOOTH",
"421 901 OFFCURVE",
"437 880 OFFCURVE",
"484 880 CURVE"
);
}
);
};
components = (
{
name = E;
},
{
name = circumflexhookabove;
transform = "{1, 0, 0, 1, 280, 120}";
}
);
layerId = "5A4BD32C-A1D1-4EB1-A794-47BD06E3B809";
width = 560;
},
{
background = {
paths = (
{
closed = 1;
nodes = (
"554 0 LINE",
"571 179 LINE",
"544 179 LINE",
"538 124 OFFCURVE",
"520 40 OFFCURVE",
"456 40 CURVE SMOOTH",
"201 40 LINE",
"201 659 LINE",
"441 659 LINE SMOOTH",
"516 659 OFFCURVE",
"525 567 OFFCURVE",
"528 527 CURVE",
"555 527 LINE",
"555 700 LINE",
"16 700 LINE",
"16 673 LINE",
"44 673 LINE SMOOTH",
"83 673 OFFCURVE",
"103 662 OFFCURVE",
"103 637 CURVE SMOOTH",
"103 62 LINE SMOOTH",
"103 37 OFFCURVE",
"83 26 OFFCURVE",
"44 26 CURVE SMOOTH",
"16 26 LINE",
"16 0 LINE"
);
},
{
closed = 1;
nodes = (
"455 251 LINE",
"455 485 LINE",
"431 485 LINE",
"427 436 OFFCURVE",
"424 388 OFFCURVE",
"379 388 CURVE SMOOTH",
"162 388 LINE",
"162 348 LINE",
"379 348 LINE SMOOTH",
"424 348 OFFCURVE",
"427 300 OFFCURVE",
"431 251 CURVE"
);
},
{
closed = 1;
nodes = (
"286 858 LINE",
"297 868 OFFCURVE",
"309 878 OFFCURVE",
"318 878 CURVE SMOOTH",
"324 878 OFFCURVE",
"332 873 OFFCURVE",
"341 867 CURVE",
"447 781 LINE",
"466 803 LINE",
"344 932 LINE",
"293 932 LINE",
"171 803 LINE",
"189 781 LINE"
);
},
{
closed = 1;
nodes = (
"493 898 LINE",
"474 905 OFFCURVE",
"464 912 OFFCURVE",
"464 926 CURVE SMOOTH",
"464 954 OFFCURVE",
"544 965 OFFCURVE",
"544 1010 CURVE SMOOTH",
"544 1047 OFFCURVE",
"502 1063 OFFCURVE",
"460 1063 CURVE SMOOTH",
"429 1063 OFFCURVE",
"384 1053 OFFCURVE",
"384 1022 CURVE SMOOTH",
"384 1010 OFFCURVE",
"395 1001 OFFCURVE",
"405 1001 CURVE SMOOTH",
"434 1001 OFFCURVE",
"421 1040 OFFCURVE",
"464 1040 CURVE SMOOTH",
"483 1040 OFFCURVE",
"494 1028 OFFCURVE",
"494 1013 CURVE SMOOTH",
"494 973 OFFCURVE",
"421 965 OFFCURVE",
"421 925 CURVE SMOOTH",
"421 901 OFFCURVE",
"437 880 OFFCURVE",
"484 880 CURVE"
);
}
);
};
components = (
{
name = E;
},
{
name = circumflexhookabove;
transform = "{1, 0, 0, 1, 280, 120}";
}
);
layerId = "FD6510A9-FDB4-489D-9A3E-85E488E95339";
width = 560;
},
{
background = {
paths = (
{
closed = 1;
nodes = (
"554 0 LINE",
"571 179 LINE",
"544 179 LINE",
"538 124 OFFCURVE",
"520 40 OFFCURVE",
"456 40 CURVE SMOOTH",
"201 40 LINE",
"201 659 LINE",
"441 659 LINE SMOOTH",
"516 659 OFFCURVE",
"525 567 OFFCURVE",
"528 527 CURVE",
"555 527 LINE",
"555 700 LINE",
"16 700 LINE",
"16 673 LINE",
"44 673 LINE SMOOTH",
"83 673 OFFCURVE",
"103 662 OFFCURVE",
"103 637 CURVE SMOOTH",
"103 62 LINE SMOOTH",
"103 37 OFFCURVE",
"83 26 OFFCURVE",
"44 26 CURVE SMOOTH",
"16 26 LINE",
"16 0 LINE"
);
},
{
closed = 1;
nodes = (
"455 251 LINE",
"455 485 LINE",
"431 485 LINE",
"427 436 OFFCURVE",
"424 388 OFFCURVE",
"379 388 CURVE SMOOTH",
"162 388 LINE",
"162 348 LINE",
"379 348 LINE SMOOTH",
"424 348 OFFCURVE",
"427 300 OFFCURVE",
"431 251 CURVE"
);
},
{
closed = 1;
nodes = (
"286 858 LINE",
"297 868 OFFCURVE",
"309 878 OFFCURVE",
"318 878 CURVE SMOOTH",
"324 878 OFFCURVE",
"332 873 OFFCURVE",
"341 867 CURVE",
"447 781 LINE",
"466 803 LINE",
"344 932 LINE",
"293 932 LINE",
"171 803 LINE",
"189 781 LINE"
);
},
{
closed = 1;
nodes = (
"493 898 LINE",
"474 905 OFFCURVE",
"464 912 OFFCURVE",
"464 926 CURVE SMOOTH",
"464 954 OFFCURVE",
"544 965 OFFCURVE",
"544 1010 CURVE SMOOTH",
"544 1047 OFFCURVE",
"502 1063 OFFCURVE",
"460 1063 CURVE SMOOTH",
"429 1063 OFFCURVE",
"384 1053 OFFCURVE",
"384 1022 CURVE SMOOTH",
"384 1010 OFFCURVE",
"395 1001 OFFCURVE",
"405 1001 CURVE SMOOTH",
"434 1001 OFFCURVE",
"421 1040 OFFCURVE",
"464 1040 CURVE SMOOTH",
"483 1040 OFFCURVE",
"494 1028 OFFCURVE",
"494 1013 CURVE SMOOTH",
"494 973 OFFCURVE",
"421 965 OFFCURVE",
"421 925 CURVE SMOOTH",
"421 901 OFFCURVE",
"437 880 OFFCURVE",
"484 880 CURVE"
);
}
);
};
components = (
{
name = E;
},
{
name = circumflexhookabove;
transform = "{1, 0, 0, 1, 280, 120}";
}
);
layerId = "EB12C417-147C-44D3-ABF9-73FB32C0B9E2";
width = 560;
}
);
note = Ecircumflexhookabove;
unicode = 1EC2;
},
{
glyphname = Ecircumflextilde;
lastChange = "2018-04-30 15:44:56 +0000";
layers = (
{
background = {
paths = (
{
closed = 1;
nodes = (
"554 0 LINE",
"571 179 LINE",
"544 179 LINE",
"538 124 OFFCURVE",
"520 40 OFFCURVE",
"456 40 CURVE SMOOTH",
"201 40 LINE",
"201 659 LINE",
"441 659 LINE SMOOTH",
"516 659 OFFCURVE",
"525 567 OFFCURVE",
"528 527 CURVE",
"555 527 LINE",
"555 700 LINE",
"16 700 LINE",
"16 673 LINE",
"44 673 LINE SMOOTH",
"83 673 OFFCURVE",
"103 662 OFFCURVE",
"103 637 CURVE SMOOTH",
"103 62 LINE SMOOTH",
"103 37 OFFCURVE",
"83 26 OFFCURVE",
"44 26 CURVE SMOOTH",
"16 26 LINE",
"16 0 LINE"
);
},
{
closed = 1;
nodes = (
"455 251 LINE",
"455 485 LINE",
"431 485 LINE",
"427 436 OFFCURVE",
"424 388 OFFCURVE",
"379 388 CURVE SMOOTH",
"162 388 LINE",
"162 348 LINE",
"379 348 LINE SMOOTH",
"424 348 OFFCURVE",
"427 300 OFFCURVE",
"431 251 CURVE"
);
},
{
closed = 1;
nodes = (
"290 862 LINE SMOOTH",
"300 870 OFFCURVE",
"310 878 OFFCURVE",
"318 878 CURVE SMOOTH",
"324 878 OFFCURVE",
"332 873 OFFCURVE",
"341 867 CURVE",
"447 781 LINE",
"466 803 LINE",
"344 932 LINE",
"293 932 LINE",
"171 803 LINE",
"189 781 LINE"
);
},
{
closed = 1;
nodes = (
"193 997 OFFCURVE",
"211 1018 OFFCURVE",
"242 1018 CURVE SMOOTH",
"291 1018 OFFCURVE",
"338 964 OFFCURVE",
"387 964 CURVE SMOOTH",
"440 964 OFFCURVE",
"469 1012 OFFCURVE",
"481 1063 CURVE",
"460 1075 LINE",
"447 1035 OFFCURVE",
"431 1012 OFFCURVE",
"398 1012 CURVE SMOOTH",
"351 1012 OFFCURVE",
"302 1065 OFFCURVE",
"253 1065 CURVE SMOOTH",
"202 1065 OFFCURVE",
"170 1021 OFFCURVE",
"160 970 CURVE",
"180 958 LINE"
);
}
);
};
components = (
{
name = E;
},
{
name = circumflextilde;
transform = "{1, 0, 0, 1, 280, 120}";
}
);
layerId = "5A4BD32C-A1D1-4EB1-A794-47BD06E3B809";
width = 560;
},
{
background = {
paths = (
{
closed = 1;
nodes = (
"554 0 LINE",
"571 179 LINE",
"544 179 LINE",
"538 124 OFFCURVE",
"520 40 OFFCURVE",
"456 40 CURVE SMOOTH",
"201 40 LINE",
"201 659 LINE",
"441 659 LINE SMOOTH",
"516 659 OFFCURVE",
"525 567 OFFCURVE",
"528 527 CURVE",
"555 527 LINE",
"555 700 LINE",
"16 700 LINE",
"16 673 LINE",
"44 673 LINE SMOOTH",
"83 673 OFFCURVE",
"103 662 OFFCURVE",
"103 637 CURVE SMOOTH",
"103 62 LINE SMOOTH",
"103 37 OFFCURVE",
"83 26 OFFCURVE",
"44 26 CURVE SMOOTH",
"16 26 LINE",
"16 0 LINE"
);
},
{
closed = 1;
nodes = (
"455 251 LINE",
"455 485 LINE",
"431 485 LINE",
"427 436 OFFCURVE",
"424 388 OFFCURVE",
"379 388 CURVE SMOOTH",
"162 388 LINE",
"162 348 LINE",
"379 348 LINE SMOOTH",
"424 348 OFFCURVE",
"427 300 OFFCURVE",
"431 251 CURVE"
);
},
{
closed = 1;
nodes = (
"290 862 LINE SMOOTH",
"300 870 OFFCURVE",
"310 878 OFFCURVE",
"318 878 CURVE SMOOTH",
"324 878 OFFCURVE",
"332 873 OFFCURVE",
"341 867 CURVE",
"447 781 LINE",
"466 803 LINE",
"344 932 LINE",
"293 932 LINE",
"171 803 LINE",
"189 781 LINE"
);
},
{
closed = 1;
nodes = (
"193 997 OFFCURVE",
"211 1018 OFFCURVE",
"242 1018 CURVE SMOOTH",
"291 1018 OFFCURVE",
"338 964 OFFCURVE",
"387 964 CURVE SMOOTH",
"440 964 OFFCURVE",
"469 1012 OFFCURVE",
"481 1063 CURVE",
"460 1075 LINE",
"447 1035 OFFCURVE",
"431 1012 OFFCURVE",
"398 1012 CURVE SMOOTH",
"351 1012 OFFCURVE",
"302 1065 OFFCURVE",
"253 1065 CURVE SMOOTH",
"202 1065 OFFCURVE",
"170 1021 OFFCURVE",
"160 970 CURVE",
"180 958 LINE"
);
}
);
};
components = (
{
name = E;
},
{
name = circumflextilde;
transform = "{1, 0, 0, 1, 280, 120}";
}
);
layerId = "FD6510A9-FDB4-489D-9A3E-85E488E95339";
width = 560;
},
{
background = {
paths = (
{
closed = 1;
nodes = (
"554 0 LINE",
"571 179 LINE",
"544 179 LINE",
"538 124 OFFCURVE",
"520 40 OFFCURVE",
"456 40 CURVE SMOOTH",
"201 40 LINE",
"201 659 LINE",
"441 659 LINE SMOOTH",
"516 659 OFFCURVE",
"525 567 OFFCURVE",
"528 527 CURVE",
"555 527 LINE",
"555 700 LINE",
"16 700 LINE",
"16 673 LINE",
"44 673 LINE SMOOTH",
"83 673 OFFCURVE",
"103 662 OFFCURVE",
"103 637 CURVE SMOOTH",
"103 62 LINE SMOOTH",
"103 37 OFFCURVE",
"83 26 OFFCURVE",
"44 26 CURVE SMOOTH",
"16 26 LINE",
"16 0 LINE"
);
},
{
closed = 1;
nodes = (
"455 251 LINE",
"455 485 LINE",
"431 485 LINE",
"427 436 OFFCURVE",
"424 388 OFFCURVE",
"379 388 CURVE SMOOTH",
"162 388 LINE",
"162 348 LINE",
"379 348 LINE SMOOTH",
"424 348 OFFCURVE",
"427 300 OFFCURVE",
"431 251 CURVE"
);
},
{
closed = 1;
nodes = (
"290 862 LINE SMOOTH",
"300 870 OFFCURVE",
"310 878 OFFCURVE",
"318 878 CURVE SMOOTH",
"324 878 OFFCURVE",
"332 873 OFFCURVE",
"341 867 CURVE",
"447 781 LINE",
"466 803 LINE",
"344 932 LINE",
"293 932 LINE",
"171 803 LINE",
"189 781 LINE"
);
},
{
closed = 1;
nodes = (
"193 997 OFFCURVE",
"211 1018 OFFCURVE",
"242 1018 CURVE SMOOTH",
"291 1018 OFFCURVE",
"338 964 OFFCURVE",
"387 964 CURVE SMOOTH",
"440 964 OFFCURVE",
"469 1012 OFFCURVE",
"481 1063 CURVE",
"460 1075 LINE",
"447 1035 OFFCURVE",
"431 1012 OFFCURVE",
"398 1012 CURVE SMOOTH",
"351 1012 OFFCURVE",
"302 1065 OFFCURVE",
"253 1065 CURVE SMOOTH",
"202 1065 OFFCURVE",
"170 1021 OFFCURVE",
"160 970 CURVE",
"180 958 LINE"
);
}
);
};
components = (
{
name = E;
},
{
name = circumflextilde;
transform = "{1, 0, 0, 1, 280, 120}";
}
);
layerId = "EB12C417-147C-44D3-ABF9-73FB32C0B9E2";
width = 560;
}
);
note = Ecircumflextilde;
unicode = 1EC4;
},
